<?xml version="1.0" standalone="no"?>
<!DOCTYPE svg PUBLIC "-//W3C//DTD SVG 1.1//EN" "http://www.w3.org/Graphics/SVG/1.1/DTD/svg11.dtd" >
<svg>
<metadata>
Created by FontForge 20090914 at Sat Apr  7 17:20:29 2018
 By www-data
Copyright (c) Gophmann A.L. cyr code page, 2018. All rights reserved.
</metadata>
<defs>
<font id="Mirabelle" horiz-adv-x="533" >
  <font-face 
    font-family="Mirabelle"
    font-weight="400"
    font-stretch="normal"
    units-per-em="1000"
    panose-1="2 0 4 0 0 0 0 0 0 0"
    ascent="800"
    descent="-200"
    x-height="451"
    cap-height="655"
    bbox="-73.002 -256 1031 849.008"
    underline-thickness="20"
    underline-position="-172"
    unicode-range="U+0020-U+2122"
  />
<missing-glyph horiz-adv-x="500" 
d="M111 44h278v665h-278v-665zM68 0v752h365v-752h-365z" />
    <glyph glyph-name=".notdef" horiz-adv-x="500" 
d="M111 44h278v665h-278v-665zM68 0v752h365v-752h-365z" />
    <glyph glyph-name="space" unicode=" " horiz-adv-x="347" 
 />
    <glyph glyph-name="exclam" unicode="!" horiz-adv-x="328" 
d="M164 153c12 0 23.167 -2.33301 33.5 -7s19.333 -10.834 27 -18.501s13.834 -16.667 18.501 -27s7 -21.5 7 -33.5s-2.33301 -23.167 -7 -33.5s-10.834 -19.333 -18.501 -27s-16.667 -13.834 -27 -18.501s-21.5 -7 -33.5 -7s-23.167 2.33301 -33.5 7
s-19.333 10.834 -27 18.501s-13.834 16.667 -18.501 27s-7 21.5 -7 33.5s2.33301 23.167 7 33.5s10.834 19.333 18.501 27s16.667 13.834 27 18.501s21.5 7 33.5 7zM166 689c24 0 43.835 -9.33301 59.502 -28s23.5 -43 23.5 -73c0 -17.333 -5 -47 -15 -89
c-9.33301 -36 -16 -67.667 -20 -95s-6 -50.333 -6 -69v-13c0 -5.33301 0.333008 -10.666 1 -15.999c0 -2.66699 0.166992 -5.16699 0.5 -7.5s0.5 -4.83301 0.5 -7.5s0.166992 -5.33398 0.5 -8.00098s0.5 -5.33398 0.5 -8.00098c0.666992 -6.66699 1 -12 1 -16v-11
c0 -15.333 -4.33301 -27.5 -13 -36.5s-19.667 -13.5 -33 -13.5s-24.333 4.66699 -33 14s-13 21 -13 35c0 3.33301 0.166992 8 0.5 14s0.833008 12.333 1.5 19s1.16699 13.334 1.5 20.001s0.5 12 0.5 16c0 22.667 -2.33301 49.667 -7 81s-11.334 64 -20.001 98l-5 21
c-8.66699 34.667 -13 62 -13 82c0 26 8.16699 47.667 24.5 65s37.166 26 62.499 26z" />
    <glyph glyph-name="quotedbl" unicode="&#x22;" 
d="M360 666c16 0 28.999 -6.33496 38.999 -19.002s15 -28.667 15 -48c0 -7.33301 -3 -24.333 -9 -51c0 -1.33301 -0.333008 -3 -1 -5s-1 -3.66699 -1 -5c-5.33301 -25.333 -9.66602 -47.666 -12.999 -66.999s-5 -34.666 -5 -45.999v-11.5
c0 -5.66699 0.333008 -12.167 1 -19.5c0 -3.33301 0.166992 -6.16602 0.5 -8.49902s0.5 -4.5 0.5 -6.5c0.666992 -3.33301 1 -6.33301 1 -9v-6c0 -8.66699 -2.83301 -16.167 -8.5 -22.5s-12.167 -9.5 -19.5 -9.5c-8 0 -14.833 3 -20.5 9s-8.5 13.333 -8.5 22v9
c0 4 0.333008 9 1 15c0 3.33301 0.166992 6.33301 0.5 9s0.5 5.33398 0.5 8.00098c0 2 0.166992 3.66699 0.5 5s0.5 2.66602 0.5 3.99902c0 33.333 -6.33301 74 -19 122l-3 13c-6.66699 26 -10 45.333 -10 58c0 17.333 5.66699 31.666 17 42.999s25 17 41 17z
M175.999 665.998c16 0 29.167 -6.33203 39.5 -18.999s15.5 -28.667 15.5 -48c0 -12 -3.33301 -32.333 -10 -61c-12 -50 -18 -87.667 -18 -113c0 -6 0.166992 -12.833 0.5 -20.5s0.833008 -14.5 1.5 -20.5v-20c0 -8.66699 -2.83301 -16.167 -8.5 -22.5s-12.5 -9.5 -20.5 -9.5
c-7.33301 0 -13.833 3 -19.5 9s-8.5 13.333 -8.5 22v9c0 4 0.333008 9 1 15c0 3.33301 0.166992 6.33301 0.5 9s0.5 5.33398 0.5 8.00098c0 2 0.166992 3.66699 0.5 5s0.5 2.66602 0.5 3.99902c0 11.333 -1.33301 25.333 -4 42s-6.66699 35.667 -12 57
c-10 42 -15 73.333 -15 94c0 17.333 5.5 31.666 16.5 42.999s24.167 17 39.5 17z" />
    <glyph glyph-name="numbersign" unicode="#" horiz-adv-x="592" 
d="M366 412h-121l-19 -144h121zM113 0l27 189.002h-93v79h103l18 144h-91v78h103c3.33301 29.333 7.5 60.666 12.5 93.999s9.5 65 13.5 95h77l-27 -189h121l13 94l13 95h76l-27 -189h93v-78h-103l-18 -144h91v-79h-103c-3.33301 -28.667 -7.5 -59.834 -12.5 -93.501
s-9.5 -65.5 -13.5 -95.5h-77l27 189h-121l-13 -93.5l-13 -95.5h-76z" />
    <glyph glyph-name="dollar" unicode="$" 
d="M42 163c-2 -2 -3 -2 -3 0h3zM286 660c6.66699 -1.33301 13.5029 -3.16895 20.5029 -5.50195s14.167 -5.16602 21.5 -8.49902l9 -3.5l9 -3.5c6 -2.66699 13.667 -4 23 -4c1.33301 0.666992 4 1 8 1c1.33301 0 3.5 0.166992 6.5 0.5s5.5 0.5 7.5 0.5
c1.33301 0.666992 5.66602 1 12.999 1c14.667 0 22 -5.66699 22 -17v-4.5c0 -1.66699 -0.333008 -4.16699 -1 -7.5c0 -0.666992 -0.166992 -1.33398 -0.5 -2.00098s-0.5 -1.33398 -0.5 -2.00098c-3.33301 -16.667 -5.83301 -33.834 -7.5 -51.501s-2.5 -34.167 -2.5 -49.5
c0 -34 -9 -51 -27 -51c-16.667 0 -26.334 15.667 -29.001 47c-4.66699 70.667 -35.667 106 -93 106c-23.333 0 -42.166 -6.83301 -56.499 -20.5s-21.5 -30.5 -21.5 -50.5c0 -21.333 6.66699 -38.666 20 -51.999c7.33301 -6.66699 18.833 -14.5 34.5 -23.5l55.5 -30.5l28 -14
c7.33301 -3.33301 14.5 -7 21.5 -11s12.833 -7.66699 17.5 -11c22 -12.667 40.667 -25.5 56 -38.5s27.833 -26.667 37.5 -41s16.834 -30 21.501 -47s7 -35.833 7 -56.5c0 -25.333 -4.5 -49.5 -13.5 -72.5s-23.167 -44.167 -42.5 -63.5c-38 -38 -86 -60.667 -144 -68v-76
c0 -22.667 -6.66699 -34 -20 -34s-20 11.333 -20 34v76c-15.333 0.666992 -40.666 5.66699 -75.999 15c-0.666992 0 -1.16699 0.166992 -1.5 0.5s-0.833008 0.5 -1.5 0.5c-5.33301 1.33301 -10.333 2.33301 -15 3s-8.33398 1 -11.001 1c-7.33301 0 -13.833 -0.5 -19.5 -1.5
s-11.167 -2.16699 -16.5 -3.5l-12 -4c-4 -1.33301 -7.66699 -2.66602 -11 -3.99902h1c-5.33301 -1.33301 -9.33301 -2 -12 -2c-15.333 0 -23 6.66699 -23 20c0 4 1 11.667 3 23c2.66699 13.333 4.66699 28 6 44s2 33.333 2 52v13h-17
c3.33301 2.66699 6.66602 8.5 9.99902 17.5s5 19.833 5 32.5c-0.666992 0.666992 -1 2.33398 -1 5.00098c0 28 10.333 42 31 42c19.333 0 32 -21.333 38 -64c5.33301 -35.333 19 -62.833 41 -82.5s51 -29.5 87 -29.5c34 0 61.167 9.33301 81.5 28s30.5 43 30.5 73
s-10.333 55.333 -31 76c-8.66699 9.33301 -21.834 19.833 -39.501 31.5s-40.5 24.167 -68.5 37.5c-28.667 14 -52.834 27.667 -72.501 41s-35.5 27 -47.5 41s-20.667 28.5 -26 43.5s-8 31.5 -8 49.5c0 44.667 16.333 80.334 49 107.001c32 28 73.667 44 125 48v41
c0 19.333 6.66699 29 20 29s20 -9.66699 20 -29v-41z" />
    <glyph glyph-name="percent" unicode="%" horiz-adv-x="713" 
d="M411 642c3.33301 16 10 24 20 24c12.667 0 19 -5.66699 19 -17c0 -4 -0.333008 -7.33301 -1 -10c0 -0.666992 -0.166992 -1.5 -0.5 -2.5s-0.5 -2.16699 -0.5 -3.5l-71 -305l-70 -304c-3.33301 -16 -10.333 -24 -21 -24c-12.667 0 -19 5.66699 -19 17c0 2 0.333008 4 1 6
l2 6v4zM212 465c0 101.333 -19.667 152 -59 152c-37.333 0 -56 -50.333 -56 -151c0 -100 19.333 -150 58 -150c38 0 57 49.667 57 149zM616 191c0 100.667 -19.333 151 -58 151c-38 0 -57 -50.333 -57 -151c0 -100 19.667 -150 59 -150c37.333 0 56 50 56 150zM698 189
c0 -63.333 -12.001 -111.833 -36.001 -145.5s-58.333 -50.5 -103 -50.5c-45.333 0 -80 17.5 -104 52.5s-36 85.833 -36 152.5c0 60.667 12 108 36 142s58 51 102 51c44.667 0 79.334 -17.5 104.001 -52.5s37 -84.833 37 -149.5zM293.999 464c0 -63.333 -12 -112 -36 -146
s-58.333 -51 -103 -51c-93.333 0 -140 68.333 -140 205c0 60.667 12.167 108.167 36.5 142.5s57.833 51.5 100.5 51.5c46 0 81.167 -17.5 105.5 -52.5s36.5 -84.833 36.5 -149.5z" />
    <glyph glyph-name="ampersand" unicode="&#x26;" horiz-adv-x="585" 
d="M249 465c36 32 54 61.667 54 89c0 16 -5 29.333 -15 40s-21.667 16 -35 16c-15.333 0 -28.333 -5.83301 -39 -17.5s-16 -26.167 -16 -43.5c0 -11.333 3 -23.833 9 -37.5s14.667 -28.5 26 -44.5zM202 322c-46.667 -54 -69.999 -103.333 -69.999 -148
c0 -26 8.16699 -47.667 24.5 -65s36.833 -26 61.5 -26c49.333 0 85.666 34 108.999 102zM429.001 257c1.33301 -2 2.66699 -3.83203 4 -5.49902s2.66602 -3.5 3.99902 -5.5c4.66699 -7.33301 10.167 -15 16.5 -23s12.833 -15.667 19.5 -23c50 -58 75 -112 75 -162
c0 -15.333 -2.66699 -29.666 -8 -42.999s-12.833 -24.833 -22.5 -34.5s-21 -17.334 -34 -23.001s-26.833 -8.5 -41.5 -8.5c-23.333 0 -43.333 6.5 -60 19.5s-25 28.5 -25 46.5c0 6.66699 2.66699 11 8 13c26.667 6 40 22 40 48c0 7.33301 -2 16.666 -6 27.999
s-10.333 24.666 -19 39.999c-39.333 -88 -99.333 -132 -180 -132c-53.333 0 -98.666 17.667 -135.999 53c-36.667 36 -55 80.667 -55 134c0 55.333 23 106 69 152c20.667 21.333 44 41.666 70 60.999c-16 28 -27.833 53.667 -35.5 77s-11.5 44 -11.5 62
c0 21.333 3.66699 40.833 11 58.5s17.5 32.667 30.5 45s28.333 22 46 29s37.167 10.5 58.5 10.5c38.667 0 70.667 -12 96 -36c27.333 -23.333 41 -54 41 -92c0 -36 -13.333 -67.333 -40 -94l-36 -36c-2 -2 -4.83301 -5.16699 -8.5 -9.5s-6.16699 -7.16602 -7.5 -8.49902
l73 -75c4 9.33301 6.66699 16 8 20s2.33301 7.66699 3 11c2 8 4.83301 17.833 8.5 29.5l13.5 43.5h-1c7.33301 21.333 20 38.5 38 51.5s37.667 19.5 59 19.5c24 0 43.833 -7.5 59.5 -22.5s23.5 -34.167 23.5 -57.5c0 -17.333 -5 -32.666 -15 -45.999s-21.667 -20 -35 -20
c-2.66699 0 -5 1.33301 -7 4l-6 17c-4 11.333 -12.667 17 -26 17c-14.667 0 -26.167 -8.83301 -34.5 -26.5s-16.833 -50.5 -25.5 -98.5z" />
    <glyph glyph-name="quotesingle" unicode="'" horiz-adv-x="356" 
d="M179 666c16 0 29.167 -6.33301 39.5 -19s15.5 -28.667 15.5 -48c0 -9.33301 -3.66699 -29.666 -11 -60.999c-11.333 -51.333 -17 -89 -17 -113c0 -6 0.166992 -12.833 0.5 -20.5s0.833008 -14.5 1.5 -20.5v-20c0 -8.66699 -3 -16.167 -9 -22.5s-12.667 -9.5 -20 -9.5
s-14 3 -20 9s-9 13.333 -9 22v9c0 4 0.333008 9 1 15c0 3.33301 0.166992 6.33301 0.5 9s0.5 5.33398 0.5 8.00098c0 2 0.166992 3.66699 0.5 5s0.5 2.66602 0.5 3.99902c0 22.667 -5 55.667 -15 99c-5.33301 21.333 -9.33301 39.833 -12 55.5s-4 28.5 -4 38.5
c0 17.333 5.5 31.666 16.5 42.999s24.5 17 40.5 17z" />
    <glyph glyph-name="parenleft" unicode="(" horiz-adv-x="308" 
d="M231 574c-18.667 -44 -33.666 -99.668 -44.999 -167.001c-4.66699 -30.667 -8.16699 -60.5 -10.5 -89.5s-3.5 -57.5 -3.5 -85.5c0 -32.667 2.16699 -66.334 6.5 -101.001s10.166 -67.667 17.499 -99c6.66699 -25.333 15.334 -54 26.001 -86s24 -67.333 40 -106v1
c1.33301 -3.33301 2.33301 -6.5 3 -9.5s1 -6.16699 1 -9.5c0 -14 -6.33301 -21 -19 -21c-19.333 0 -46 20.667 -80 62c-93.333 110 -140 237.333 -140 382c0 70.667 11.333 135.834 34 195.501s57 119.5 103 179.5c16 18.667 31.5 34.334 46.5 47.001s27.167 19 36.5 19
c5.33301 0 10.166 -2 14.499 -6s6.5 -8.66699 6.5 -14c0 -3.33301 -1.66699 -10 -5 -20z" />
    <glyph glyph-name="parenright" unicode=")" horiz-adv-x="308" 
d="M45 646c-3.33301 10 -4.99902 16.668 -4.99902 20.001c0 13.333 7.33301 20 22 20c7.33301 0 13.666 -2.33301 18.999 -7h-1c8.66699 -6 18.667 -14.333 30 -25s22.666 -22 33.999 -34c45.333 -54 79.5 -112.5 102.5 -175.5s34.5 -129.5 34.5 -199.5
c0 -138.667 -46.667 -266 -140 -382c-31.333 -41.333 -58.333 -62 -81 -62c-5.33301 0 -9.66602 2.16699 -12.999 6.5s-5 9.16602 -5 14.499c0 6 2 14 6 24l15.5 38.5l14.5 36.5c18.667 52 33 104.333 43 157s15 104 15 154c0 28 -1.16699 56.5 -3.5 85.5
s-5.83301 58.833 -10.5 89.5c-5.33301 32 -11.833 62.5 -19.5 91.5s-16.167 54.167 -25.5 75.5z" />
    <glyph glyph-name="asterisk" unicode="*" 
d="M312 542l16.999 15.0029c22.667 19.333 44 29 64 29c10 0 19.5 -3.83301 28.5 -11.5s13.5 -16.167 13.5 -25.5c0 -34 -28.667 -51 -86 -51h-27c-7.33301 0 -13.333 0.333008 -18 1l-6 -16c58 -37.333 87 -66 87 -86c0 -28.667 -12.333 -43 -37 -43
c-27.333 0 -46.666 18 -57.999 54l1 -1l-6.5 22.5l-10.5 35.5h-18c-14 -73.333 -38 -110 -72 -110c-25.333 0 -38 13.667 -38 41c0 8.66699 0.333008 13.334 1 14.001c7.33301 16.667 25 34 53 52c1.33301 1.33301 2.5 2.16602 3.5 2.49902s2.83301 1.16602 5.5 2.49902
s6 3.66602 10 6.99902s7.66699 6 11 8l-7 17c-5.33301 -1.33301 -10 -2 -14 -2h-14c-64.667 0 -97 19.333 -97 58c0 9.33301 4 17.333 12 24s17.333 10 28 10c20.667 0 51 -18 91 -54l15 11c-7.33301 18 -12.5 34.167 -15.5 48.5s-4.5 27.166 -4.5 38.499
c0 30.667 13.667 46 41 46c26 0 39 -16.333 39 -49c0 -20.667 -10 -57 -30 -109z" />
    <glyph glyph-name="plus" unicode="+" 
d="M435 240c18.667 0 28 -8 28 -24s-9.33301 -24 -28 -24h-144v-144c0 -18 -8 -27 -24 -27s-24 9 -24 27v144h-144c-18.667 0 -28 8 -28 24s9.33301 24 28 24h144v144c0 18.667 8 28 24 28s24 -9.33301 24 -28v-144h144z" />
    <glyph glyph-name="comma" unicode="," horiz-adv-x="301" 
d="M236 50c0 -22.667 -3.99902 -45.999 -11.999 -69.999s-19.667 -48.667 -35 -74c-13.333 -19.333 -26.333 -35 -39 -47s-24.667 -18 -36 -18c-12 0 -18 6 -18 18c0 2.66699 0.833008 5.5 2.5 8.5s3.5 6.5 5.5 10.5c0.666992 1.33301 2.16699 3.66602 4.5 6.99902l9.5 13
c16 20.667 24 39.334 24 56.001c0 14.667 -11.333 29.667 -34 45c-28.667 20 -43 44 -43 72c0 23.333 8.16699 43.166 24.5 59.499s36.166 24.5 59.499 24.5c26 0 47 -9.5 63 -28.5s24 -44.5 24 -76.5z" />
    <glyph glyph-name="hyphen" unicode="-" horiz-adv-x="200" 
d="M165 240c18.667 0 28 -8 28 -24s-9.33301 -24 -28 -24h-130c-18.667 0 -28 8 -28 24s9.33301 24 28 24h130z" />
    <glyph glyph-name="period" unicode="." horiz-adv-x="301" 
d="M151 153c12 0 23.167 -2.33301 33.5 -7s19.333 -10.834 27 -18.501s13.834 -16.667 18.501 -27s7 -21.5 7 -33.5s-2.33301 -23.167 -7 -33.5s-10.834 -19.333 -18.501 -27s-16.667 -13.834 -27 -18.501s-21.5 -7 -33.5 -7s-23.167 2.33301 -33.5 7
s-19.333 10.834 -27 18.501s-13.834 16.667 -18.501 27s-7 21.5 -7 33.5s2.33301 23.167 7 33.5s10.834 19.333 18.501 27s16.667 13.834 27 18.501s21.5 7 33.5 7z" />
    <glyph glyph-name="slash" unicode="/" horiz-adv-x="269" 
d="M196 681c4.66699 15.333 12.333 22.999 23 22.999c16 0 24 -7.66699 24 -23v-4c-0.666992 -1.33301 -1 -2.66602 -1 -3.99902v-4c0 -0.666992 -0.333008 -1.66699 -1 -3s-1 -2.33301 -1 -3l-167 -720v1c-4 -14.667 -11.667 -22 -23 -22c-16 0 -24 7.33301 -24 22
c0 5.33301 0.333008 8.33301 1 9c0 2.66699 0.666992 6 2 10v-1z" />
    <glyph glyph-name="zero" unicode="0" 
d="M357 325c0 162.667 -30.667 244 -92 244c-58.667 0 -88 -81 -88 -243c0 -162.667 30.667 -244 92 -244c58.667 0 88 81 88 243zM506 323c0 -108.667 -20.667 -191.669 -62 -249.002s-100.333 -86 -177 -86c-77.333 0 -136.666 29.667 -177.999 89s-62 146 -62 260
c0 50.667 5.33301 96.334 16 137.001s26.167 75.334 46.5 104.001s45.166 50.5 74.499 65.5s62.333 22.5 99 22.5c78 0 138 -29.667 180 -89s63 -144 63 -254z" />
    <glyph glyph-name="one" unicode="1" 
d="M350 98c0.666992 -12.667 8.33496 -22.667 23.002 -30l19 -9c15.333 -8 23 -18 23 -30c0 -11.333 -4.33301 -19.333 -13 -24c-6.66699 -3.33301 -20.667 -5 -42 -5h-152c-21.333 0 -35.333 1.66699 -42 5c-8.66699 4.66699 -13 12.667 -13 24c0 12 7.33301 22 22 30
c3.33301 1.33301 6.66602 2.83301 9.99902 4.5s6.66602 3.16699 9.99902 4.5c16 6.66699 24 22.334 24 47.001l-3 293c0 26.667 -15 40 -45 40h-17c-19.333 0 -29 8.66699 -29 26c0 8 13 24 39 48c15.333 13.333 30.833 28.166 46.5 44.499l46.5 50.5l18 21
c16 18.667 29.667 28 41 28c16.667 0 27 -11 31 -33v1c0.666992 -4 1.16699 -10.167 1.5 -18.5s0.5 -18.5 0.5 -30.5z" />
    <glyph glyph-name="two" unicode="2" 
d="M217 139c6.66699 2 12.999 3.66895 18.999 5.00195s12.333 2 19 2c2 0 7 -0.5 15 -1.5s16 -2.16699 24 -3.5c7.33301 -1.33301 15 -2.5 23 -3.5s14.667 -1.5 20 -1.5c20.667 0 43.334 10.667 68.001 32c23.333 19.333 37.333 29 42 29c6 0 11.5 -2.5 16.5 -7.5
s7.5 -10.5 7.5 -16.5c0 -7.33301 -1 -13.333 -3 -18v1c-4.66699 -6.66699 -10.834 -20.834 -18.501 -42.501l-29.5 -87.5c-7.33301 -25.333 -23 -38 -47 -38c-7.33301 0 -17.833 1.83301 -31.5 5.5s-30.5 9.16699 -50.5 16.5h1c-43.333 17.333 -76.333 26 -99 26
c-14 0 -32.667 -7.33301 -56 -22c-17.333 -11.333 -32 -17 -44 -17c-7.33301 0 -13.833 4.5 -19.5 13.5s-8.5 21.167 -8.5 36.5c0 16 2.33301 33.333 7 52c5.33301 21.333 11.666 41.666 18.999 60.999s16.666 37.666 27.999 54.999c8 13.333 18.333 28.5 31 45.5
s27.667 36.167 45 57.5c7.33301 10 15.333 19.833 24 29.5s16.667 19.5 24 29.5c49.333 58.667 74 105 74 139c0 19.333 -5.16699 35 -15.5 47s-24.166 18 -41.499 18c-14.667 0 -27.334 -5 -38.001 -15s-16 -22.667 -16 -38c0 -12.667 6.33301 -25 19 -37
c8 -8 12 -14.333 12 -19c0 -13.333 -7.5 -25.166 -22.5 -35.499s-31.833 -15.5 -50.5 -15.5c-12.667 0 -24.667 2.5 -36 7.5s-21.166 12 -29.499 21s-15 19.333 -20 31s-7.5 24.5 -7.5 38.5c0 44 21.333 80.333 64 109c38 25.333 81 38 129 38c24 0 47.5 -4 70.5 -12
s43.833 -19 62.5 -33c38 -32.667 57 -73.334 57 -122.001c0 -35.333 -9.66699 -66 -29 -92c-7.33301 -11.333 -18.666 -24.833 -33.999 -40.5s-33.666 -33.167 -54.999 -52.5v1c-67.333 -59.333 -111.333 -113.666 -132 -162.999z" />
    <glyph glyph-name="three" unicode="3" 
d="M388 382c74 -32 111.005 -90.6709 111.005 -176.004c0 -33.333 -6.16699 -63.666 -18.5 -90.999s-29.833 -51 -52.5 -71c-47.333 -37.333 -105.333 -56 -174 -56c-58.667 0 -108.334 13.333 -149.001 40h1c-45.333 31.333 -68 73.666 -68 126.999c0 18 3 34.833 9 50.5
s14 29.334 24 41.001s22 20.834 36 27.501s29 10 45 10c22.667 0 43 -8.66699 61 -26c19.333 -15.333 29 -33.666 29 -54.999c0 -5.33301 -0.666992 -8 -2 -8l-16 -4c-22 -4 -33 -18.667 -33 -44c0 -36 21.333 -54 64 -54c27.333 0 49.166 10.833 65.499 32.5
s24.5 49.834 24.5 84.501c0 68.667 -27.667 108 -83 118c-3.33301 0.666992 -7.33301 1.33398 -12 2.00098s-8.66699 1.33398 -12 2.00098c-11.333 3.33301 -17 10.666 -17 21.999c0 10 6.33301 20.333 19 31l10.5 10l22.5 21c40 36 60 71.667 60 107
c0 18 -6.16699 33.167 -18.5 45.5s-27.166 18.5 -44.499 18.5c-15.333 0 -29 -5.33301 -41 -16s-18 -22.667 -18 -36s7.66699 -27.666 23 -42.999c5.33301 -5.33301 8 -9.33301 8 -12c0 -4.66699 -1.66699 -10.334 -5 -17.001l1 1c-18 -24 -41.667 -36 -71 -36
c-12 0 -23.167 2.5 -33.5 7.5s-19.333 11.667 -27 20s-13.667 18.166 -18 29.499s-6.5 23.666 -6.5 36.999c0 46 20.667 82.333 62 109c17.333 12 37.166 20.833 59.499 26.5s46.166 8.5 71.499 8.5c47.333 0 88 -13 122 -39c17.333 -14 30.5 -30 39.5 -48
s13.5 -38 13.5 -60c0 -12 -1 -22.833 -3 -32.5s-5.33301 -19.167 -10 -28.5s-11.334 -18.666 -20.001 -27.999s-19.334 -20 -32.001 -32z" />
    <glyph glyph-name="four" unicode="4" 
d="M278 498c-16.667 -18 -30.334 -34.668 -41.001 -50.001s-20.667 -30.666 -30 -45.999c-41.333 -70.667 -62 -120 -62 -148c0 -14.667 7.33301 -22 22 -22c2.66699 0 4.83398 0.166992 6.50098 0.5s3.5 0.833008 5.5 1.5l20.5 8l20.5 8l-1 -1l59 20v229zM408 270.999
l11.0039 -4.99902c59.333 -22 89 -46.667 89 -74c0 -9.33301 -3.66699 -17.166 -11 -23.499s-15.666 -9.5 -24.999 -9.5c-12.667 0 -24.334 2.66699 -35.001 8l-29 10v-48l1 -14l1 -17c1.33301 -13.333 9 -23.333 23 -30l19 -9c15.333 -8 23 -18 23 -30
c0 -11.333 -4.66699 -19.333 -14 -24c-6.66699 -3.33301 -20.667 -5 -42 -5h-151c-22 0 -36.333 1.66699 -43 5v-1c-8.66699 4.66699 -13 13 -13 25s7.66699 22 23 30c3.33301 1.33301 6.66602 2.83301 9.99902 4.5s6.66602 3.16699 9.99902 4.5c15.333 6 23 21.667 23 47
v62c-5.33301 -1.33301 -15.833 -4.5 -31.5 -9.5s-34.834 -12.167 -57.501 -21.5h1c-18 -6 -32.5 -10.667 -43.5 -14s-18.5 -5 -22.5 -5c-17.333 0 -30.333 6 -39 18l-33 42c-11.333 13.333 -17 32.666 -17 57.999c0 82 46.667 180.667 140 296
c16 20 31.167 37.167 45.5 51.5s28.333 25.833 42 34.5s27.5 15 41.5 19s28.667 6 44 6h39c20 0 30 -9 30 -27c0 -2 -0.333008 -3.33301 -1 -4l-2 -14c-0.666992 -4.66699 -1.33398 -9 -2.00098 -13c-1.33301 -8.66699 -2.33301 -20.334 -3 -35.001s-1 -32 -1 -52v-236z" />
    <glyph glyph-name="five" unicode="5" 
d="M197 437c48 18 85.332 27.001 111.999 27.001c58 0 104.667 -24.667 140 -74c32 -45.333 48 -98.333 48 -159c0 -38 -5.66699 -72 -17 -102s-27.666 -55.5 -48.999 -76.5s-47.166 -37 -77.499 -48s-64.166 -16.5 -101.499 -16.5c-30 0 -57 3.16699 -81 9.5
s-46.333 16.166 -67 29.499h1c-46 30.667 -69 72 -69 124c0 34.667 10.667 64.667 32 90c22.667 25.333 50.667 38 84 38c13.333 0 26 -2.33301 38 -7s22.5 -11.167 31.5 -19.5s16.167 -18 21.5 -29s8 -22.833 8 -35.5c0 -16.667 -4.33301 -25 -13 -25h-5
c-28.667 0 -43 -14.333 -43 -43c0 -15.333 5.83301 -28 17.5 -38s26.5 -15 44.5 -15c30 0 53.667 12.5 71 37.5s26 58.833 26 101.5c0 44.667 -11.333 81.167 -34 109.5s-53 42.5 -91 42.5c-17.333 0 -35 -3 -53 -9l-57 -20c-7.33301 -2 -14 -3 -20 -3
c-19.333 0 -29 9.33301 -29 28c0 9.33301 2 21.666 6 36.999l25 93l3.5 18c1 5.33301 1.5 10.666 1.5 15.999c0 6 -2.66699 15.333 -8 28l-12 18v-1c-4 6 -6 10.667 -6 14c0 2 1.33301 5.66699 4 11h-1c3.33301 5.33301 16 11.333 38 18l51.5 19l36.5 13
c15.333 7.33301 28 12.833 38 16.5s16 5.83398 18 6.50098c5.33301 2 12 3.33301 20 4s17 1 27 1c26 0 56 -8 90 -24c13.333 18 25.666 27 36.999 27c6 0 11.333 -2.16699 16 -6.5s7 -9.83301 7 -16.5c0 -0.666992 -0.166992 -2.16699 -0.5 -4.5
s-0.833008 -5.16602 -1.5 -8.49902c-7.33301 -43.333 -12.333 -75.333 -15 -96l-2 -15.5l-2 -15.5c-2 -18 -10.667 -27 -26 -27c-14 0 -24.667 10.667 -32 32c-14.667 43.333 -36.667 65 -66 65c-22.667 0 -50.334 -7.66699 -83.001 -23z" />
    <glyph glyph-name="six" unicode="6" horiz-adv-x="532" 
d="M179 237c2 -40.667 12.832 -72.5 32.499 -95.5s44.5 -34.5 74.5 -34.5c28 0 50.833 10.5 68.5 31.5s26.5 48.5 26.5 82.5c0 26 -6.66699 47.333 -20 64s-30.666 25 -51.999 25c-14.667 0 -27.167 -5 -37.5 -15s-15.5 -21.667 -15.5 -35v-6l2 -11
c0 -2.66699 -4.33301 -4 -13 -4c-8 0 -17.833 3.83301 -29.5 11.5s-24.5 19.5 -38.5 35.5zM196.999 350l6 10.5c2 3.66699 4 6.83398 6 9.50098c26 32 63.667 48 113 48c54 0 97.667 -19 131 -57c34.667 -38.667 52 -85.667 52 -141c0 -68.667 -21 -125 -63 -169
c-42 -42 -97.667 -63 -167 -63c-81.333 0 -144.333 31 -189 93c-39.333 55.333 -59 126.333 -59 213c0 46 6.16699 89.833 18.5 131.5s29.833 80.5 52.5 116.5c26.667 40 57.667 70.667 93 92s74 32 116 32c40.667 0 75 -9.66699 103 -29c34 -21.333 51 -49 51 -83
c0 -21.333 -7.66699 -39.666 -23 -54.999s-33.666 -23 -54.999 -23c-20.667 0 -36.667 5.66699 -48 17c-2.66699 2.66699 -4 5 -4 7c0.666992 0 1 0.333008 1 1c0 1.33301 0.333008 2.66602 1 3.99902c1.33301 4.66699 3.16602 9.66699 5.49902 15s3.5 10.666 3.5 15.999
c0 12.667 -4.66699 23.667 -14 33s-20.666 14 -33.999 14c-34 0 -62 -26.333 -84 -79c-14.667 -34.667 -24.334 -72 -29.001 -112c0 -2.66699 -0.333008 -7 -1 -13s-1.66699 -13.667 -3 -23z" />
    <glyph glyph-name="seven" unicode="7" 
d="M322 532c-2 0 -6.8291 -0.168945 -14.4961 -0.501953s-12.167 -0.5 -13.5 -0.5c-3.33301 -0.666992 -5.83301 -1 -7.5 -1h-4.5c-7.33301 0 -14.333 0.666992 -21 2l-37 9h1c-6 2 -11.333 3.33301 -16 4s-9.33398 1 -14.001 1c-8 0 -17.667 -3.16699 -29 -9.5
s-24.333 -14.833 -39 -25.5c-17.333 -13.333 -30.333 -20 -39 -20c-7.33301 0 -13.5 2.66699 -18.5 8s-7.5 12 -7.5 20c0 8.66699 1.66699 15 5 19l20 32l19 38c1.33301 6 3.16602 11.5 5.49902 16.5s4.16602 10.167 5.49902 15.5h-1c5.33301 17.333 21 26 47 26
c5.33301 0 9.33301 -0.333008 12 -1l57 -8.5c19.333 -3 38.666 -6.16699 57.999 -9.5c16 -2.66699 29.667 -4.66699 41 -6s19.333 -2 24 -2c14.667 0 31.667 4 51 12l33 13c4 1.33301 8.33301 2 13 2c18 0 27 -10.333 27 -31c0 -32.667 -20.333 -92.334 -61 -179.001
l-27 -58l-27 -58c-23.333 -48 -40.833 -89.667 -52.5 -125s-17.5 -61.666 -17.5 -78.999c0 -29.333 16.333 -52.666 49 -69.999c22.667 -11.333 34 -23.666 34 -36.999c0 -19.333 -15 -29 -45 -29h-133c-42 0 -63 22.667 -63 68c0 17.333 2.33301 36.5 7 57.5
s11.667 43.167 21 66.5c3.33301 9.33301 9.5 23.833 18.5 43.5l36.5 77.5z" />
    <glyph glyph-name="eight" unicode="8" 
d="M318 435c-7.33301 9.33301 -10.999 17.333 -10.999 24c0 2.66699 3.33301 6.66699 10 12l-1 -1c18.667 12 28 29.667 28 53c0 19.333 -6.83301 35.5 -20.5 48.5s-30.5 19.5 -50.5 19.5c-21.333 0 -38.833 -6.5 -52.5 -19.5s-20.5 -29.167 -20.5 -48.5
c0 -24 13.333 -46.333 40 -67c3.33301 -2.66699 10.666 -7 21.999 -13l44 -23zM242.001 283c4 -12 6 -19.666 6 -22.999c0 -2.66699 -2 -4.33398 -6 -5.00098c-43.333 -11.333 -65 -38 -65 -80c0 -28 8.83301 -50.833 26.5 -68.5s40.167 -26.5 67.5 -26.5
c26.667 0 49 8.83301 67 26.5s27 39.5 27 65.5c0 12 -1.83301 23 -5.5 33s-9.66699 19.667 -18 29s-19.333 19 -33 29s-30.5 20.667 -50.5 32zM386.001 372.001l-1.00293 -0.00195312c10 -7.33301 19 -13.666 27 -18.999l23 -16c44.667 -36.667 67 -86.334 67 -149.001
c0 -31.333 -5.66699 -59.333 -17 -84s-27.666 -45.5 -48.999 -62.5s-47.333 -30.167 -78 -39.5s-65 -14 -103 -14c-64 0 -116 14.667 -156 44c-45.333 33.333 -68 79.333 -68 138c0 31.333 7.5 60.166 22.5 86.499s35.167 44.833 60.5 55.5h-1c6 2 16.333 4.33301 31 7
s34 5.33398 58 8.00098c-22 15.333 -40.667 29.833 -56 43.5s-27.666 27.334 -36.999 41.001s-16 27.667 -20 42s-6 29.833 -6 46.5c0 25.333 4.83301 48.166 14.5 68.499s23.167 37.833 40.5 52.5s38.5 25.834 63.5 33.501s52.833 11.5 83.5 11.5
c48.667 0 90.334 -13.333 125.001 -40c38.667 -29.333 58 -66.666 58 -111.999c0 -32 -12.333 -57.333 -37 -76s-57.667 -29 -99 -31z" />
    <glyph glyph-name="nine" unicode="9" 
d="M351 433c-5.33301 38.667 -11.6689 65.998 -19.002 81.998c-17.333 38 -46 57 -86 57c-28 0 -51 -10.167 -69 -30.5s-27 -46.5 -27 -78.5c0 -14 2.16699 -27.167 6.5 -39.5s10.333 -23.166 18 -32.499s16.334 -16.833 26.001 -22.5s19.834 -8.5 30.501 -8.5
c13.333 0 25.333 4.83301 36 14.5s16 21.167 16 34.5c0 2.66699 -0.333008 5.33398 -1 8.00098c-1.33301 5.33301 -2 9.33301 -2 12l-2 8c0 3.33301 4 5 12 5c14 0 28.667 -6 44 -18zM337.997 319.998c-30.667 -38.667 -69.3281 -57.999 -115.995 -57.999
c-56.667 0 -102.334 18 -137.001 54c-34.667 36.667 -52 82.667 -52 138c0 64 20.667 115 62 153c41.333 39.333 94 59 158 59c83.333 0 146.666 -32.667 189.999 -98c38.667 -55.333 58 -128 58 -218c0 -98.667 -22 -181.334 -66 -248.001v1
c-51.333 -76.667 -122.333 -115 -213 -115c-46 0 -84.333 9.66699 -115 29c-36.667 24 -55 55.333 -55 94c0 25.333 8 46.833 24 64.5s35.333 26.5 58 26.5c34.667 0 52 -5.66699 52 -17l-1 -1c0 -0.666992 -0.166992 -1 -0.5 -1s-0.5 -0.333008 -0.5 -1
c-0.666992 -1.33301 -1.33398 -3.33301 -2.00098 -6s-1.33398 -5.66699 -2.00098 -9c-1.33301 -3.33301 -2.33301 -7 -3 -11c0 -30 17.333 -45 52 -45c17.333 0 35.166 6.16699 53.499 18.5s32.5 27.5 42.5 45.5c14 29.333 24.667 75.333 32 138z" />
    <glyph glyph-name="colon" unicode=":" horiz-adv-x="301" 
d="M151 153c12 0 23.167 -2.33301 33.5 -7s19.333 -10.834 27 -18.501s13.834 -16.667 18.501 -27s7 -21.5 7 -33.5s-2.33301 -23.167 -7 -33.5s-10.834 -19.333 -18.501 -27s-16.667 -13.834 -27 -18.501s-21.5 -7 -33.5 -7s-23.167 2.33301 -33.5 7
s-19.333 10.834 -27 18.501s-13.834 16.667 -18.501 27s-7 21.5 -7 33.5s2.33301 23.167 7 33.5s10.834 19.333 18.501 27s16.667 13.834 27 18.501s21.5 7 33.5 7zM151 412c12 0 23.167 -2.33301 33.5 -7s19.333 -10.834 27 -18.501s13.834 -16.834 18.501 -27.501
s7 -22 7 -34s-2.33301 -23.167 -7 -33.5s-10.834 -19.333 -18.501 -27s-16.667 -13.834 -27 -18.501s-21.5 -7 -33.5 -7s-23.167 2.33301 -33.5 7s-19.333 10.834 -27 18.501s-13.834 16.667 -18.501 27s-7 21.5 -7 33.5s2.33301 23.333 7 34s10.834 19.834 18.501 27.501
s16.667 13.834 27 18.501s21.5 7 33.5 7z" />
    <glyph glyph-name="semicolon" unicode=";" horiz-adv-x="301" 
d="M151 412c12 0 23.167 -2.33301 33.5 -7s19.333 -10.834 27 -18.501s13.834 -16.834 18.501 -27.501s7 -22 7 -34s-2.33301 -23.167 -7 -33.5s-10.834 -19.333 -18.501 -27s-16.667 -13.834 -27 -18.501s-21.5 -7 -33.5 -7s-23.167 2.33301 -33.5 7
s-19.333 10.834 -27 18.501s-13.834 16.667 -18.501 27s-7 21.5 -7 33.5s2.33301 23.333 7 34s10.834 19.834 18.501 27.501s16.667 13.834 27 18.501s21.5 7 33.5 7zM236 50c0 -22.667 -3.99805 -45.998 -11.998 -69.998s-19.667 -48.667 -35 -74
c-13.333 -19.333 -26.333 -35 -39 -47s-24.667 -18 -36 -18c-12 0 -18 6 -18 18c0 2.66699 0.833008 5.5 2.5 8.5s3.5 6.5 5.5 10.5c0.666992 1.33301 2.16699 3.66602 4.5 6.99902l9.5 13c7.33301 10.667 13.166 20.5 17.499 29.5s6.5 17.833 6.5 26.5
c0 14.667 -11.333 29.667 -34 45c-28.667 20 -43 44 -43 72c0 23.333 8.16699 43.166 24.5 59.499s36.166 24.5 59.499 24.5c26 0 47 -9.5 63 -28.5s24 -44.5 24 -76.5z" />
    <glyph glyph-name="less" unicode="&#x3c;" horiz-adv-x="873" 
d="M372 430c2.66699 1.33301 4 1.33301 4 0h-4zM275 348c-10.667 34 -27.668 50.999 -51.001 50.999c-12 0 -23.167 -4.33301 -33.5 -13s-19.333 -21 -27 -37s-13.5 -35 -17.5 -57s-6 -46 -6 -72c0 -104.667 27.667 -157 83 -157c34.667 0 52 17.333 52 52
c0 16.667 -8.33301 29 -25 37h1c-10 6.66699 -15 10.334 -15 11.001c0 15.333 6.83301 29 20.5 41s29.167 18 46.5 18c22 0 40.333 -8.83301 55 -26.5s22 -40.167 22 -67.5c0 -45.333 -17 -80.333 -51 -105c-30.667 -24 -70 -36 -118 -36c-62.667 0 -111.667 21.667 -147 65
c-32.667 41.333 -49 94.666 -49 159.999c0 32 3.83301 61.5 11.5 88.5s19.834 52.167 36.501 75.5c36.667 52.667 83.667 79 141 79c7.33301 0 15.333 -0.5 24 -1.5s18 -2.16699 28 -3.5l13 -2h5c2 -0.666992 5 -1 9 -1c6.66699 0 12 0.666992 16 2l13 4
c5.33301 2 9.5 3.33301 12.5 4s5.16699 1 6.5 1c16.667 0 25 -9.33301 25 -28h16c-3.33301 -1.33301 -7.33301 -4.33301 -12 -9s-7 -11 -7 -19v-5c-0.666992 -9.33301 -1.16699 -18.666 -1.5 -27.999s-0.5 -18 -0.5 -26v-25c0 -25.333 -9.66699 -38 -29 -38
c-16 0 -26.667 8.66699 -32 26h1zM567.999 376.999c46 52 91.998 77.998 137.998 77.998c42.667 0 72.334 -14.333 89.001 -43l8.5 -17.5c2.33301 -5 3.83301 -9.5 4.5 -13.5c0.666992 -4.66699 1.33398 -12.334 2.00098 -23.001s1 -24 1 -40v-227c0 -20.667 7 -34 21 -40
c2 -1.33301 5 -2.5 9 -3.5s7 -2.16699 9 -3.5c12.667 -5.33301 19 -12.666 19 -21.999s-3.33301 -15.333 -10 -18s-19.334 -4 -38.001 -4h-140c-4.66699 0 -9.16699 0.333008 -13.5 1s-7.83301 1.33398 -10.5 2.00098c-2 2.66699 -3.83301 5.66699 -5.5 9
s-2.5 6.66602 -2.5 9.99902c0 10.667 4 18 12 22l13 6c11.333 6.66699 17 20.334 17 41.001v199c0 42.667 -20.333 64 -61 64c-17.333 0 -32 -6.33301 -44 -19s-18 -27.667 -18 -45v-199c0 -18 5 -31.333 15 -40l14 -7c8.66699 -4 13 -11.333 13 -22
c0 -14.667 -10.667 -22 -32 -22h-140c-9.33301 0 -17.166 0.333008 -23.499 1s-11.166 1.66699 -14.499 3h1c-7.33301 3.33301 -11 9.33301 -11 18c0 9.33301 6.33301 16.666 19 21.999l18 7c14 6 21 19.333 21 40v434c0 20 -8 33 -24 39l-20 10
c-6.66699 2.66699 -10 9.33398 -10 20.001c0 14 15.667 24 47 30c22.667 4 47 14.333 73 31c14 9.33301 24.333 14 31 14c3.33301 0 7.66602 -1 12.999 -3h-1c6 -2.66699 9.33301 -6 10 -10c0.666992 -1.33301 1 -13.666 1 -36.999v-242z" />
    <glyph glyph-name="equal" unicode="=" horiz-adv-x="534" 
d="M434 411c18.667 0 28 -8 28 -24s-9.33301 -24 -28 -24h-336c-18.667 0 -28 8 -28 24s9.33301 24 28 24h336zM434 222c18.667 0 28 -7.66699 28 -23c0 -16 -9.33301 -24 -28 -24h-336c-18.667 0 -28 8 -28 24c0 15.333 9.33301 23 28 23h336z" />
    <glyph glyph-name="greater" unicode="&#x3e;" horiz-adv-x="859" 
d="M372 430c2.66699 1.33301 4 1.33301 4 0h-4zM275 348c-10.667 34 -27.667 50.999 -51 50.999c-12 0 -23.167 -4.33301 -33.5 -13s-19.333 -21 -27 -37s-13.5 -35 -17.5 -57s-6 -46 -6 -72c0 -104.667 27.667 -157 83 -157c34.667 0 52 17.333 52 52
c0 16.667 -8.66699 29 -26 37h1c-9.33301 6.66699 -14 10.334 -14 11.001c0 15.333 6.83301 29 20.5 41s29.167 18 46.5 18c22 0 40.333 -8.83301 55 -26.5s22 -40.167 22 -67.5c0 -45.333 -17 -80.333 -51 -105c-30.667 -24 -70 -36 -118 -36
c-62.667 0 -111.667 21.667 -147 65c-32.667 41.333 -49 94.666 -49 159.999c0 32 3.83301 61.5 11.5 88.5s19.834 52.167 36.501 75.5c36.667 52.667 83.667 79 141 79c7.33301 0 15.333 -0.5 24 -1.5s17.667 -2.16699 27 -3.5l14 -2h5c2 -0.666992 5 -1 9 -1
c6.66699 0 12 0.666992 16 2l13 4c4.66699 2 8.66699 3.33301 12 4s5.66602 1 6.99902 1c16 0 24 -9.33301 24 -28h17c-3.33301 -1.33301 -7.33301 -4.33301 -12 -9s-7 -11 -7 -19v-5c-0.666992 -9.33301 -1.16699 -18.666 -1.5 -27.999s-0.5 -18 -0.5 -26v-25
c0 -25.333 -10 -38 -30 -38c-15.333 0 -26 8.66699 -32 26h1zM567 384.999c46.667 46.667 88.335 70.001 125.002 70.001c12.667 0 24.834 -2.5 36.501 -7.5s22 -11.833 31 -20.5s16 -19 21 -31s7.5 -24.667 7.5 -38c0 -40.667 -23 -73 -69 -97
c23.333 -28 43.666 -55.5 60.999 -82.5s31.666 -54.167 42.999 -81.5c8.66699 -22 21.667 -37.333 39 -46c14.667 -6.66699 22 -15.667 22 -27c0 -16 -10 -24 -30 -24h-169c-26.667 0 -40 8 -40 24c0 5.33301 2.5 10.666 7.5 15.999s10.833 10.666 17.5 15.999
c0.666992 0.666992 1.5 1.33398 2.5 2.00098s1.83301 1.33398 2.5 2.00098c8 6.66699 12 17 12 31c0 12 -2.66699 25.167 -8 39.5s-12.666 28.5 -21.999 42.5l-17.5 25l-17.5 25c-4.66699 9.33301 -7 15.666 -7 18.999c0 4.66699 3.66699 8 11 10l15 4c27.333 6 41 23 41 51
c0 15.333 -5.16699 27.833 -15.5 37.5s-22.166 14.5 -35.499 14.5c-42.667 0 -64 -31.667 -64 -95v-173c0 -9.33301 1.5 -17.333 4.5 -24s6.83301 -12 11.5 -16l14 -7c8.66699 -4.66699 13 -12 13 -22c0 -14.667 -10.667 -22 -32 -22h-140c-32.667 0 -49 7.33301 -49 22
c0 9.33301 6.66699 16.666 20 21.999l17 7c14.667 6 22 19.333 22 40v434c0 20 -8 33 -24 39l-20 10c-7.33301 3.33301 -11 10 -11 20c0 7.33301 4.16699 13.333 12.5 18s20.166 8.66699 35.499 12c23.333 4 47.666 14.333 72.999 31c14 9.33301 24.333 14 31 14
c3.33301 0 7.66602 -1 12.999 -3h-1c4.66699 -2.66699 7.66699 -6 9 -10c0.666992 -1.33301 1 -13.666 1 -36.999v-234z" />
    <glyph glyph-name="question" unicode="?" horiz-adv-x="372" 
d="M180 153c12 0 23.167 -2.33301 33.5 -7s19.333 -10.834 27 -18.501s13.834 -16.667 18.501 -27s7 -21.5 7 -33.5s-2.33301 -23.167 -7 -33.5s-10.834 -19.333 -18.501 -27s-16.667 -13.834 -27 -18.501s-21.5 -7 -33.5 -7s-23.333 2.33301 -34 7
s-19.834 10.834 -27.501 18.501s-13.834 16.667 -18.501 27s-7 21.5 -7 33.5s2.33301 23.167 7 33.5s10.834 19.333 18.501 27s16.834 13.834 27.501 18.501s22 7 34 7zM169 538c1.33301 -1.33301 1.99902 -2.66992 1.99902 -4.00293v-3
c-5.33301 -14 -13.166 -24.5 -23.499 -31.5s-24.166 -10.5 -41.499 -10.5c-21.333 0 -39.666 7.83301 -54.999 23.5s-23 34.5 -23 56.5c0 36.667 18.333 66.334 55 89.001c35.333 20.667 72.333 31 111 31c23.333 0 44.666 -3.5 63.999 -10.5s36 -16.5 50 -28.5
s25 -26.5 33 -43.5s12 -35.5 12 -55.5c0 -23.333 -7.5 -46.666 -22.5 -69.999s-36.833 -46.333 -65.5 -69c-15.333 -12.667 -27.333 -25.667 -36 -39s-13 -25.666 -13 -36.999c0 -12.667 3.33301 -29 10 -49c6 -16 9 -28 9 -36c0 -14.667 -5.16699 -27 -15.5 -37
s-22.5 -15 -36.5 -15c-20 0 -36.5 9.66699 -49.5 29s-19.5 44 -19.5 74c0 34.667 18 79.334 54 134.001c19.333 30.667 34.166 55.667 44.499 75s15.5 33.333 15.5 42c0 28.667 -12.333 43 -37 43c-22.667 0 -34 -11 -34 -33c0 -6.66699 2.33301 -12.334 7 -17.001z" />
    <glyph glyph-name="at" unicode="@" horiz-adv-x="848" 
d="M490 417c0 20 -7.33398 30 -22.001 30c-17.333 0 -36.666 -18 -57.999 -54c-22.667 -36.667 -34 -73 -34 -109c0 -22.667 7.66699 -34 23 -34c10 0 20.833 7.16699 32.5 21.5s23.167 34.166 34.5 59.499c8 17.333 14 33.333 18 48s6 27.334 6 38.001zM798.999 415
c0 -72.667 -26.6641 -135.67 -79.9971 -189.003c-52 -52 -114.667 -78 -188 -78c-10.667 0 -19.5 0.666992 -26.5 2s-13.167 4 -18.5 8s-10 9.33301 -14 16s-8.33301 15.667 -13 27c-5.33301 10 -11.666 15 -18.999 15v-20c-15.333 0 -25.833 -1.16699 -31.5 -3.5
s-11.834 -5.83301 -18.501 -10.5c-28 -20 -52.333 -30 -73 -30c-30 0 -52.667 10.333 -68 31c-16 20 -24 45 -24 75c0 40 9 78.833 27 116.5s41.667 69.167 71 94.5c16 12.667 33.167 23.167 51.5 31.5s35.166 12.5 50.499 12.5c5.33301 0 11.833 -1.33301 19.5 -4
s16.167 -6 25.5 -10c22.667 -10 36.334 -15 41.001 -15c8.66699 0 24.667 5 48 15c9.33301 4 18 7.33301 26 10s14.667 4 20 4c17.333 0 26 -6.66699 26 -20c0 -8 -2.66699 -22.667 -8 -44v1c-12 -44.667 -20.833 -82 -26.5 -112s-8.5 -53 -8.5 -69c0 -19.333 9 -29 27 -29
c36 0 66 23.667 90 71v-1c10 18.667 17.333 37.334 22 56.001s7 37 7 55c0 32 -6.33301 61 -19 87s-30.667 48 -54 66c-21.333 15.333 -46 27.333 -74 36s-58.333 13 -91 13c-104.667 0 -192.667 -34.667 -264 -104c-18 -18 -34.333 -37.667 -49 -59s-27.167 -44 -37.5 -68
s-18.166 -48.667 -23.499 -74s-8 -50.333 -8 -75c0 -67.333 23.667 -118.666 71 -153.999c42.667 -31.333 98 -47 166 -47c30 0 62 3.83301 96 11.5s68.667 18.5 104 32.5c7.33301 3.33301 14.166 6 20.499 8s11.166 3 14.499 3c14.667 0 22 -6.33301 22 -19
c0 -18.667 -19.333 -36.667 -58 -54c-28 -11.333 -58 -20.166 -90 -26.499s-66.667 -9.5 -104 -9.5c-92.667 0 -165 19.667 -217 59c-60 44.667 -90 110.667 -90 198c0 70 19.667 140.333 59 211c11.333 20 23.666 38.833 36.999 56.5s28.333 34.167 45 49.5
c82.667 78 186 117 310 117c40.667 0 79.167 -6 115.5 -18s68.166 -28.667 95.499 -50c28 -24 49.667 -52.667 65 -86s23 -70 23 -110z" />
    <glyph glyph-name="A" unicode="A" horiz-adv-x="609" 
d="M267 439l-89 -214l21 -7c20.667 -6 42 -9 64 -9c25.333 0 54 6 86 18zM372 170c-16 -8.66699 -32.666 -14.834 -49.999 -18.501s-35.666 -5.5 -54.999 -5.5c-35.333 0 -72.666 7.33301 -111.999 22c-2 -6 -5 -13.667 -9 -23s-7 -17 -9 -23v2
c-3.33301 -8.66699 -5 -15.667 -5 -21c0 -15.333 7.66699 -27 23 -35c3.33301 -1.33301 6.5 -3 9.5 -5s6.16699 -3.66699 9.5 -5h-1c14.667 -8 22 -18 22 -30c0 -8 -3.83301 -14.667 -11.5 -20s-17.167 -8 -28.5 -8h-138c-23.333 0 -35 9.33301 -35 28
c0 4 2.5 8.66699 7.5 14s11.5 11.333 19.5 18c11.333 8.66699 21.166 17.834 29.499 27.501s14.166 18.834 17.499 27.501v1l30 79c-20.667 10 -31 20.667 -31 32c0 19.333 9.66699 29 29 29c5.33301 0 13.666 -1.66699 24.999 -5l50.5 123l50.5 123
c1.33301 4.66699 3.16602 10.334 5.49902 17.001s3.5 11.667 3.5 15c0 16 -8.33301 28.333 -25 37l-20 10c-8 4.66699 -12 12 -12 22c0 11.333 11.333 20.333 34 27v-1c12 3.33301 24.667 8.33301 38 15s27.666 14.667 42.999 24c16 8.66699 27 13 33 13
c14.667 0 26.334 -12.333 35.001 -37l225 -542c6 -15.333 18.333 -28 37 -38c14 -8 21 -17.333 21 -28c0 -20.667 -17.667 -31 -53 -31h-201c-27.333 0 -41 10 -41 30c0 11.333 5 20 15 26c-0.666992 -0.666992 0 -0.5 2 0.5s3.66699 2.16699 5 3.5
c2 1.33301 3.83301 2.16602 5.5 2.49902s3.83398 1.16602 6.50098 2.49902h-1c18.667 9.33301 28 21 28 35c0 8 -1.66699 16 -5 24v-2z" />
    <glyph glyph-name="B" unicode="B" horiz-adv-x="570" 
d="M254 401h18c58.667 0 88 40 88 120c0 69.333 -18.667 104 -56 104c-18.667 0 -31.667 -7.5 -39 -22.5s-11 -41.167 -11 -78.5v-123zM254 71h26c72.667 0 109 44.667 109 134c0 84 -37.667 126 -113 126h-22v-260zM108 511c0 8.66699 -2 16.332 -6 22.999
s-8.66699 12.5 -14 17.5s-10.5 8.83301 -15.5 11.5s-8.5 4.33398 -10.5 5.00098v-1c-19.333 7.33301 -29 17.333 -29 30c0 13.333 6 22 18 26c3.33301 1.33301 8.83301 2.33301 16.5 3s17.5 1.33398 29.5 2.00098c42 2 88.667 13.333 140 34
c20 7.33301 38.333 13.166 55 17.499s31.667 6.5 45 6.5c47.333 0 87 -16 119 -48c31.333 -30.667 47 -69.334 47 -116.001c0 -25.333 -7.33301 -51.666 -22 -78.999s-32.667 -51.666 -54 -72.999c18 -8 32 -15.167 42 -21.5s17.333 -11.833 22 -16.5
c17.333 -16 30.5 -35.333 39.5 -58s13.5 -47.667 13.5 -75c0 -32 -7 -61 -21 -87s-33.667 -48 -59 -66c-47.333 -30.667 -106 -46 -176 -46h-190c-21.333 0 -36 1.66699 -44 5c-4.66699 2.66699 -8 6.16699 -10 10.5s-3 9.16602 -3 14.499c0 14.667 7.66699 25 23 31h-1
l19 8c17.333 6.66699 26 22.667 26 48v214c-11.333 0 -17.333 0.333008 -18 1c-28.667 4 -43 15.333 -43 34c0 22 20.333 33.667 61 35v110z" />
    <glyph glyph-name="C" unicode="C" horiz-adv-x="591" 
d="M512 586c-0.666992 -5.33301 -1.66699 -14.8291 -3 -28.4961s-3.33301 -31.834 -6 -54.501c-0.666992 -35.333 -13 -53 -37 -53c-9.33301 0 -16.333 1.66699 -21 5c-1.33301 2 -4 8 -8 18s-7.66699 20 -11 30c-4.66699 14.667 -9.16699 28.167 -13.5 40.5
s-7.16602 20.166 -8.49902 23.499c-15.333 31.333 -39 47 -71 47c-54.667 0 -95.334 -35.667 -122.001 -107c-9.33301 -24 -16 -49.5 -20 -76.5s-6 -55.833 -6 -86.5c0 -56 9.33301 -108.667 28 -158c24.667 -68.667 63.334 -103 116.001 -103
c9.33301 0 18.333 1.83301 27 5.5s16.167 8.66699 22.5 15s11.5 13.5 15.5 21.5s6 16.333 6 25c0 22.667 -12.667 41 -38 55l1 -1c-7.33301 6 -11 11.333 -11 16c0 11.333 3 21.833 9 31.5s14.667 19.167 26 28.5c22.667 16.667 46 25 70 25c34 0 62 -11 84 -33
s33 -50 33 -84c0 -60.667 -27.667 -109 -83 -145c-47.333 -32.667 -103.666 -49 -168.999 -49c-94.667 0 -168.667 33.333 -222 100c-49.333 61.333 -74 141.666 -74 240.999c0 101.333 23.333 183.333 70 246c52 70 125.667 105 221 105c10 0 21.667 -0.833008 35 -2.5
s28.666 -3.83398 45.999 -6.50098h-1c12 -2 23 -3 33 -3c1.33301 0 3 0.166992 5 0.5s4.66699 0.5 8 0.5c2 0 4.66699 0.166992 8 0.5s6.66602 0.5 9.99902 0.5c16 2 25.333 3 28 3c21.333 0 32 -11.333 32 -34c0 -2 -0.166992 -4.83301 -0.5 -8.5
s-0.833008 -7.16699 -1.5 -10.5z" />
    <glyph glyph-name="D" unicode="D" horiz-adv-x="662" 
d="M253 72h22.001c64 0 113.833 26.667 149.5 80s53.5 128 53.5 224c0 26.667 -2.5 52.667 -7.5 78s-12.833 49.666 -23.5 72.999c-28 62.667 -67 94 -117 94c-26 0 -46.667 -8.66699 -62 -26c-3.33301 -4.66699 -6.33301 -11.667 -9 -21s-4.33398 -20.666 -5.00098 -33.999
l-1 -17v-451zM82.001 69c16.667 7.33301 25.002 22.6689 25.002 46.002v392l-4 8l-5 10l-2 3c-13.333 20 -25.333 32 -36 36v-1c-19.333 7.33301 -29 17.666 -29 30.999c0 17.333 21.667 27.666 65 30.999c9.33301 0.666992 18.666 1.66699 27.999 3s18.666 3 27.999 5
c11.333 2.66699 23.666 5.83398 36.999 9.50098s28.333 8.5 45 14.5v-1c30 9.33301 56 16.666 78 21.999s40 8 54 8c84.667 0 152.334 -33.333 203.001 -100c46 -61.333 69 -136.666 69 -225.999c0 -54 -8 -103.333 -24 -148s-38 -83 -66 -115
c-30.667 -30 -68 -53.667 -112 -71s-93 -26 -147 -26h-193c-22 0 -36.333 1.66699 -43 5c-4.66699 2.66699 -8 6.16699 -10 10.5s-3 9.16602 -3 14.499c0 14.667 7.33301 25 22 31h-1z" />
    <glyph glyph-name="E" unicode="E" horiz-adv-x="558" 
d="M108 506c-6.66699 17.333 -13.501 30.001 -20.501 38.001s-15.5 14.667 -25.5 20v-1c-19.333 7.33301 -29 17.666 -29 30.999c0 12.667 6.33301 21 19 25h-1c5.33301 1.33301 11.666 2.33301 18.999 3s16.666 1.66699 27.999 3c13.333 1.33301 30 4.33301 50 9h-1
c1.33301 0 2.33301 0.166992 3 0.5s1.33398 0.5 2.00098 0.5c9.33301 2 18 4.16699 26 6.5s15.667 4.83301 23 7.5l76 24c13.333 4 25 7.16699 35 9.5s19.667 3.5 29 3.5c16 0 31.667 -3.16699 47 -9.5s30.666 -15.5 45.999 -27.5c14.667 18.667 28.334 28 41.001 28
c8 0 14.667 -2.83301 20 -8.5s8 -12.167 8 -19.5c0 -1.33301 -0.166992 -2.33301 -0.5 -3s-0.5 -1.66699 -0.5 -3c0 -0.666992 -0.166992 -1.5 -0.5 -2.5s-0.5 -2.16699 -0.5 -3.5l-7 -35l-5 -55c0 -9.33301 -0.333008 -18.166 -1 -26.499s-1 -17.166 -1 -26.499
c-1.33301 -26 -12.666 -39 -33.999 -39c-14 0 -24 9.33301 -30 28c-1.33301 1.33301 -3 9 -5 23c-0.666992 2 -2 6.66699 -4 14s-4 15.666 -6 24.999c0 1.33301 -1.16699 4.83301 -3.5 10.5l-5.5 13.5c-11.333 32.667 -35 49 -71 49c-14.667 0 -39.334 -7.66699 -74.001 -23
v-212l58 7c0.666992 26 10.334 39 29.001 39c15.333 0 24.333 -11.333 27 -34c0 -3.33301 0.166992 -5.5 0.5 -6.5l1.5 -4.5c1.33301 -1.33301 2 -3.5 2 -6.5s0.333008 -5.83301 1 -8.5c0.666992 -7.33301 2 -16.5 4 -27.5s5.33301 -23.167 10 -36.5
c4 -13.333 7.16699 -24.666 9.5 -33.999s3.5 -16.666 3.5 -21.999c0 -19.333 -9 -29 -27 -29c-11.333 0 -19.333 4.33301 -24 13c-2 1.33301 -5.33301 12.666 -10 33.999c-12 38.667 -29.667 58 -53 58c-2.66699 0 -6.66699 -0.333008 -12 -1s-12 -1.66699 -20 -3v-180
c0 -60 24 -90 72 -90s87.667 37 119 111c2 6 4.66699 12.5 8 19.5s6.33301 13.833 9 20.5c9.33301 21.333 21.666 32 36.999 32c23.333 0 35 -10 35 -30c0 -7.33301 -0.666992 -13.666 -2 -18.999l-14 -44c-1.33301 -4.66699 -2.33301 -8.83398 -3 -12.501
s-1.66699 -8.5 -3 -14.5c-1.33301 -3.33301 -2.16602 -6.5 -2.49902 -9.5s-1.16602 -6.5 -2.49902 -10.5c-3.33301 -15.333 -5.83301 -29.833 -7.5 -43.5s-2.5 -25.834 -2.5 -36.501c-4 -23.333 -17.333 -35 -40 -35c-14 0 -28 7 -42 21h-317c-21.333 0 -36 1.66699 -44 5
c-4.66699 2.66699 -8 6.16699 -10 10.5s-3 9.16602 -3 14.499c0 14.667 7.66699 25 23 31h-1l19 8c17.333 6.66699 26 22.667 26 48v201c-18 0 -31.333 1 -40 3c-18 4 -27 14.667 -27 32c0 20.667 16.667 31 50 31h17v122z" />
    <glyph glyph-name="F" unicode="F" horiz-adv-x="502" 
d="M255 596l0.00292969 -213.999l56 7c2.66699 28 12.334 42 29.001 42c15.333 0 24.666 -12 27.999 -36c0.666992 -5.33301 1.16699 -10.5 1.5 -15.5s1.16602 -9.5 2.49902 -13.5c1.33301 -11.333 6.33301 -32 15 -62c8.66699 -28.667 13 -46.667 13 -54
c0 -19.333 -9.33301 -29 -28 -29c-11.333 0 -19.333 4 -24 12l2 -2c-2.66699 8.66699 -6.33398 19.5 -11.001 32.5l-15 43.5c-5.33301 6 -11 10.667 -17 14s-13.667 5 -23 5c-1.33301 0 -4.5 -0.5 -9.5 -1.5s-11.5 -2.16699 -19.5 -3.5l2 -221
c0.666992 -7.33301 2.66699 -13.5 6 -18.5s7.66602 -8.83301 12.999 -11.5c2.66699 -1.33301 6.66699 -2.83301 12 -4.5s9.66602 -3.16699 12.999 -4.5c5.33301 -3.33301 10.333 -7.83301 15 -13.5s7 -11.5 7 -17.5c0 -11.333 -4.66699 -19.666 -14 -24.999
c-3.33301 -1.33301 -8.33301 -2.5 -15 -3.5s-16 -1.5 -28 -1.5h-168c-22 0 -36.333 1.66699 -43 5c-4.66699 2.66699 -8 6.16699 -10 10.5s-3 9.16602 -3 14.499c0 14.667 7.33301 25 22 31h-1l20 8c16.667 6.66699 25 22.667 25 48v201c-2 0 -5.83301 0.166992 -11.5 0.5
s-9.5 0.5 -11.5 0.5c-29.333 2.66699 -44 14 -44 34s22.333 30 67 30v128c0 16 -4.33301 29 -13 39c-2 1.33301 -5.66699 3 -11 5l-22 8c-19.333 7.33301 -29 17.666 -29 30.999c0 19.333 21.333 29.666 64 30.999c21.333 0.666992 45.5 4.5 72.5 11.5
s55.833 16.5 86.5 28.5c16 6 31.167 11 45.5 15s26.5 6 36.5 6c11.333 0 22.5 -1.33301 33.5 -4s21.5 -6.33398 31.5 -11.001c3.33301 -1.33301 7.33301 -3.66602 12 -6.99902l16 -11c16.667 16.667 31 25 43 25c7.33301 0 14 -2.33301 20 -7s9 -10.667 9 -18
c0 -2.66699 -0.666992 -7.33398 -2 -14.001c-4.66699 -22.667 -8 -42 -10 -58s-3.33301 -29 -4 -39c0 -8 -0.333008 -16.167 -1 -24.5s-1 -16.833 -1 -25.5c-1.33301 -23.333 -13 -35 -35 -35c-10 0 -17.333 5 -22 15c-2 3.33301 -4 8.5 -6 15.5s-4 15.167 -6 24.5
c-8 34.667 -19.5 61.334 -34.5 80.001s-33.167 28 -54.5 28c-6.66699 0 -14.167 -1.16699 -22.5 -3.5s-18.166 -6.16602 -29.499 -11.499z" />
    <glyph glyph-name="G" unicode="G" horiz-adv-x="608" 
d="M418 201c0 3.33301 -0.49707 7.66602 -1.49707 12.999s-2.16699 12 -3.5 20c-6.66699 10.667 -25 25 -55 43c-10.667 5.33301 -18.5 11 -23.5 17s-7.5 11.667 -7.5 17c0 19.333 13.667 29 41 29h137c20 0 33.5 -4.5 40.5 -13.5s10.5 -26.5 10.5 -52.5v-62
c0 -34.667 4.33301 -58 13 -70c1.33301 -0.666992 2.66602 -2.33398 3.99902 -5.00098l6 -9c6.66699 -10.667 10 -20 10 -28c0 -10 -3.66699 -19.333 -11 -28c-11.333 -12.667 -26.666 -23.834 -45.999 -33.501s-42 -18.5 -68 -26.5c-22 -6 -44.167 -10.5 -66.5 -13.5
s-43.833 -4.5 -64.5 -4.5c-48.667 0 -92 8.16699 -130 24.5s-71 39.833 -99 70.5c-52 61.333 -78 141 -78 239c0 96 25 177.667 75 245c56 75.333 129 113 219 113c12 0 29 -2 51 -6h-1c5.33301 -1.33301 11.666 -2.33301 18.999 -3s13.666 -1.66699 18.999 -3
c8 -1.33301 14.833 -2.33301 20.5 -3s9.16699 -1 10.5 -1c10 0 20.667 1 32 3h-1c4 0.666992 9.5 1.16699 16.5 1.5s9.5 0.833008 7.5 1.5c21.333 -1.33301 32 -12 32 -32c0 -2 -0.333008 -4.33301 -1 -7c-0.666992 -2 -1.16699 -4.5 -1.5 -7.5
s-0.833008 -6.16699 -1.5 -9.5c0 -1.33301 -0.166992 -2.66602 -0.5 -3.99902s-0.5 -3 -0.5 -5c-3.33301 -17.333 -6 -34.5 -8 -51.5s-3.66699 -33.833 -5 -50.5c-2.66699 -42.667 -15 -64 -37 -64c-11.333 0 -19.833 3.66699 -25.5 11s-10.5 19.666 -14.5 36.999
c-3.33301 10.667 -6.5 21.834 -9.5 33.501s-6.16699 21.834 -9.5 30.501c-14 36 -40.667 54 -80 54c-51.333 0 -91 -34 -119 -102c-18.667 -49.333 -28 -102.666 -28 -159.999c0 -40 3.66699 -76.167 11 -108.5s17.833 -60 31.5 -83s30.167 -40.667 49.5 -53
s41 -18.5 65 -18.5c10.667 0 22.167 1.66699 34.5 5s26.166 8 41.499 14v96z" />
    <glyph glyph-name="H" unicode="H" horiz-adv-x="671" 
d="M585 100c0.666992 -14.667 7.33301 -24.6582 20 -29.9912c2.66699 -1.33301 6.5 -2.83301 11.5 -4.5s9.16699 -3.16699 12.5 -4.5c5.33301 -3.33301 10.333 -7.83301 15 -13.5s7 -11.5 7 -17.5c0 -12 -4.66699 -20.333 -14 -25c-3.33301 -1.33301 -8.33301 -2.5 -15 -3.5
s-16 -1.5 -28 -1.5h-168c-22 0 -36.333 1.66699 -43 5c-4.66699 2.66699 -8 6.16699 -10 10.5s-3 9.16602 -3 14.499c0 14.667 7.33301 25 22 31h-1l20 8c17.333 7.33301 26 23.333 26 48v224c-11.333 -3.33301 -25.833 -7.83301 -43.5 -13.5s-34.167 -10.167 -49.5 -13.5
c-6.66699 -1.33301 -17.667 -3 -33 -5l-56 -7l1 -202c0.666992 -6.66699 2.33398 -12.334 5.00098 -17.001s7.33398 -8.66699 14.001 -12l12.5 -5l12.5 -5h-1c14.667 -6 22 -16.333 22 -31c0 -9.33301 -3.66699 -17.666 -11 -24.999c-8 -3.33301 -22.667 -5 -44 -5h-169
c-22 0 -36.333 1.66699 -43 5c-9.33301 5.33301 -14 13.666 -14 24.999s8 21.666 24 30.999h-2l26 10c12.667 7.33301 19 22.666 19 45.999v175c-17.333 0.666992 -30.166 3.66699 -38.499 9s-12.5 12.666 -12.5 21.999c0 19.333 17 29.666 51 30.999l-1 184
c0 23.333 -6.33301 38.666 -19 45.999l-26 10h2c-16 8.66699 -24 19 -24 31c0 11.333 4.66699 19.666 14 24.999c6.66699 3.33301 21 5 43 5h169c21.333 0 36 -1.66699 44 -5c3.33301 -3.33301 6 -7.16602 8 -11.499s3 -8.83301 3 -13.5c0 -14.667 -7.33301 -25 -22 -31h1
l-12.5 -5l-12.5 -5c-6.66699 -3.33301 -11.334 -7.33301 -14.001 -12s-4.33398 -10.334 -5.00098 -17.001v-193c29.333 2 59 6.66699 89 14s61 17 93 29v133c0 24.667 -9 40.667 -27 48l-20 8h1c-14.667 6 -22 16.333 -22 31c0 5.33301 1 10.166 3 14.499
s5.33301 7.83301 10 10.5c6.66699 3.33301 21 5 43 5h168c12 0 21.333 -0.5 28 -1.5s11.667 -2.16699 15 -3.5c9.33301 -4.66699 14 -13 14 -25c0 -6 -2.33301 -11.833 -7 -17.5s-9.66699 -10.167 -15 -13.5c-3.33301 -1.33301 -7.5 -2.83301 -12.5 -4.5
s-8.83301 -3.16699 -11.5 -4.5c-12.667 -5.33301 -19.334 -15.333 -20.001 -30z" />
    <glyph glyph-name="I" unicode="I" horiz-adv-x="363" 
d="M112 538c0 23.333 -6.66699 38.6709 -20 46.0039l-25 10h2c-16 8.66699 -24 19 -24 31c0 5.33301 1 10.166 3 14.499s5.66699 7.83301 11 10.5c6.66699 3.33301 21 5 43 5h168c22 0 36.333 -1.66699 43 -5c8 -5.33301 12 -13.666 12 -24.999
c0 -14.667 -7.66699 -25 -23 -31h2l-12.5 -5l-12.5 -5c-7.33301 -3.33301 -12.333 -7.33301 -15 -12s-4.33398 -10.334 -5.00098 -17.001l1 -455c0.666992 -6.66699 2.33398 -12.334 5.00098 -17.001s7.66699 -8.66699 15 -12l12.5 -5l12.5 -5h-2
c15.333 -6 23 -16.333 23 -31c0 -12 -4 -20.333 -12 -25c-6.66699 -3.33301 -21 -5 -43 -5h-169c-22 0 -36.333 1.66699 -43 5c-5.33301 2.66699 -9 6.16699 -11 10.5s-3 9.16602 -3 14.499c0 12 8 22.333 24 31h-2l25 10c13.333 7.33301 20 22.666 20 45.999v421z" />
    <glyph glyph-name="J" unicode="J" horiz-adv-x="495" 
d="M401 506l-0.00195312 -251.003c0 -30.667 3.33301 -59 10 -85v1l10 -41c3.33301 -13.333 5 -21.666 5 -24.999c0 -38.667 -25.333 -69 -76 -91c-20.667 -8.66699 -41.667 -15.167 -63 -19.5s-43.666 -6.5 -66.999 -6.5c-27.333 0 -52.5 2.66699 -75.5 8
s-45.167 13.333 -66.5 24h1c-50.667 24.667 -76 60 -76 106c0 26.667 10.333 50.334 31 71.001c22.667 19.333 47.334 29 74.001 29c34 0 60.333 -12.333 79 -37c8 -11.333 12 -21 12 -29c0 -2 -1.66699 -4.66699 -5 -8c-1.33301 -1.33301 -3.16602 -3 -5.49902 -5
s-4.16602 -3.66699 -5.49902 -5c-9.33301 -7.33301 -14 -17 -14 -29c0 -26.667 13.333 -40 40 -40c20 0 34 11.333 42 34c2 6.66699 3 21 3 43v356c0 10.667 -0.333008 17.334 -1 20.001c-0.666992 11.333 -8.33398 20.666 -23.001 27.999l-39 18
c-9.33301 4 -14 11.667 -14 23c0 16 10.667 25 32 27l72 8c17.333 2 34.5 5.33301 51.5 10s33.5 11 49.5 19c26 11.333 43.667 17 53 17c7.33301 0 13.666 -2.66699 18.999 -8s8 -11.666 8 -18.999c0 -8.66699 -3.33301 -15.667 -10 -21l-31 -27l-21 -46z" />
    <glyph glyph-name="K" unicode="K" horiz-adv-x="635" 
d="M256 101c0.666992 -13.333 7.66406 -23.666 20.9971 -30.999l11.5 -4.5l11.5 -4.5h-1c15.333 -6 23 -16.333 23 -31c0 -12 -4.33301 -20.333 -13 -25c-6.66699 -3.33301 -21 -5 -43 -5h-169c-22 0 -36.333 1.66699 -43 5c-4.66699 2.66699 -8 6.16699 -10 10.5
s-3 9.16602 -3 14.499c0 12 7.66699 22.333 23 31h-2l26 10c13.333 7.33301 20 22.666 20 45.999v229c-22.667 2 -35.667 3.66699 -39 5c-12.667 4 -19 14.333 -19 31c0 8.66699 3.5 16.167 10.5 22.5s15.167 9.5 24.5 9.5c2.66699 0 5.33398 -0.333008 8.00098 -1
s7.66699 -2.66699 15 -6v119c-2.66699 10.667 -10.667 20 -24 28l-39 18c-8.66699 4 -13 11.667 -13 23c0 16 10.333 25 31 27l73 8c17.333 2 34.5 5.33301 51.5 10s33.167 11 48.5 19c26 11.333 43.667 17 53 17c7.33301 0 13.666 -2.66699 18.999 -8s8 -11.666 8 -18.999
c0 -9.33301 -3 -16.333 -9 -21l-30 -27l-22 -46v-142c39.333 0.666992 68.333 26.334 87 77.001v-1c6.66699 17.333 11.834 35 15.501 53s5.83398 36.667 6.50098 56c0 4.66699 0.166992 9.5 0.5 14.5s0.5 9.83301 0.5 14.5c0.666992 26 14.667 39 42 39h112
c30.667 0 46 -10 46 -30c0 -3.33301 -0.666992 -7 -2 -11c-1.33301 -2.66699 -4.83301 -6 -10.5 -10l-20.5 -14l-13 -8.5c-4.66699 -3 -8.66699 -5.83301 -12 -8.5c-10.667 -12 -22.667 -29 -36 -51l-10 -16.5l-10 -17.5c-10 -16 -21.5 -30.667 -34.5 -44
s-27.5 -26 -43.5 -38c64.667 -38 116.834 -83.167 156.501 -135.5s67.167 -111.5 82.5 -177.5c7.33301 -34.667 11 -58 11 -70c0 -22.667 -9 -34 -27 -34h-187c-11.333 0 -21.166 3.16699 -29.499 9.5s-12.5 14.5 -12.5 24.5c0 9.33301 3.66699 16.666 11 21.999l22 14
c17.333 11.333 26 31 26 59c0 60 -21.333 114.667 -64 164c-28.667 32.667 -64.334 51 -107.001 55z" />
    <glyph glyph-name="L" unicode="L" horiz-adv-x="548" 
d="M99 0c-22.667 0 -37.334 1.66602 -44.001 4.99902c-4.66699 2.66699 -8 6.16699 -10 10.5s-3 9.16602 -3 14.499c0 12 8 22.333 24 31h-2l25 10c13.333 7.33301 20 22.666 20 45.999v409c-2.66699 11.333 -10.667 20.666 -24 27.999l-39 18c-8.66699 4 -13 11.667 -13 23
c0 16 10.667 25 32 27l72 8c17.333 2 34.5 5.33301 51.5 10s33.5 11 49.5 19c24.667 11.333 42 17 52 17c7.33301 0 13.666 -2.66699 18.999 -8s8 -11.666 8 -18.999c0 -8.66699 -2.66699 -15.667 -8 -21l-31 -27l-22 -46v-380c0 -42.667 6.33301 -73.167 19 -91.5
s34 -27.5 64 -27.5c14 0 26.667 2.66699 38 8c29.333 12.667 56.333 47.334 81 104.001c2 5.33301 4.66699 11.833 8 19.5s6.33301 14.167 9 19.5c10.667 21.333 23.334 32 38.001 32c10 0 18.333 -3.16699 25 -9.5s10 -13.833 10 -22.5
c0 -5.33301 -0.666992 -11.333 -2 -18l-12 -38c-5.33301 -15.333 -9.33301 -31.666 -12 -48.999s-5 -35.666 -7 -54.999c-3.33301 -43.333 -18.666 -65 -45.999 -65c-11.333 0 -23 6 -35 18h-335z" />
    <glyph glyph-name="M" unicode="M" horiz-adv-x="761" 
d="M510 533c-20 -28 -37.335 -57.002 -52.002 -87.002s-27.667 -61.667 -39 -95c-9.33301 -30.667 -17.166 -60 -23.499 -88s-10.833 -54.667 -13.5 -80c-1.33301 -17.333 -12 -26 -32 -26c-12 0 -19.833 2.16699 -23.5 6.5s-6.16699 12.5 -7.5 24.5
c-4 48 -14 99.667 -30 155c-9.33301 34.667 -22.166 68.5 -38.499 101.5s-35.166 65.5 -56.499 97.5l1 -441c0 -12.667 6.33301 -22.667 19 -30l12.5 -5l12.5 -5h-1c15.333 -6 23 -16.333 23 -31c0 -4.66699 -1.16699 -9.16699 -3.5 -13.5
s-5.16602 -8.16602 -8.49902 -11.499c-8 -3.33301 -22.667 -5 -44 -5h-106c-22 0 -36.333 1.66699 -43 5c-5.33301 2.66699 -9 6.16699 -11 10.5s-3 9.16602 -3 14.499c0 11.333 8 21.666 24 30.999h-2l26 10c12.667 7.33301 19 22.666 19 45.999v395
c-3.33301 10.667 -8.33301 20 -15 28s-15.334 13.667 -26.001 17c-11.333 3.33301 -20.5 7.83301 -27.5 13.5s-10.5 12.167 -10.5 19.5c0 12 7.33301 21 22 27l-1 -1l18 5c7.33301 2.66699 15.666 6 24.999 10l31 13c3.33301 1.33301 7.5 3.33301 12.5 6
s11.167 5.33398 18.5 8.00098l30 19c4.66699 2.66699 9 4.83398 13 6.50098s8 2.5 12 2.5c6.66699 0 13.334 -1.33301 20.001 -4s12.667 -6 18 -10c15.333 -13.333 33 -36.333 53 -69s40 -72 60 -118l18 -42c20.667 41.333 40.834 76.833 60.501 106.5s40 53.834 61 72.501
s42.667 32.334 65 41.001s46.5 13 72.5 13c61.333 0 92 -12.667 92 -38c0 -10 -4.66699 -17.667 -14 -23h1l-16 -9c-9.33301 -5.33301 -17.5 -12.5 -24.5 -21.5s-12.167 -19.167 -15.5 -30.5c-1.33301 -7.33301 -2.5 -16 -3.5 -26s-1.5 -22.333 -1.5 -37l1 -391
c0.666992 -14 8 -24 22 -30l11 -4.5l11 -4.5h-1c15.333 -6 23 -16.333 23 -31c0 -12 -4.66699 -20.333 -14 -25c-3.33301 -1.33301 -8.33301 -2.5 -15 -3.5s-16 -1.5 -28 -1.5h-168c-22.667 0 -37.334 1.66699 -44.001 5c-8 4 -12 12.333 -12 25
c0 6 2.16699 11.833 6.5 17.5s9.16602 10.167 14.499 13.5l28 11c12 6 18 21 18 45v416z" />
    <glyph glyph-name="N" unicode="N" horiz-adv-x="653" 
d="M195 100c0.666992 -7.33301 2.83203 -13.499 6.49902 -18.499s8.16699 -8.83301 13.5 -11.5c3.33301 -1.33301 7.5 -2.83301 12.5 -4.5s9.16699 -3.16699 12.5 -4.5h-3c16 -8.66699 24 -19 24 -31c0 -10 -4.66699 -18.667 -14 -26l1 1c-6.66699 -3.33301 -21 -5 -43 -5
h-104c-22.667 0 -37.334 1.66699 -44.001 5c-4.66699 2.66699 -8 6.16699 -10 10.5s-3 9.16602 -3 14.499c0 13.333 8 23.666 24 30.999h-1l23 9c14 6 21 21.667 21 47v393c-3.33301 27.333 -17 44.666 -41 51.999v-1l-20 6c-6 1.33301 -10.5 4.33301 -13.5 9
s-4.5 10 -4.5 16c0 11.333 6.66699 20 20 26l-2 -1l11 3.5c5.33301 1.66699 11.666 4.16699 18.999 7.5c12.667 5.33301 27 11.833 43 19.5s29.667 14.834 41 21.501l21 11.5c6.66699 3.66699 10.667 5.5 12 5.5c30.667 0 72.334 -36.333 125.001 -109
c19.333 -25.333 37.333 -51.5 54 -78.5s31 -52.833 43 -77.5c8.66699 -18 17.334 -37.333 26.001 -58s16.334 -41.667 23.001 -63l19 3v222c-0.666992 12 -8.66699 21.667 -24 29l-38 18c-9.33301 4 -14 11.667 -14 23c0 6 3 11.333 9 16s14 8.33398 24 11.001l39 9
c6 1.33301 13.833 4.16602 23.5 8.49902s21.834 10.5 36.501 18.5c24 12 41.667 18 53 18c7.33301 0 13.333 -2.66699 18 -8s7 -11.666 7 -18.999c0 -8.66699 -2.66699 -15.667 -8 -21l-31 -27l-21 -46v-388v-25c0 -8 0.333008 -14.667 1 -20l2 -37
c0.666992 -2.66699 1 -7.33398 1 -14.001c0 -2.66699 0.166992 -5.16699 0.5 -7.5s0.5 -5.16602 0.5 -8.49902l2 -30l1 -1c0 -16 -9.66699 -24 -29 -24h-103c-18.667 -0 -29.334 12.333 -32.001 37c-1.33301 4 -2.33301 12.667 -3 26
c-2.66699 19.333 -11.667 49.666 -27 90.999c-13.333 39.333 -28.5 77.333 -45.5 114s-36.167 73.334 -57.5 110.001l-32 51c-12 18.667 -27.333 40.667 -46 66z" />
    <glyph glyph-name="O" unicode="O" horiz-adv-x="610" 
d="M424 346c0 84 -10.667 149.332 -32 195.999s-51 70 -89 70c-36.667 0 -65.5 -24.167 -86.5 -72.5s-31.5 -115.166 -31.5 -200.499c0 -180.667 39.667 -271 119 -271c38 0 67.5 24.167 88.5 72.5s31.5 116.833 31.5 205.5zM585 340.999
c0 -94.667 -22.666 -174.334 -67.999 -239.001c-50 -72 -120 -108 -210 -108c-92.667 0 -164 36 -214 108c-44.667 62.667 -67 143.334 -67 242.001c0 110 29.333 195.333 88 256c54 57.333 117.667 86 191 86c42 0 81.167 -10.167 117.5 -30.5s67.166 -46.5 92.499 -78.5
c22 -32 39.167 -68.167 51.5 -108.5s18.5 -82.833 18.5 -127.5z" />
    <glyph glyph-name="P" unicode="P" horiz-adv-x="540" 
d="M254 340c82 3.33301 123.001 54.332 123.001 152.999c0 18.667 -1.83301 36 -5.5 52s-8.83398 29.833 -15.501 41.5s-14.667 20.834 -24 27.501s-19.333 10 -30 10c-32 0 -48 -23.333 -48 -70v-214zM256.001 99.999c0.666992 -14.667 7.33203 -24.6641 19.999 -29.9971
c3.33301 -1.33301 7.33301 -2.83301 12 -4.5s8.66699 -3.16699 12 -4.5h-2c16 -8.66699 24 -19 24 -31s-4.33301 -20.333 -13 -25c-3.33301 -1.33301 -8.5 -2.5 -15.5 -3.5s-16.5 -1.5 -28.5 -1.5h-167c-21.333 0 -36 1.66699 -44 5c-4.66699 2.66699 -8 6.16699 -10 10.5
s-3 9.16602 -3 14.499c0 14.667 7.66699 25 23 31h-1l19 8c17.333 6.66699 26 22.667 26 48v156c-39.333 1.33301 -59 13 -59 35c0 21.333 19.667 32 59 32v171c0 16 -4.33301 29 -13 39c-2.66699 1.33301 -6.5 3 -11.5 5s-12.167 4.66699 -21.5 8
c-19.333 7.33301 -29 17.666 -29 30.999c0 20 21.333 30.333 64 31c26.667 1.33301 61.334 7.66602 104.001 18.999c4.66699 1.33301 11.5 3.83301 20.5 7.5l33.5 13.5c17.333 6.66699 33 11.834 47 15.501s26.667 5.5 38 5.5c53.333 0 100 -19.333 140 -58
c38 -38 57 -85 57 -141c0 -33.333 -6.5 -63.333 -19.5 -90s-31.833 -50 -56.5 -70c-48 -36.667 -106.333 -55 -175 -55c-4.66699 0 -9 0.166992 -13 0.5s-10 1.16602 -18 2.49902z" />
    <glyph glyph-name="Q" unicode="Q" horiz-adv-x="612" 
d="M277 90c4 12.667 6 27.001 6 43.001c0 6.66699 -0.5 14 -1.5 22s-2.16699 16 -3.5 24l-5 26c-0.666992 1.33301 -1 4.33301 -1 9c0 10 3.33301 18.167 10 24.5s15 9.5 25 9.5c15.333 0 27.5 -6.83301 36.5 -20.5s13.5 -30.5 13.5 -50.5c0 -21.333 -7.33301 -59 -22 -113
c35.333 29.333 57.333 55.666 66 78.999h-1c18 54.667 27 119.667 27 195c0 88 -10.667 155.5 -32 202.5s-51.333 70.5 -90 70.5c-36.667 0 -65.5 -23.667 -86.5 -71s-31.5 -113 -31.5 -197c0 -48 4 -94 12 -138c6.66699 -32 15.5 -59 26.5 -81s23.833 -35.667 38.5 -41z
M283 -5.99902l-11 -10l-10 -10.5l-10 -10.5v1l-21 -21c-3.33301 -3.33301 -6.66602 -6.5 -9.99902 -9.5s-5.33301 -4.83301 -6 -5.5l9 -15c40 12 77.167 21.167 111.5 27.5s65.833 9.5 94.5 9.5c16 0 31.667 -2.83301 47 -8.5s29.666 -13.167 42.999 -22.5
c24.667 -20.667 37 -47.667 37 -81c0 -13.333 -2.5 -25.666 -7.5 -36.999s-11.667 -21.166 -20 -29.499s-18.333 -15 -30 -20s-24.167 -7.5 -37.5 -7.5c-27.333 0 -49.666 9.66699 -66.999 29c-13.333 12.667 -20 23.667 -20 33c0 1.33301 1 3 3 5
c1.33301 1.33301 2.83301 2.66602 4.5 3.99902s3.16699 2.66602 4.5 3.99902c6.66699 3.33301 10 10 10 20c0 24 -16.667 36 -50 36h-10c-3.33301 0 -6 -0.333008 -8 -1c-15.333 -0.666992 -25 -1.66699 -29 -3s-11.833 -3.33301 -23.5 -6s-25.5 -5.66699 -41.5 -9l-84 -21
c-25.333 -6 -44.333 -9 -57 -9c-24.667 0 -37 11.333 -37 34c0 11.333 12 26 36 44l-1 -1c5.33301 3.33301 10.666 7 15.999 11s10.666 7.66699 15.999 11c4.66699 3.33301 9.66699 6.66602 15 9.99902l16 10l34 26.5c11.333 9 22.333 19.5 33 31.5
c-21.333 11.333 -39.166 21.5 -53.499 30.5s-25.5 17.167 -33.5 24.5c-72.667 62 -109 156.667 -109 284c0 94 23 173 69 237c50 71.333 120.333 107 211 107c41.333 0 81.5 -10.333 120.5 -31s71.167 -49 96.5 -85c42 -57.333 63 -133.666 63 -228.999
c0 -96.667 -22.667 -176.667 -68 -240c-50 -71.333 -121 -107 -213 -107h-22z" />
    <glyph glyph-name="R" unicode="R" horiz-adv-x="629" 
d="M253 339c25.333 2 44.667 5.99902 58 11.999c42.667 24 64 72 64 144c0 38 -6.83301 68.833 -20.5 92.5s-31.5 35.5 -53.5 35.5c-14 0 -25.5 -6.16699 -34.5 -18.5s-13.5 -28.166 -13.5 -47.499v-218zM53.001 659.999c6.66699 3.33301 21.001 5.00098 43.001 5.00098h72
c24 0 45.5 1 64.5 3s35.667 4.33301 50 7s26.5 5.16699 36.5 7.5s18 3.5 24 3.5c51.333 0 95.333 -19.333 132 -58c37.333 -38.667 56 -83.667 56 -135c0 -72 -40.667 -132.333 -122 -181c24 -13.333 45 -26.333 63 -39s33.667 -25.334 47 -38.001s25 -25 35 -37
s18.667 -23.667 26 -35c24.667 -40 37 -79 37 -117c0 -20 -6.66699 -33.667 -20 -41h1c-8 -3.33301 -20.333 -5 -37 -5h-142c-29.333 0 -44 10.667 -44 32c0 8.66699 7 19 21 31c20.667 14.667 31 31 31 49c0 22.667 -4.5 43.834 -13.5 63.501s-21.333 36.667 -37 51
s-34 25.5 -55 33.5s-43.167 11.667 -66.5 11v-170c1.33301 -16.667 9 -27.334 23 -32.001l10.5 -4l10.5 -4h-2c16 -9.33301 24 -19.666 24 -30.999c0 -12 -4.66699 -20.333 -14 -25c-3.33301 -1.33301 -8.33301 -2.5 -15 -3.5s-16 -1.5 -28 -1.5h-168
c-22 0 -36.333 1.66699 -43 5c-4.66699 2.66699 -8 6.16699 -10 10.5s-3 9.16602 -3 14.499c0 14.667 7.33301 25 22 31h-1l20 8c17.333 7.33301 26 23.333 26 48v153c-39.333 2.66699 -59 14.667 -59 36c0 9.33301 3.5 17.333 10.5 24s16.167 10.334 27.5 11.001
c1.33301 -0.666992 4.16602 -1 8.49902 -1h12.5v208c0 24.667 -8.66699 40.667 -26 48l-20 8h1c-14.667 6 -22 16.333 -22 31c0 5.33301 1 10.166 3 14.499s5.33301 7.83301 10 10.5z" />
    <glyph glyph-name="S" unicode="S" horiz-adv-x="562" 
d="M321 275c8.66699 -14 13.002 -26.334 13.002 -37.001c0 -18.667 -6.33301 -34.667 -19 -48s-28.334 -20 -47.001 -20c-25.333 0 -38 7.66699 -38 23c0 1.33301 0.333008 2.33301 1 3c1.33301 1.33301 2.5 2.33301 3.5 3s2.16699 1.66699 3.5 3
c6.66699 4.66699 10 11.334 10 20.001c0 21.333 -13 32 -39 32c-18.667 0 -35 -7.5 -49 -22.5s-21 -32.5 -21 -52.5c0 -14 3.33301 -27 10 -39s15.834 -22.5 27.501 -31.5s25.334 -16.167 41.001 -21.5s32.5 -8 50.5 -8c20 0 38.833 3.33301 56.5 10s33.167 15.667 46.5 27
s23.833 24.666 31.5 39.999s11.5 31.666 11.5 48.999c0 27.333 -10.5 50.666 -31.5 69.999s-45.833 36.833 -74.5 52.5s-57.334 30 -86.001 43s-51 26.833 -67 41.5c-36 32 -54 71.667 -54 119c0 43.333 17 80 51 110c34.667 30 75 45 121 45
c16.667 0 42.334 -3.66699 77.001 -11c4 -0.666992 8.16699 -1.5 12.5 -2.5s8.83301 -1.83301 13.5 -2.5c11.333 -2.66699 24 -4 38 -4h6c2 0 3.66699 0.333008 5 1l21 2c16 0 24.667 -5.66699 26 -17c0.666992 2.66699 0.333984 0.5 -0.999023 -6.5
s-2.33301 -12.833 -3 -17.5c-1.33301 -5.33301 -2.33301 -12.166 -3 -20.499s-1.66699 -17.166 -3 -26.499c-0.666992 -8 -1.66699 -15.333 -3 -22c-0.666992 -4 -1.16699 -8 -1.5 -12s-0.5 -6.66699 -0.5 -8c-3.33301 -23.333 -6.33301 -37 -9 -41
c-6.66699 -8.66699 -15.334 -13 -26.001 -13c-17.333 0 -29 18.333 -35 55c-5.33301 30 -15.333 53 -30 69s-33.334 24 -56.001 24s-41.5 -7.16699 -56.5 -21.5s-22.5 -31.166 -22.5 -50.499c0 -24.667 12 -46 36 -64l40.5 -23.5c17 -9.66699 37.5 -20.5 61.5 -32.5
c32 -16 58.167 -30.667 78.5 -44s36.166 -25.666 47.499 -36.999c35.333 -37.333 53 -83 53 -137c0 -68.667 -27 -124.334 -81 -167.001c-25.333 -21.333 -53.333 -37 -84 -47s-63.667 -15 -99 -15c-30.667 0 -60.834 4.33301 -90.501 13s-55.5 20 -77.5 34
c-24 16.667 -42.667 36.667 -56 60s-20 49 -20 77c0 45.333 16.667 82.333 50 111c18.667 16.667 39.667 28.667 63 36s46.333 10.5 69 9.5s43.667 -6.5 63 -16.5s34.333 -24.333 45 -43z" />
    <glyph glyph-name="T" unicode="T" horiz-adv-x="539" 
d="M342 100c0.666992 -6.66699 2.33496 -12.3311 5.00195 -16.998s7.66699 -8.66699 15 -12l12.5 -5l12.5 -5h-2c16 -7.33301 24 -17.666 24 -30.999c0 -10 -4.66699 -18.667 -14 -26l1 1c-6.66699 -3.33301 -21 -5 -43 -5h-169c-22 0 -36.333 1.66699 -43 5
c-5.33301 2.66699 -9 6.16699 -11 10.5s-3 9.16602 -3 14.499c0 13.333 8 23.666 24 30.999h-1l23 9c14 6 21 21.667 21 47v425c-2.66699 -1.33301 -7.5 -3.33301 -14.5 -6l-15.5 -6c-17.333 -6 -33.5 -10.667 -48.5 -14s-28.833 -5 -41.5 -5
c-28 0 -50.167 7.33301 -66.5 22s-24.5 33.667 -24.5 57c0 25.333 9.33301 47.666 28 66.999c19.333 19.333 41.666 29 66.999 29c9.33301 0 17.333 -2 24 -6s10 -8.66699 10 -14l-9 -10c-4 -6 -6 -13.667 -6 -23c0 -18 5.66699 -30 17 -36s25.5 -8.16699 42.5 -6.5
s35.667 5.83398 56 12.501s39.166 14 56.499 22s32.166 15.167 44.499 21.5l20.5 10.5c46.667 16.667 84 25 112 25c30 0 53.833 -8 71.5 -24s26.5 -36.667 26.5 -62c0 -22.667 -9.33301 -43.667 -28 -63c-17.333 -18.667 -37.666 -28 -60.999 -28c-26.667 0 -40 5 -40 15v5
c3.33301 8 6 15.667 8 23s3 12.666 3 15.999c0 28.667 -15 43 -45 43c-8 0 -21 -4.66699 -39 -14v-493z" />
    <glyph glyph-name="U" unicode="U" horiz-adv-x="606" 
d="M522 165c0 -114 -70.3311 -171.003 -210.998 -171.003c-144.667 0 -217 62 -217 186v345c-0.666992 12.667 -8.33398 22.334 -23.001 29.001l-39 18c-8.66699 4 -13 11.667 -13 23c0 16 10.667 25 32 27l71 8c17.333 2 34.5 5.33301 51.5 10s33.5 11 49.5 19
c24.667 11.333 42 17 52 17c7.33301 0 13.666 -2.66699 18.999 -8s8 -11.666 8 -18.999c0 -8.66699 -2.66699 -15.667 -8 -21l-31 -27l-22 -46v-372c0 -69.333 33 -104 99 -104c67.333 0 101 34.667 101 104v342c-2 12.667 -10.333 22.334 -25 29.001l-41 18
c-10 4 -15 11.667 -15 23c0 12.667 12 21.667 36 27l39 8c9.33301 2.66699 19.666 6 30.999 10s23.333 9.33301 36 16c26.667 13.333 45.334 20 56.001 20c8 0 14.833 -2.66699 20.5 -8s8.5 -11.666 8.5 -18.999c0 -8.66699 -3 -15.334 -9 -20.001h1l-34 -28l-24 -45l1 -50
v-341z" />
    <glyph glyph-name="V" unicode="V" horiz-adv-x="537" 
d="M313 250l90.9971 280.001c0.666992 2 1 4 1 6s0.333008 3.66699 1 5c4 12.667 6 20 6 22c0 16 -9.33301 28.333 -28 37c-3.33301 2 -6.33301 3.66699 -9 5s-5.66699 2.66602 -9 3.99902c-12 10 -18 19.667 -18 29c0 18.667 15.333 28 46 28h121
c31.333 0 47 -9.33301 47 -28c0 -10.667 -9.66699 -22.667 -29 -36c-23.333 -15.333 -40 -37.333 -50 -66l-37 -111l-45 -134.5l-45 -135.5l-38 -112c-1.33301 -3.33301 -3.33301 -8 -6 -14l-9 -21c-7.33301 -9.33301 -17.666 -14 -30.999 -14
c-9.33301 0 -18.166 5 -26.499 15s-15.833 23.667 -22.5 41l-172 475c-5.33301 13.333 -16 23.666 -32 30.999l-15 6c-18.667 8 -28 18.333 -28 31c0 14 4.66699 22 14 24c2.66699 1.33301 7.83398 2.5 15.501 3.5s17.834 2.16699 30.501 3.5
c48.667 4.66699 96 16.334 142 35.001h-1l32 12c4.66699 2 9.16699 3.33301 13.5 4s8.16602 1 11.499 1c17.333 0 26 -8.33301 26 -25c0 -10.667 -8.66699 -24 -26 -40c-21.333 -18.667 -32 -34 -32 -46c0 -5.33301 2 -14 6 -26z" />
    <glyph glyph-name="W" unicode="W" horiz-adv-x="749" 
d="M277 288l99.9961 347.001c1.33301 3.33301 2.66602 7.5 3.99902 12.5s2.66602 9.16699 3.99902 12.5c5.33301 7.33301 14 11 26 11c14.667 0 25.667 -12 33 -36l101 -347l74 259c0.666992 3.33301 1.16699 5.66602 1.5 6.99902s0.5 5 0.5 11c0 13.333 -13.333 29 -40 47
c-12.667 9.33301 -19 17.666 -19 24.999c0 19.333 14.667 29 44 29h122c32 0 48 -9.33301 48 -28c0 -10 -4.66699 -18.667 -14 -26l1 2l-17 -12c-24 -14.667 -40.333 -35.667 -49 -63l-148 -495c-10 -33.333 -25 -50 -45 -50c-5.33301 0 -10.666 1.5 -15.999 4.5
s-9.66602 6.16699 -12.999 9.5c-2.66699 6 -5.16699 12.5 -7.5 19.5s-5.16602 14.167 -8.49902 21.5h1l-89 292c-5.33301 -20.667 -11.5 -43.167 -18.5 -67.5l-21 -75l-21 -75.5c-7 -24.667 -13.167 -47.334 -18.5 -68.001c-6 -19.333 -13.167 -34.166 -21.5 -44.499
s-18.166 -15.5 -29.499 -15.5c-19.333 0 -35 20 -47 60l-69.5 228l-69.5 229c-7.33301 23.333 -25.333 42 -54 56c-18 8.66699 -27 18.667 -27 30s4.66699 18.666 14 21.999c2.66699 1.33301 8 2.5 16 3.5s18.667 2.16699 32 3.5
c22.667 2.66699 45.834 6.83398 69.501 12.501s48.167 13.167 73.5 22.5v-1l17 6c16.667 6 27.334 9 32.001 9c19.333 0 29 -8 29 -24c0 -6.66699 -2.66699 -13.334 -8 -20.001s-13 -14.667 -23 -24c-18 -17.333 -27 -30.666 -27 -39.999
c0 -3.33301 0.666992 -7.66602 2 -12.999l5 -18z" />
    <glyph glyph-name="X" unicode="X" horiz-adv-x="588" 
d="M347 402c43.333 45.333 65.0029 86.6621 65.0029 123.995c0 34 -16.667 57.333 -50 70l-26 9c-23.333 10 -35 21.333 -35 34c0 18 13.667 27 41 27h144c15.333 0 27.166 -8.66699 35.499 -26s12.5 -40.333 12.5 -69c0 -73.333 -43 -153 -129 -239l-13 -13l90 -179
c2 -3.33301 4.5 -7 7.5 -11s5.5 -7.66699 7.5 -11c1.33301 -1.33301 2.83301 -3.16602 4.5 -5.49902s3.16699 -4.83301 4.5 -7.5c2 -2.66699 4 -5.66699 6 -9c6 -5.33301 12.667 -10.666 20 -15.999c3.33301 -3.33301 10.666 -9 21.999 -17
c7.33301 -6.66699 13.333 -12.834 18 -18.501s7 -10.5 7 -14.5c0 -20 -14.333 -30 -43 -30h-146c-27.333 0 -41 10.333 -41 31v21c0 25.333 -5.66699 48 -17 68l-100 187c-57.333 -69.333 -86 -123.666 -86 -162.999c0 -26 19 -50 57 -72c32.667 -16 49 -30.333 49 -43
c0 -19.333 -15.333 -29 -46 -29h-135c-16 0 -29.333 7.83301 -40 23.5s-16 36.167 -16 61.5c0 70 32.333 141.667 97 215c7.33301 8 16.333 17.333 27 28s23.334 22.334 38.001 35.001l16 16l-46 90c-6.66699 12.667 -15.5 22.334 -26.5 29.001s-24.833 11.667 -41.5 15
l-22 3c-17.333 2 -26 10.333 -26 25c0 8.66699 7.33301 17.667 22 27c53.333 34.667 88.666 62.334 105.999 83.001c2.66699 2.66699 6 6.66699 10 12l3 3c7.33301 6.66699 14.666 10 21.999 10c10 0 17 -4.33301 21 -13l6 -14z" />
    <glyph glyph-name="Y" unicode="Y" horiz-adv-x="537" 
d="M326 359c22.667 27.333 38.667 52.001 48 74.001c6.66699 14 11.334 28 14.001 42s4 28.667 4 44c0 40.667 -20.333 69 -61 85l-8 4c-2.66699 1.33301 -5.66699 2.66602 -9 3.99902c-1.33301 1.33301 -2.33301 2 -3 2s-1.66699 0.333008 -3 1h1
c-8.66699 4.66699 -13 12 -13 22c0 19.333 14 29 42 29h129c40.667 0 61 -30.333 61 -91c0 -54 -14.833 -107.667 -44.5 -161s-71.5 -102 -125.5 -146l2 -168c0.666992 -7.33301 2.66699 -13.5 6 -18.5s7.66602 -8.83301 12.999 -11.5
c3.33301 -1.33301 7.5 -2.83301 12.5 -4.5s9.16699 -3.16699 12.5 -4.5h-2c16 -8.66699 24 -19 24 -31s-4.66699 -20.333 -14 -25c-3.33301 -1.33301 -8.33301 -2.5 -15 -3.5s-16 -1.5 -28 -1.5h-169c-21.333 0 -35.333 1.66699 -42 5c-4.66699 2.66699 -8 6.16699 -10 10.5
s-3 9.16602 -3 14.499c0 14.667 7.33301 25 22 31h-1l24 9c14 6.66699 21 22.334 21 47.001v132l-8 10c-20 24 -37.5 48.667 -52.5 74s-27.5 52 -37.5 80l-12 26c-4.66699 10 -10 20.667 -16 32c-13.333 20.667 -30.333 32.667 -51 36l-19 4c-14.667 2 -22 11.667 -22 29
c0 13.333 10.667 26.333 32 39c14.667 7.33301 31.167 17.833 49.5 31.5s37.833 29.5 58.5 47.5h1c14.667 12 25.667 18 33 18c17.333 0 28 -19.333 32 -58c10 -78.667 28.667 -141.667 56 -189c6 -10 13.667 -21 23 -33s20 -24.667 32 -38z" />
    <glyph glyph-name="Z" unicode="Z" horiz-adv-x="524" 
d="M204 78l35.0029 -0.00195312c27.333 0 47.666 1 60.999 3c18.667 2.66699 37 10.667 55 24s36.667 31.333 56 54c3.33301 4.66699 7.33301 9.33398 12 14.001s8.66699 9.33398 12 14.001c7.33301 8 14.833 14.667 22.5 20s14.834 8 21.501 8c8 0 14.667 -2.33301 20 -7
s8 -10.334 8 -17.001c0 -3.33301 -1.5 -8.83301 -4.5 -16.5l-11.5 -28.5c-5.33301 -11.333 -11.333 -27.333 -18 -48l-24 -76c-7.33301 -24 -18.333 -36 -33 -36c-8 0 -17.667 4.66699 -29 14h-311c-40 0 -60 11.667 -60 35c0 2.66699 1.33301 7.33398 4 14.001v-1l12 23
l269 520c-4 0 -8.33301 -0.666992 -13 -2s-9 -3.16602 -13 -5.49902s-7.33301 -4.5 -10 -6.5s-4 -3.33301 -4 -4v21c-8 0 -16.833 -1 -26.5 -3s-18.834 -4.66699 -27.501 -8c-11.333 -5.33301 -24.333 -14.333 -39 -27s-30 -29 -46 -49
c-8 -9.33301 -15.333 -16.666 -22 -21.999s-12.667 -8 -18 -8c-8 0 -14.833 2.5 -20.5 7.5s-8.5 11.167 -8.5 18.5c0 5.33301 2 12.666 6 21.999c3.33301 8 7.66602 17.167 12.999 27.5s9.66602 19.833 12.999 28.5c5.33301 10 10 20 14 30s6.66699 18.333 8 25
c3.33301 15.333 8.33301 27.166 15 35.499s14 12.5 22 12.5c7.33301 0 16 -6 26 -18h280c27.333 0 41 -8 41 -24c0 -4 -1 -8.5 -3 -13.5s-4.66699 -11.167 -8 -18.5v1z" />
    <glyph glyph-name="bracketleft" unicode="[" horiz-adv-x="264" 
d="M179 666c38.667 0 57.999 -10 57.999 -30c0 -14 -9 -23.667 -27 -29l-24 -9c-18.667 -6.66699 -28 -21.667 -28 -45v-624c0.666992 -2.66699 1 -7.66699 1 -15c0.666992 -6.66699 3.33398 -12.5 8.00098 -17.5s10.667 -9.16699 18 -12.5l24 -10
c18.667 -6.66699 28 -16 28 -28c0 -20 -19.333 -30 -58 -30h-103c-24 0 -36 11.667 -36 35v779c0 24 12 36 36 36h103z" />
    <glyph glyph-name="backslash" unicode="\" horiz-adv-x="328" 
d="M201 89c0 -42.667 -9.00098 -84.335 -27.001 -125.002c-11.333 -28 -26.333 -51 -45 -69s-36 -27 -52 -27c-8 0 -13 2 -15 6l-27 46l-29 40c-0.666992 0.666992 -1.16699 1.33398 -1.5 2.00098s-0.833008 1.33398 -1.5 2.00098c-6 6.66699 -9 12.334 -9 17.001
c0 8 5.33301 12 16 12c13.333 0 24.5 1.5 33.5 4.5s16.333 8.33301 22 16s9.83398 18 12.501 31s4 29.167 4 48.5v292h-21c-24 0 -36 7.66699 -36 23c0 8.66699 7 17.334 21 26.001c31.333 21.333 47 47.666 47 78.999v25c0 40.667 13.667 72.667 41 96s64 35 110 35
c19.333 0 37.833 -2.5 55.5 -7.5s33.5 -12.167 47.5 -21.5c15.333 -10.667 27.5 -22.834 36.5 -36.501s13.5 -29.167 13.5 -46.5c0 -21.333 -6.66699 -39.333 -20 -54s-29.666 -22 -48.999 -22c-24.667 0 -42.667 8.66699 -54 26c-3.33301 4.66699 -5 10.334 -5 17.001v1
l9 8c14.667 12.667 22 26.667 22 42c0 11.333 -5 21.833 -15 31.5s-21.333 14.5 -34 14.5c-35.333 0 -53 -22.667 -53 -68c0 -3.33301 0.166992 -9.83301 0.5 -19.5s0.833008 -19.5 1.5 -29.5c-0.666992 -1.33301 -0.833984 -13.833 -0.500977 -37.5
s0.5 -56.834 0.5 -99.501z" />
    <glyph glyph-name="bracketright" unicode="]" horiz-adv-x="264" 
d="M188 666c23.333 0 35.0029 -11.999 35.0029 -35.999v-779c0 -23.333 -11.667 -35 -35 -35h-103c-38.667 0 -58 10 -58 30c0 12 9.33301 21.333 28 28c3.33301 2 7.16602 3.83301 11.499 5.5s8.5 3.16699 12.5 4.5c7.33301 3.33301 13.166 7.5 17.499 12.5
s6.83301 10.5 7.5 16.5c1.33301 2 1.83301 4.16699 1.5 6.5s-0.5 6.16602 -0.5 11.499l1 34l-1 586c0 25.333 -11.333 42 -34 50c-3.33301 1.33301 -6.33301 2.33301 -9 3s-5.33398 1.66699 -8.00098 3c-8 2.66699 -14.5 6.5 -19.5 11.5s-7.5 10.833 -7.5 17.5
c0 20 19.333 30 58 30h103z" />
    <glyph glyph-name="asciicircum" unicode="^" horiz-adv-x="600" 
d="M175 324h-91l85.5 178.5l85.5 176.5h90l85.5 -177.5l84.5 -177.5h-90l-125 276z" />
    <glyph glyph-name="underscore" unicode="_" horiz-adv-x="500" 
d="M3 -73h494v-84h-494v84z" />
    <glyph glyph-name="grave" unicode="`" horiz-adv-x="500" 
d="M299 523c2.66699 -5.33301 3.99805 -8.99902 3.99805 -10.999c0 -4.66699 -2.66699 -7 -8 -7c-1.33301 0 -4.5 1.66699 -9.5 5l-17.5 12l-57 44c-19.333 15.333 -38.333 29.666 -57 42.999c-1.33301 1.33301 -3.16602 3.5 -5.49902 6.5s-3.5 5.16699 -3.5 6.5
c0 3.33301 6.33301 5 19 5h55c18.667 0 30.334 -3.33301 35.001 -10l7 -16z" />
    <glyph glyph-name="a" unicode="a" horiz-adv-x="463" 
d="M194 254l26.5 12.499c6.33301 3 11.833 5.83301 16.5 8.5c29.333 17.333 44 40 44 68c0 38.667 -21.667 58 -65 58c-19.333 0 -35.333 -5.66699 -48 -17s-19 -24.666 -19 -39.999c0 -22.667 9.33301 -36.667 28 -42l13 -5c0.666992 0 1 -0.333008 1 -1
c0 -4.66699 -3.33301 -13.667 -10 -27zM279 243.999c-1.33301 -1.33301 -3.83301 -3.16699 -7.5 -5.5s-7.5 -5 -11.5 -8s-8.16699 -5.83301 -12.5 -8.5s-7.83301 -5 -10.5 -7l1 1l-6 -3l-4 -2l2 1l-26 -13c-35.333 -20 -53 -44.333 -53 -73c0 -40.667 18 -61 54 -61
c49.333 0 74 35.667 74 107v72zM262 40.998c-39.333 -37.333 -80.0039 -56 -122.004 -56c-36 0 -65.5 10.333 -88.5 31s-34.5 48 -34.5 82c0 56.667 46.333 104.334 139 143.001c-72.667 11.333 -109 39 -109 83c0 18 4.33301 34.667 13 50s20.667 28.5 36 39.5
s34 19.5 56 25.5s46 9 72 9c70.667 0 122 -19 154 -57c14 -16 21 -44.667 21 -86v-178c0 -25.333 9.66699 -44.666 29 -57.999c13.333 -10 20 -19 20 -27c0 -6 -12.667 -15 -38 -27c-9.33301 -4 -19.166 -8 -29.499 -12l-31.5 -12
c-5.33301 -2.66699 -10.166 -4.83398 -14.499 -6.50098s-8.16602 -2.5 -11.499 -2.5c-6.66699 0 -12.167 1.5 -16.5 4.5s-8.16602 6.83301 -11.499 11.5c-2 3.33301 -4.5 8.16602 -7.5 14.499s-6.16699 14.5 -9.5 24.5z" />
    <glyph glyph-name="b" unicode="b" horiz-adv-x="498" 
d="M195 125c26 16.667 44 25 54 25c20 0 30 -5 30 -15v-1l-9 -9c-9.33301 -8 -14 -17 -14 -27c0 -22.667 12 -34 36 -34c38 0 57 41 57 123c0 110.667 -28.667 166 -86 166c-45.333 0 -68 -30.667 -68 -92v-136zM195 372c42 55.333 84.998 82.999 128.998 82.999
c23.333 0 44.5 -5.5 63.5 -16.5s35.167 -26.667 48.5 -47s23.666 -44.833 30.999 -73.5s11 -60.667 11 -96c0 -29.333 -3.66699 -57 -11 -83s-17.666 -49.667 -30.999 -71c-29.333 -49.333 -71.333 -74 -126 -74c-34 0 -72.333 17.333 -115 52
c0 -30.667 -13.667 -46 -41 -46h-89c-9.33301 0 -17.166 0.333008 -23.499 1s-11.166 1.66699 -14.499 3h1c-8 4 -12 10 -12 18c0 9.33301 6.66699 16.666 20 21.999l17 7c14.667 6 22 19.333 22 40v434c0 8 -2 15.5 -6 22.5s-10 12.5 -18 16.5l-20 10
c-6.66699 2.66699 -10 9.33398 -10 20.001c0 14 15.667 24 47 30c26.667 4.66699 51.334 15 74.001 31c6.66699 5.33301 12.5 9 17.5 11s9.16699 3 12.5 3s7.66602 -1 12.999 -3h-1c4.66699 -2.66699 7.66699 -6 9 -10c1.33301 -1.33301 2 -13.666 2 -36.999v-247z" />
    <glyph glyph-name="c" unicode="c" horiz-adv-x="399" 
d="M379 430c2.66699 1.33301 4 1.33301 4 0h-4zM282 348c-10.667 34 -27.668 50.999 -51.001 50.999c-12 0 -23.167 -4.33301 -33.5 -13s-19.333 -21 -27 -37s-13.5 -35 -17.5 -57s-6 -46 -6 -72c0 -104.667 27.667 -157 83 -157c34.667 0 52 17.333 52 52
c0 16.667 -8.66699 29 -26 37h2c-10 6.66699 -15 10.334 -15 11.001c0 15.333 6.83301 29 20.5 41s29.167 18 46.5 18c22 0 40.333 -8.83301 55 -26.5s22 -40.167 22 -67.5c0 -45.333 -17 -80.333 -51 -105c-30.667 -24 -70 -36 -118 -36c-62.667 0 -111.667 21.667 -147 65
c-32.667 41.333 -49 94.666 -49 159.999c0 32 3.83301 61.5 11.5 88.5s19.834 52.167 36.501 75.5c36.667 52.667 83.667 79 141 79c7.33301 0 15.333 -0.5 24 -1.5s18 -2.16699 28 -3.5l13 -2h5c2 -0.666992 5 -1 9 -1c6.66699 0 12 0.666992 16 2l13 4
c5.33301 2 9.5 3.33301 12.5 4s5.16699 1 6.5 1c16.667 0 25 -9.33301 25 -28h16c-3.33301 -1.33301 -7.33301 -4.33301 -12 -9s-7 -11 -7 -19v-5c-0.666992 -9.33301 -1.16699 -18.666 -1.5 -27.999s-0.5 -18 -0.5 -26v-25c0 -25.333 -9.66699 -38 -29 -38
c-16 0 -26.667 8.66699 -32 26h1z" />
    <glyph glyph-name="d" unicode="d" horiz-adv-x="485" 
d="M305 315c-24.667 -15.333 -42.334 -22.998 -53.001 -22.998c-7.33301 0 -14.166 1.33301 -20.499 4s-9.5 5.66699 -9.5 9l8 9c9.33301 11.333 14 21.666 14 30.999s-3.66699 17.666 -11 24.999s-15.333 11 -24 11c-41.333 0 -62 -42.333 -62 -127
c0 -112.667 29.667 -169 89 -169c12.667 0 24.334 3.83301 35.001 11.5s19 17.5 25 29.5c3.33301 5.33301 5.66602 13.333 6.99902 24s2 23 2 37v128zM305 60.002c-44.667 -48.667 -89.334 -73 -134.001 -73c-49.333 0 -88 24.333 -116 73
c-10.667 20.667 -19.167 43.167 -25.5 67.5s-9.5 50.166 -9.5 77.499c0 33.333 3.66699 63.833 11 91.5s18.333 53.5 33 77.5h-1c34 54 81 81 141 81c32 0 65.667 -19 101 -57v127c0 19.333 -8 32.333 -24 39c-3.33301 1.33301 -7 3 -11 5s-7.66699 3.66699 -11 5
c-6.66699 2.66699 -10 9.33398 -10 20.001c0 14 15.667 24 47 30c27.333 5.33301 52.333 15.666 75 30.999c13.333 9.33301 23.333 14 30 14c11.333 0 18.666 -4.33301 21.999 -13v-6c0 -2.66699 0.333008 -5 1 -7v-552c0 -20.667 7.33301 -34 22 -40
c2 -1.33301 4.83301 -2.5 8.5 -3.5s6.5 -2.16699 8.5 -3.5c13.333 -5.33301 20 -12.666 20 -21.999c0 -8.66699 -4 -14.667 -12 -18h1c-3.33301 -1.33301 -8.16602 -2.33301 -14.499 -3s-14.166 -1 -23.499 -1h-101c-18.667 0 -28 8.66699 -28 26v34z" />
    <glyph glyph-name="e" unicode="e" horiz-adv-x="436" 
d="M243 285c25.333 18 37.999 41.332 37.999 69.999c0 33.333 -15 50 -45 50c-23.333 0 -42.166 -16.167 -56.499 -48.5s-22.5 -76.166 -24.5 -131.499zM157.999 164.999c6.66699 -72 34.667 -108.004 84 -108.004c16.667 0 31 6 43 18s18 25.667 18 41
c0 14.667 -3 27.334 -9 38.001s-18.667 17.667 -38 21c-1.33301 0 -1.5 1 -0.5 3s1.5 3.66699 1.5 5c14 25.333 30.167 40.833 48.5 46.5s35.833 4.83398 52.5 -2.49902s30.834 -19.666 42.501 -36.999s17.5 -36 17.5 -56c0 -24.667 -5.33301 -46.667 -16 -66
s-25.334 -35.666 -44.001 -48.999c-37.333 -24.667 -81.666 -37 -132.999 -37c-63.333 0 -113.166 19.833 -149.499 59.5s-54.5 94.5 -54.5 164.5c0 66.667 19 124.667 57 174c20 24 43.5 42.5 70.5 55.5s56.833 19.5 89.5 19.5c33.333 0 64.166 -7.5 92.499 -22.5
s49.166 -34.833 62.499 -59.5c5.33301 -12 8 -21.667 8 -29c0 -15.333 -13.333 -32.333 -40 -51z" />
    <glyph glyph-name="f" unicode="f" horiz-adv-x="328" 
d="M201 380l-0.000976562 -290.999c0 -42.667 -9 -84.334 -27 -125.001c-11.333 -28 -26.333 -51 -45 -69s-36 -27 -52 -27c-8 0 -13 2 -15 6l-27 46l-29 40c-1.33301 1.33301 -2 2.33301 -2 3c-6.66699 7.33301 -10 13.333 -10 18c0 8 5.33301 12 16 12
c13.333 0 24.5 1.5 33.5 4.5s16.333 8.33301 22 16s9.83398 18 12.501 31s4 29.167 4 48.5v292h-21c-24 0 -36 7.66699 -36 23c0 8.66699 7 17.334 21 26.001c31.333 21.333 47 47.666 47 78.999v25c0 40.667 13.667 72.667 41 96s64 35 110 35
c19.333 0 37.833 -2.5 55.5 -7.5s33.5 -12.167 47.5 -21.5c15.333 -10.667 27.5 -22.834 36.5 -36.501s13.5 -29.167 13.5 -46.5c0 -21.333 -6.66699 -39.333 -20 -54s-29.666 -22 -48.999 -22c-24.667 0 -42.667 8.66699 -54 26c-3.33301 4.66699 -5 10.334 -5 17.001v1
l9 8c14.667 12.667 22 26.667 22 42c0 11.333 -5 21.833 -15 31.5s-21.333 14.5 -34 14.5c-35.333 0 -53 -22.667 -53 -68c0 -2 0.166992 -8.5 0.5 -19.5s1.16602 -24.167 2.49902 -39.5c0 -3.33301 0.166992 -6.5 0.5 -9.5s0.5 -5.83301 0.5 -8.5
c0.666992 -7.33301 1 -15 1 -23v-18h67c24 0 36 -9.33301 36 -28c0 -18 -11.667 -27 -35 -27h-70z" />
    <glyph glyph-name="g" unicode="g" horiz-adv-x="435" 
d="M268 303c0 14.667 -1.83203 28.5 -5.49902 41.5s-8.83398 24.5 -15.501 34.5s-14.167 17.833 -22.5 23.5s-17.5 8.5 -27.5 8.5c-13.333 0 -24.833 -6.33301 -34.5 -19s-14.5 -28.667 -14.5 -48c0 -36.667 6.5 -67 19.5 -91s30.167 -36 51.5 -36c32.667 0 49 25.333 49 76
v10zM105.001 23c42 -29.333 63 -49.3311 63 -59.998c0 -1.33301 0.333008 -2 1 -2c-3.33301 -0.666992 -6.5 -1.5 -9.5 -2.5s-5.83301 -1.83301 -8.5 -2.5c-12.667 -2 -19 -11 -19 -27c0 -30.667 25.333 -46 76 -46c14.667 0 28.667 2 42 6s25 9.66699 35 17
s18 15.666 24 24.999s9 19.666 9 30.999c0 22 -8.16699 38 -24.5 48s-41.5 14.667 -75.5 14l-51 -1h-62zM306.001 448.002c-2.66699 6 -4 13.334 -4 22.001c0 21.333 6.5 39.333 19.5 54s28.5 22 46.5 22c16 0 29.833 -5.33301 41.5 -16s17.5 -23.667 17.5 -39
c0 -13.333 -4.66699 -24.666 -14 -33.999s-20.333 -14 -33 -14c-1.33301 0 -2.33301 1 -3 3v-1c-7.33301 15.333 -16.333 23 -27 23c-17.333 0 -26 -9.66699 -26 -29c2 -9.33301 4.33301 -17 7 -23c0.666992 -0.666992 2.66699 -2.83398 6 -6.50098
s7.66602 -9.16699 12.999 -16.5c18 -23.333 27 -49.666 27 -78.999c0 -43.333 -17.667 -78 -53 -104c-30.667 -24 -69.334 -36 -116.001 -36c-13.333 0 -29.333 2 -48 6c-10 -13.333 -15 -23.333 -15 -30c0 -16 13.333 -24 40 -24h4.5c2.33301 0 4.83301 0.333008 7.5 1h49
c19.333 0 36.5 -1 51.5 -3s27.167 -4.66699 36.5 -8c24.667 -8.66699 44.334 -24.834 59.001 -48.501s22 -49.5 22 -77.5c0 -54.667 -23.667 -98.667 -71 -132c-21.333 -15.333 -44.5 -26.666 -69.5 -33.999s-52.5 -11 -82.5 -11c-22 0 -43.333 2.5 -64 7.5
s-39.667 11.833 -57 20.5c-20 11.333 -35.5 25 -46.5 41s-16.5 33.667 -16.5 53c0 36.667 30 65.334 90 86.001c-45.333 12 -68 25.667 -68 41c0 7.33301 5.66699 18.666 17 33.999c5.33301 7.33301 11.333 15.166 18 23.499s12.667 16.166 18 23.499
c4.66699 4.66699 9.33398 11.5 14.001 20.5l18 33.5c-50.667 34 -76 73.667 -76 119c0 42 16.667 76 50 102c30.667 24.667 68.667 37 114 37c25.333 0 55.333 -6.66699 90 -20z" />
    <glyph glyph-name="h" unicode="h" horiz-adv-x="505" 
d="M194 377c46.667 52 92.667 77.998 138 77.998c42 0 72 -14.333 90 -43l8.5 -17.5c2.33301 -5 3.83301 -9.5 4.5 -13.5c0.666992 -4.66699 1.16699 -12.334 1.5 -23.001s0.5 -24 0.5 -40v-227c0 -20.667 7.33301 -34 22 -40c2 -1.33301 4.83301 -2.5 8.5 -3.5
s6.5 -2.16699 8.5 -3.5c13.333 -5.33301 20 -12.666 20 -21.999s-3.33301 -15.333 -10 -18c-3.33301 -1.33301 -8.16602 -2.33301 -14.499 -3s-14.5 -1 -24.5 -1h-140c-4.66699 0 -9 0.333008 -13 1s-7.33301 1.33398 -10 2.00098c-2 2.66699 -3.83301 5.66699 -5.5 9
s-2.5 6.66602 -2.5 9.99902c0 10.667 4 18 12 22l12 6c12 6.66699 18 20.334 18 41.001v199c0 42.667 -20.333 64 -61 64c-17.333 0 -32.166 -6.33301 -44.499 -19s-18.5 -27.667 -18.5 -45v-199c0 -18 5.33301 -31.333 16 -40l14 -7c8 -4 12 -11.333 12 -22
c0 -14.667 -10.333 -22 -31 -22h-140c-9.33301 0 -17.166 0.333008 -23.499 1s-11.5 1.66699 -15.5 3h1c-7.33301 3.33301 -11 9.33301 -11 18c0 9.33301 6.66699 16.666 20 21.999l17 7c14.667 6 22 19.333 22 40v434c0 8 -2 15.5 -6 22.5s-10 12.5 -18 16.5l-20 10
c-7.33301 2.66699 -11 9.33398 -11 20.001c0 7.33301 4.16699 13.333 12.5 18s20.166 8.66699 35.499 12c23.333 4 47.666 14.333 72.999 31c14 9.33301 24.333 14 31 14c3.33301 0 7.66602 -1 12.999 -3h-1c4.66699 -2.66699 7.66699 -6 9 -10
c0.666992 -1.33301 1 -13.666 1 -36.999v-242z" />
    <glyph glyph-name="i" unicode="i" horiz-adv-x="276" 
d="M141 664c20.667 0 38.167 -7.16699 52.5 -21.5s21.5 -31.5 21.5 -51.5c0 -20.667 -7.16699 -38.167 -21.5 -52.5s-31.833 -21.5 -52.5 -21.5c-20 0 -37.167 7.16699 -51.5 21.5s-21.5 31.833 -21.5 52.5c0 20 7.16699 37.167 21.5 51.5s31.5 21.5 51.5 21.5zM205 91
c0 -20.667 7.00293 -34.001 21.0029 -40.001c2 -1.33301 5 -2.5 9 -3.5s7 -2.16699 9 -3.5c12.667 -5.33301 19 -12.666 19 -21.999s-3.33301 -15.333 -10 -18s-19.334 -4 -38.001 -4h-140c-32 -0 -48 7.33301 -48 22c0 9.33301 6.33301 16.666 19 21.999l18 7
c14 6 21 19.333 21 40v217c0 18.667 -7.66699 32 -23 40l-21 10c-7.33301 3.33301 -11 10 -11 20c0 12.667 15.333 22.667 46 30c27.333 4.66699 52.333 14.334 75 29.001c14.667 10 24.667 15 30 15s10.166 -1.5 14.499 -4.5s7.16602 -6.5 8.49902 -10.5
c0 -3.33301 0.333008 -6.33301 1 -9v-337z" />
    <glyph glyph-name="j" unicode="j" horiz-adv-x="225" 
d="M124 664c20.667 0 38.167 -7.16699 52.5 -21.5s21.5 -31.5 21.5 -51.5c0 -20.667 -7.16699 -38.167 -21.5 -52.5s-31.833 -21.5 -52.5 -21.5c-20 0 -37.167 7.16699 -51.5 21.5s-21.5 31.833 -21.5 52.5c0 20 7.16699 37.167 21.5 51.5s31.5 21.5 51.5 21.5zM186 26
c0 -26 -2.83203 -50.332 -8.49902 -72.999s-13.5 -44.667 -23.5 -66v1c-28.667 -55.333 -57 -83 -85 -83c-8.66699 0 -22.667 13.333 -42 40v-1l-40 61c-4.66699 5.33301 -7 10.333 -7 15c0 7.33301 6 11.666 18 12.999c17.333 0.666992 31.166 4.5 41.499 11.5
s17.5 16.167 21.5 27.5c4 12 6 36.667 6 74l-1 262c0 20.667 -7.66699 34 -23 40l-21 10c-6.66699 2.66699 -10 9.33398 -10 20.001c0 5.33301 1.66699 10.333 5 15c0.666992 1.33301 5.33398 3.5 14.001 6.5s19.667 7.16699 33 12.5c16 5.33301 30.667 10.5 44 15.5
s21.666 8.83301 24.999 11.5c13.333 8.66699 23.333 13 30 13c14 0 21.333 -5.66699 22 -17c0.666992 -0.666992 1 -9.33398 1 -26.001v-383z" />
    <glyph glyph-name="k" unicode="k" horiz-adv-x="491" 
d="M194 385c45.333 46.667 86.998 69.999 124.998 69.999c12.667 0 24.834 -2.5 36.501 -7.5s21.834 -11.833 30.501 -20.5s15.5 -19 20.5 -31s7.5 -24.667 7.5 -38c0 -41.333 -23 -73.666 -69 -96.999c24 -28 44.5 -55.5 61.5 -82.5s31.167 -54.167 42.5 -81.5
c9.33301 -22 22.333 -37.333 39 -46c15.333 -6.66699 23 -15.667 23 -27c0 -16 -10.333 -24 -31 -24h-169c-26.667 0 -40 8 -40 24c0 5.33301 2.66699 10.666 8 15.999s11.333 10.666 18 15.999c0.666992 0.666992 1.5 1.33398 2.5 2.00098s1.83301 1.33398 2.5 2.00098
c7.33301 7.33301 11 17.666 11 30.999c0 12 -2.5 25.167 -7.5 39.5s-12.167 28.5 -21.5 42.5l-18 25l-17 25c-5.33301 8.66699 -8 15 -8 19c0 4.66699 4 8 12 10l15 4c26.667 6 40 23 40 51c0 15.333 -5 27.833 -15 37.5s-21.667 14.5 -35 14.5
c-42.667 0 -64 -31.667 -64 -95v-173c0 -18 5 -31.333 15 -40l15 -7c8 -4 12 -11.333 12 -22c0 -14.667 -10.667 -22 -32 -22h-140c-32 0 -48 7.33301 -48 22c0 9.33301 6.66699 16.666 20 21.999l17 7c14.667 6 22 19.333 22 40v434c0 17.333 -8 30.333 -24 39l-21 10
c-6.66699 2.66699 -10 9.33398 -10 20.001c0 7.33301 4.16699 13.333 12.5 18s19.833 8.66699 34.5 12c24 4 48.667 14.333 74 31c14 9.33301 24 14 30 14c4 0 8.66699 -1 14 -3h-1c4.66699 -2.66699 7.66699 -6 9 -10c0.666992 -1.33301 1 -13.666 1 -36.999v-234z" />
    <glyph glyph-name="l" unicode="l" horiz-adv-x="263" 
d="M191 91c0 -22.667 7.67188 -36.334 23.0049 -41.001l-1 1c2 -1.33301 5 -2.5 9 -3.5s7 -2.16699 9 -3.5c5.33301 -2.66699 9.66602 -5.83398 12.999 -9.50098s5 -7.83398 5 -12.501c0 -14.667 -16 -22 -48 -22h-139c-32 0 -48 7.33301 -48 22
c0 4.66699 1.66699 8.83398 5 12.501s7.66602 6.83398 12.999 9.50098l18 7c14.667 8 22 21.333 22 40v434c0 19.333 -7.33301 32.333 -22 39c-4 1.33301 -7.83301 3 -11.5 5s-7.16699 3.66699 -10.5 5c-6.66699 2.66699 -10 9.33398 -10 20.001c0 14 15.667 24 47 30
c27.333 5.33301 51.666 15.666 72.999 30.999c13.333 9.33301 23.666 14 30.999 14c2.66699 0 6.66699 -1 12 -3h-1c5.33301 -2.66699 8.66602 -6 9.99902 -10c0.666992 -1.33301 1 -13.666 1 -36.999v-528z" />
    <glyph glyph-name="m" unicode="m" horiz-adv-x="723" 
d="M198 369c43.333 57.333 86.999 86 130.999 86s80 -25.333 108 -76c34.667 50.667 75 76 121 76c42 0 72.333 -16 91 -48c5.33301 -12 8 -22.333 8 -31v-285c0 -20.667 7.33301 -34 22 -40c3.33301 -1.33301 6.5 -2.5 9.5 -3.5s6.16699 -2.16699 9.5 -3.5h-1
c12.667 -4.66699 19 -12 19 -22c0 -14.667 -16 -22 -48 -22h-139c-22 -0 -33 7.33301 -33 22c0 10 4.33301 17.333 13 22h-1l15 7c10.667 8.66699 16 22 16 40v188c0 49.333 -18.333 74 -55 74c-37.333 0 -56 -25 -56 -75v-187c0 -20.667 5.66699 -34.334 17 -41.001l13 -6
c8 -4 12 -11.333 12 -22c0 -14.667 -10.667 -22 -32 -22h-140c-11.333 0 -19.666 1.33301 -24.999 4v-1c-4.66699 2.66699 -7 9 -7 19c0 10.667 4 18 12 22l13 6c11.333 6.66699 17 20.334 17 41.001v188c0 49.333 -18.333 74 -55 74s-55 -24.667 -55 -74v-188
c0 -20.667 6 -34.334 18 -41.001l12 -6c8 -4 12 -11.333 12 -22c0 -3.33301 -0.833008 -6.66602 -2.5 -9.99902s-3.5 -6.33301 -5.5 -9c-4 -2 -12 -3 -24 -3h-140c-32 -0 -48 7.33301 -48 22c0 9.33301 6.66699 16.666 20 21.999l17 7c14.667 6 22 19.333 22 40v217
c0 18.667 -8 32 -24 40l-21 10c-7.33301 3.33301 -11 10 -11 20c0 6.66699 4.16699 12.5 12.5 17.5s19.5 9.16699 33.5 12.5c26.667 4.66699 52 14.334 76 29.001c14 10 23.667 15 29 15c6 0 11 -1.5 15 -4.5s6.66699 -6.5 8 -10.5c0 -3.33301 0.333008 -6.33301 1 -9v-59z
" />
    <glyph glyph-name="n" unicode="n" horiz-adv-x="513" 
d="M201 373c46.667 54.667 91.333 82 134 82c21.333 0 42 -5 62 -15c22 -12 36 -26.667 42 -44c3.33301 -10 5 -28.333 5 -55v-250c0 -19.333 7.66699 -32.666 23 -39.999c2 -1.33301 4.83301 -2.5 8.5 -3.5s6.5 -2.16699 8.5 -3.5
c5.33301 -2.66699 9.83301 -5.83398 13.5 -9.50098s5.5 -7.83398 5.5 -12.501c0 -14.667 -16.333 -22 -49 -22h-139c-20.667 0 -31 7.33301 -31 22c0 10 4 17.667 12 23l-1 -1l15 7c10.667 8.66699 16 22 16 40v191c0 48.667 -20.667 73 -62 73c-42 0 -63 -26 -63 -78v-186
c0 -20.667 6 -34.334 18 -41.001l12 -6c8 -4 12 -11.333 12 -22c0 -3.33301 -0.833008 -6.66602 -2.5 -9.99902s-3.5 -6.33301 -5.5 -9c-4 -2 -11.667 -3 -23 -3h-140c-32.667 0 -49 7.33301 -49 22c0 9.33301 6.66699 16.666 20 21.999l17 7c14.667 6 22 19.333 22 40v217
c0 18.667 -8 32 -24 40l-20 10c-8 2.66699 -12 9.33398 -12 20.001c0 6.66699 4.16699 12.5 12.5 17.5s19.833 9.16699 34.5 12.5c26 4.66699 51 14.334 75 29.001c14 10 24 15 30 15c5.33301 0 10 -1.5 14 -4.5s6.66699 -6.5 8 -10.5c0 -3.33301 0.333008 -6.33301 1 -9
v-55z" />
    <glyph glyph-name="o" unicode="o" horiz-adv-x="445" 
d="M276 221h20c0 110.667 -24.667 166 -74 166c-47.333 0 -71 -55.333 -71 -166s24.667 -166 74 -166zM424 218c0 -64.667 -17.667 -118.667 -53 -162c-36 -46 -85.333 -69 -148 -69c-62 0 -111.333 23 -148 69c-36 42.667 -54 96 -54 160c0 69.333 19.333 126.333 58 171
c38 45.333 86 68 144 68c61.333 0 111 -24 149 -72c34.667 -43.333 52 -98.333 52 -165z" />
    <glyph glyph-name="p" unicode="p" horiz-adv-x="489" 
d="M271 126l-1 2c0 -0.666992 0.166992 -1 0.5 -1s0.5 -0.333008 0.5 -1zM188 112c24 20 41.333 30 52 30c6.66699 0 13 -1.5 19 -4.5s9.66699 -6.16699 11 -9.5l-2 -3v1c-4 -4 -8.5 -8.83301 -13.5 -14.5s-7.5 -13.167 -7.5 -22.5c0 -23.333 12 -35 36 -35
c38 0 57 41.333 57 124c0 110 -28.333 165 -85 165c-44.667 0 -67 -33.667 -67 -101v-130zM188 -94c0 -19.333 7.33301 -32.332 22 -38.999c2 -1.33301 5 -2.5 9 -3.5s7 -2.16699 9 -3.5c5.33301 -2.66699 9.66602 -5.83398 12.999 -9.50098s5 -8.16699 5 -13.5
c0 -8.66699 -3 -14.334 -9 -17.001c-6.66699 -2.66699 -19.667 -4 -39 -4h-139c-19.333 0 -32.333 1.33301 -39 4c-6.66699 3.33301 -10 9 -10 17c0 5.33301 1.83301 9.83301 5.5 13.5s8.16699 6.83398 13.5 9.50098l18 7c14.667 6.66699 22 19.667 22 39v402
c0 20.667 -8 34 -24 40c-3.33301 1.33301 -6.83301 3 -10.5 5s-7.16699 3.66699 -10.5 5c-6.66699 2.66699 -10 9.33398 -10 20.001c0 5.33301 1.66699 10.333 5 15c0.666992 1.33301 5.33398 3.5 14.001 6.5s19.667 7.16699 33 12.5c16 5.33301 30.667 10.5 44 15.5
s21.666 8.83301 24.999 11.5c12.667 8.66699 22.667 13 30 13c12.667 0 20 -5.66699 22 -17c0.666992 -0.666992 1 -9.33398 1 -26.001v-47c43.333 57.333 86 86 128 86c50 0 89.333 -25.667 118 -77c10.667 -22 19.167 -45.833 25.5 -71.5s9.5 -52.834 9.5 -81.501
c0 -60 -13.333 -112 -40 -156c-14.667 -25.333 -32.667 -44.166 -54 -56.499s-45.666 -18.5 -72.999 -18.5c-37.333 0 -75.333 18.333 -114 55v-136z" />
    <glyph glyph-name="q" unicode="q" horiz-adv-x="473" 
d="M303 306c-28 -13.333 -46 -20 -54 -20c-6.66699 0 -13.167 1.5 -19.5 4.5s-9.5 7.16699 -9.5 12.5l1 1c-0.666992 0 0.333008 0.666992 3 2c12.667 8.66699 19 20 19 34c0 23.333 -12 35 -36 35c-18 0 -32.5 -12.333 -43.5 -37s-16.5 -58 -16.5 -100
c0 -48.667 7.83301 -87.167 23.5 -115.5s37.5 -42.5 65.5 -42.5c44.667 0 67 30.667 67 92v134zM303 61c-45.333 -49.333 -90.665 -74 -135.998 -74c-48.667 0 -86.667 24 -114 72c-10 20 -18 41.833 -24 65.5s-9 49.5 -9 77.5c0 60 14.667 115.667 44 167
c33.333 57.333 76.666 86 129.999 86c39.333 0 71 -16 95 -48c7.33301 1.33301 16.666 4.33301 27.999 9s24.666 10.667 39.999 18h-1c26.667 13.333 42 20 46 20c4.66699 0 8.66699 -1.33301 12 -4c6 -4 9 -14.667 9 -32v-512c0 -21.333 7.33301 -34.333 22 -39
c2 -1.33301 4.83301 -2.5 8.5 -3.5s6.5 -2.16699 8.5 -3.5c13.333 -5.33301 20 -13 20 -23c0 -8 -3.66699 -13.667 -11 -17c-6.66699 -2.66699 -19.334 -4 -38.001 -4h-140c-9.33301 0 -17.166 0.333008 -23.499 1s-11.166 1.66699 -14.499 3h1
c-7.33301 3.33301 -11 9 -11 17c0 10 6.33301 17.667 19 23l18 7c14 4.66699 21 17.667 21 39v155z" />
    <glyph glyph-name="r" unicode="r" horiz-adv-x="397" 
d="M203 373l16.9971 -4.00195c30 57.333 65 86 105 86c23.333 0 42.333 -8.5 57 -25.5s22 -38.833 22 -65.5c0 -29.333 -7.83301 -53.666 -23.5 -72.999s-35.167 -29 -58.5 -29c-11.333 0 -21 2.16699 -29 6.5s-12 8.83301 -12 13.5l1 1c8 10 12 19.667 12 29
c0 20 -10.333 30 -31 30c-17.333 0 -31.666 -10 -42.999 -30s-17 -45 -17 -75v-146c0 -20.667 7 -34 21 -40c2 -1.33301 5 -2.5 9 -3.5s7 -2.16699 9 -3.5c12.667 -5.33301 19 -12.666 19 -21.999s-3.33301 -15.333 -10 -18s-19.334 -4 -38.001 -4h-140
c-9.33301 -0 -17.166 0.333008 -23.499 1s-11.166 1.66699 -14.499 3h1c-7.33301 3.33301 -11 9.33301 -11 18c0 9.33301 6.33301 16.666 19 21.999l18 7c14 6 21 19.333 21 40v217c0 18.667 -7.66699 32 -23 40l-21 10c-7.33301 3.33301 -11 10 -11 20
c0 12.667 15.333 22.667 46 30c27.333 4.66699 52.333 14.334 75 29.001c14.667 10 24.667 15 30 15c12.667 0 20.334 -5.33301 23.001 -16c0.666992 -0.666992 1 -9.66699 1 -27v-36z" />
    <glyph glyph-name="s" unicode="s" horiz-adv-x="395" 
d="M172 181c6.66699 -10 10 -18.667 10 -26c0 -9.33301 -2 -14 -6 -14c0.666992 0 -1.66602 0.666992 -6.99902 2c-6.66699 1.33301 -11.334 2 -14.001 2c-11.333 0 -21.166 -4.33301 -29.499 -13s-12.5 -18.667 -12.5 -30c0 -19.333 7.5 -35 22.5 -47s34.167 -18 57.5 -18
s42.666 6.66699 57.999 20s23 30 23 50c0 28 -23 53.667 -69 77c-4.66699 2.66699 -11 6.66699 -19 12zM129 229c-3.33301 1.33301 -6.66309 3.33301 -9.99609 6s-7.33301 5.66699 -12 9c-13.333 12 -23.666 25.167 -30.999 39.5s-11 30.5 -11 48.5
c0 34.667 13.667 64 41 88c26 23.333 56.667 35 92 35c3.33301 0 8.16602 -0.666992 14.499 -2s13.166 -2.66602 20.499 -3.99902c15.333 -3.33301 28.333 -5 39 -5c4.66699 0 11 1 19 3h-1l19 6l6 1.5c1.33301 0.333008 2.66602 0.5 3.99902 0.5
c11.333 0 17 -6.66699 17 -20c0 -6.66699 -0.333008 -10.667 -1 -12l-4 -40c0 -7.33301 -0.333008 -14.833 -1 -22.5s-1 -15.167 -1 -22.5c-1.33301 -18 -7.66602 -27 -18.999 -27c-13.333 0 -23 10 -29 30v-1c-0.666992 1.33301 -1.33398 3 -2.00098 5
c-0.666992 1.33301 -1.33398 3.16602 -2.00098 5.49902s-1.66699 5.16602 -3 8.49902c0 0.666992 -0.166992 1.5 -0.5 2.5s-0.5 1.83301 -0.5 2.5c-11.333 28.667 -30.333 43 -57 43c-14.667 0 -27.334 -4.83301 -38.001 -14.5s-16 -21.5 -16 -35.5
c0 -15.333 7.66699 -28.333 23 -39c3.33301 -2.66699 7 -4.83398 11 -6.50098s8.66699 -3.5 14 -5.5c2 -1.33301 4 -2.16602 6 -2.49902s4 -1.16602 6 -2.49902l41 -19c76 -34 114 -81.667 114 -143c0 -23.333 -4.5 -44.333 -13.5 -63s-21.5 -34.5 -37.5 -47.5
s-35.333 -23.167 -58 -30.5s-47.667 -11 -75 -11c-46.667 0 -86.667 9.66699 -120 29c-36.667 22 -55 54 -55 96c0 30 9.66699 53.667 29 71s45 26 77 26z" />
    <glyph glyph-name="t" unicode="t" horiz-adv-x="316" 
d="M193 376l0.00195312 -250c0 -52 20 -78 60 -78l3 1h20c14.667 0 22 -6 22 -18c0 -15.333 -10.833 -27.333 -32.5 -36s-49.834 -13 -84.501 -13s-63.834 5 -87.501 15s-35.5 22.667 -35.5 38c0 3.33301 0.333008 6.33301 1 9c1.33301 4 2.5 8.16699 3.5 12.5
s2.16699 8.5 3.5 12.5v-1c3.33301 8.66699 5.5 19.334 6.5 32.001s1.5 27 1.5 43v233h-30c-24 0 -36 7 -36 21c0 11.333 7.66699 20.666 23 27.999c34 15.333 56.667 28.666 68 39.999c6 7.33301 12.167 16.5 18.5 27.5s12.5 25.167 18.5 42.5c10 27.333 22.667 41 38 41
c12.667 0 19 -13 19 -39v-103h62c19.333 0 32.333 -1.33301 39 -4c9.33301 -3.33301 14 -11.666 14 -24.999c0 -14.667 -5.66699 -23.667 -17 -27c-3.33301 -0.666992 -8 -1.16699 -14 -1.5s-13 -0.5 -21 -0.5h-63z" />
    <glyph glyph-name="u" unicode="u" horiz-adv-x="487" 
d="M282 38c-36 -34 -73.6689 -51.001 -113.002 -51.001c-30.667 0 -55.667 8 -75 24s-29 37 -29 63l1 21v213c0 20.667 -8 34 -24 40c-3.33301 1.33301 -6.83301 3 -10.5 5s-7.16699 3.66699 -10.5 5c-7.33301 2.66699 -11 9.33398 -11 20.001
c0 5.33301 1.66699 10.333 5 15c1.33301 1.33301 6.33301 3.5 15 6.5s19.667 7.16699 33 12.5c16 5.33301 30.833 10.5 44.5 15.5s22.167 8.83301 25.5 11.5c12.667 8.66699 22.667 13 30 13c13.333 0 20.333 -5.66699 21 -17c0.666992 -0.666992 1 -9.33398 1 -26.001v-249
c0 -53.333 18.333 -80 55 -80c40 0 60 26.667 60 80v148c0 20 -8 33.333 -24 40c-3.33301 1.33301 -7 3 -11 5s-7.66699 3.66699 -11 5c-6.66699 2.66699 -10 9.33398 -10 20.001c0 13.333 15.667 23.333 47 30c27.333 5.33301 52.333 15.666 75 30.999
c13.333 8.66699 23 13 29 13c14 0 21.333 -4.33301 22 -13c0.666992 -3.33301 1.16699 -7.33301 1.5 -12s0.5 -10.667 0.5 -18v-318c0 -20.667 7.33301 -34 22 -40c2 -1.33301 4.83301 -2.5 8.5 -3.5s6.5 -2.16699 8.5 -3.5c13.333 -5.33301 20 -12.666 20 -21.999
c0 -8.66699 -4 -14.667 -12 -18h1c-3.33301 -1.33301 -8.16602 -2.33301 -14.499 -3s-14.166 -1 -23.499 -1h-93c-24 -0 -36 10.333 -36 31z" />
    <glyph glyph-name="v" unicode="v" horiz-adv-x="428" 
d="M265 301c0 -0.666992 0.333008 -1 1 -1l-1 2v-1zM255 96c25.333 52 44.667 95.833 58 131.5s20 64.167 20 85.5c0 35.333 -15.667 53 -47 53c-23.333 0 -35 -11.667 -35 -35c0 -8 2 -14 6 -18c1.33301 -2.66699 4 -6.66699 8 -12
c-1.33301 -4.66699 -5.5 -8.33398 -12.5 -11.001s-15.167 -4 -24.5 -4c-4 0 -10.5 1.33301 -19.5 4s-21.167 7.33398 -36.5 14.001zM157.001 348c30.667 71.333 72.335 106.999 125.002 106.999c40 0 71.333 -12.167 94 -36.5s34 -57.5 34 -99.5
c0 -42.667 -12 -93.334 -36 -152.001c-10.667 -25.333 -22.667 -50.166 -36 -74.499s-27 -46.166 -41 -65.499c-6.66699 -8 -13.334 -14.5 -20.001 -19.5s-12.667 -7.5 -18 -7.5h-58c-12 0 -19.667 3.66699 -23 11l-7 17l-113 261c-11.333 28 -26.333 46 -45 54
c-14 4.66699 -21 12 -21 22c0 8 8.33301 15.667 25 23c4 1.33301 12.333 6.83301 25 16.5l48 37.5c5.33301 4 10.666 6 15.999 6c8.66699 0 14.667 -5 18 -15z" />
    <glyph glyph-name="w" unicode="w" horiz-adv-x="628" 
d="M455 95c9.33301 16 18.333 32.833 27 50.5l26 54.5c9.33301 21.333 16.5 41.5 21.5 60.5s7.5 35.833 7.5 50.5c0 15.333 -4.33301 28 -13 38s-19.667 15 -33 15c-24.667 0 -37 -11.667 -37 -35c0 -8 2.33301 -13.667 7 -17l8 -12c0 -9.33301 -12 -14 -36 -14
c-14 0 -34 10 -60 30zM362 347c30 72 72.999 107.996 128.999 107.996c38 0 68 -11.667 90 -35s33 -55.333 33 -96c0 -91.333 -39.333 -190.333 -118 -297c-3.33301 -3.33301 -6.66602 -7.16602 -9.99902 -11.499s-6.66602 -8.16602 -9.99902 -11.499
c-2.66699 -2.66699 -8.66699 -4 -18 -4h-58c-14 0 -23.667 8.66699 -29 26l-37 105c-2.66699 -6.66699 -6 -14.5 -10 -23.5l-13 -28l-13.5 -28.5c-4.33301 -9.33301 -7.83301 -17.333 -10.5 -24c-5.33301 -10.667 -10 -17.834 -14 -21.501s-9.66699 -5.5 -17 -5.5h-59
c-6 0 -11.833 2.5 -17.5 7.5s-10.167 11.5 -13.5 19.5l-59 139l-59 140c-3.33301 6 -8.5 12.5 -15.5 19.5s-14.167 12.5 -21.5 16.5c-14.667 7.33301 -22 14.666 -22 21.999c0 2.66699 13.333 13 40 31l40.5 29c9.66699 6.66699 15.5 11 17.5 13
c6.66699 7.33301 12 11 16 11s7.66699 -1.5 11 -4.5s5.66602 -6.16699 6.99902 -9.5l130 -337l46 107l-44 103c-3.33301 7.33301 -7.66602 14 -12.999 20s-11.666 11 -18.999 15c-12.667 6.66699 -20.334 11.167 -23.001 13.5s-4 5.5 -4 9.5
c0 8.66699 10.333 17.334 31 26.001c14.667 6.66699 26.667 13.334 36 20.001c1.33301 1.33301 3.16602 2.83301 5.49902 4.5s4.83301 3.83398 7.5 6.50098c3.33301 2.66699 7 5.83398 11 9.50098l13 12.5c2.66699 2.66699 6.66699 4 12 4c4 0 7.83301 -1 11.5 -3
s6.16699 -5.66699 7.5 -11v1z" />
    <glyph glyph-name="x" unicode="x" horiz-adv-x="446" 
d="M299 212l77.9971 -121c8 -11.333 16.333 -21.5 25 -30.5s17.667 -16.167 27 -21.5c10 -5.33301 15 -11 15 -17c0 -14.667 -12 -22 -36 -22h-106c-25.333 0 -38 8 -38 24v14c0 18 -3.33301 32.667 -10 44l-62 96c-40.667 -44.667 -61 -75.667 -61 -93
c0 -10 9.66699 -24 29 -42c11.333 -10 17 -18 17 -24c0 -12.667 -11 -19 -33 -19h-91c-28 0 -42 12 -42 36c0 32 42.333 95.333 127 190l13 14l-16 25l-16 25h1c-18 28 -45.333 46.667 -82 56c-15.333 3.33301 -23 9.33301 -23 18c0 4 11 13.667 33 29
c28.667 20 45.334 32.333 50.001 37c14 14.667 24.667 22 32 22c2.66699 0 5.16699 -0.333008 7.5 -1s4.5 -2 6.5 -4s4.33301 -5 7 -9l11 -17l103 -157c31.333 30.667 47 54 47 70c0 17.333 -8.33301 26 -25 26c-1.33301 0 -2.66602 -0.166992 -3.99902 -0.5
s-3 -0.5 -5 -0.5c-1.33301 -0.666992 -2.83301 -1 -4.5 -1h-3.5c-1.33301 0 -2.66602 0.666992 -3.99902 2c-8 8.66699 -12 18.667 -12 30c0 17.333 7.33301 32.5 22 45.5s32 19.5 52 19.5c21.333 0 39.333 -7.16699 54 -21.5s22 -31.5 22 -51.5
c0 -29.333 -14.333 -61.333 -43 -96z" />
    <glyph glyph-name="y" unicode="y" horiz-adv-x="442" 
d="M283 90c46.667 98.667 69.999 170.334 69.999 215.001c0 43.333 -16 65 -48 65c-24.667 0 -37 -12.667 -37 -38c0 -8 2.33301 -14.333 7 -19l6 -8c0.666992 -0.666992 1 -1.33398 1 -2.00098c0 -4 -3.33301 -7.33301 -10 -10s-15 -4 -25 -4
c-9.33301 0 -28.666 8.33301 -57.999 25zM173.999 345c26.667 73.333 70 109.999 130 109.999c38 0 67.833 -11.833 89.5 -35.5s32.5 -55.834 32.5 -96.501c0 -39.333 -9 -84.5 -27 -135.5s-43.333 -104.833 -76 -161.5c-40 -66.667 -83.667 -118.667 -131 -156
s-95 -56 -143 -56c-17.333 0 -33.333 2.5 -48 7.5s-27.5 11.833 -38.5 20.5s-19.667 18.834 -26 30.501s-9.5 24.5 -9.5 38.5c0 22 7 40.5 21 55.5s31 22.5 51 22.5c10.667 0 21.667 -3.33301 33 -10c11.333 -8 17 -15.333 17 -22v-1l-10 -8c-7.33301 -8 -11 -16 -11 -24
c0 -22 13.333 -33 40 -33c30.667 0 61.334 12.667 92.001 38c26.667 22.667 40 44 40 64c0 4.66699 -1.5 11.334 -4.5 20.001s-7.16699 18.334 -12.5 29.001l-121 259c-1.33301 1.33301 -3 4.33301 -5 9c-9.33301 17.333 -19 28.333 -29 33l-15 7
c-8.66699 4 -13 9.66699 -13 17c-0 2.66699 3.33301 6.66699 10 12s15.667 12 27 20c6.66699 5.33301 12.834 9.66602 18.501 12.999s10.5 6.66602 14.5 9.99902c5.33301 3.33301 10.166 6.5 14.499 9.5s7.16602 5.5 8.49902 7.5c8.66699 8.66699 16.667 13 24 13
c4 0 7.66699 -2.16699 11 -6.5s7.33301 -12.166 12 -23.499z" />
    <glyph glyph-name="z" unicode="z" horiz-adv-x="374" 
d="M151 62l77.002 0.000976562c27.333 0 51.666 18.667 72.999 56c20 35.333 35 53 45 53c12.667 0 19 -7 19 -21c0 -0.666992 -0.166992 -1.33398 -0.5 -2.00098s-0.5 -1.66699 -0.5 -3v-4c-10 -22 -22.667 -66.333 -38 -133c-3.33301 -14 -10.333 -21 -21 -21
c-7.33301 0 -15.333 4.33301 -24 13h-243c-19.333 0 -29 5 -29 15c0 11.333 3.33301 21.333 10 30l197 335h-56c-6 0 -11.333 -0.333008 -16 -1s-9 -2.5 -13 -5.5s-8 -7.16699 -12 -12.5s-8.66699 -12.666 -14 -21.999l-15.5 -25c-3.66699 -6 -6.16699 -10 -7.5 -12
c-4 -5.33301 -8.66699 -9.83301 -14 -13.5s-10 -5.5 -14 -5.5c-11.333 0 -17 4.66699 -17 14c0 3.33301 1 8.16602 3 14.499l8 26.5c2 6 3.66699 10.667 5 14c3.33301 10 6.16602 18 8.49902 24s3.83301 10.333 4.5 13l4 20.5l4 20.5c3.33301 14 9 21 17 21
s16.333 -5.33301 25 -16h216c16.667 0 25 -3.66699 25 -11c0 -1.33301 -1 -4.33301 -3 -9s-4.33301 -9.66699 -7 -15z" />
    <glyph glyph-name="braceleft" unicode="{" horiz-adv-x="308" 
d="M275 703c2 0.666992 4.16699 1.33203 6.5 1.99902s4.83301 1.33398 7.5 2.00098l-8 -10v6h-6zM281 -216.002c-1.33301 0.666992 -2.33301 1 -3 1s-1.66699 0.333008 -3 1h16l-10 -10v8zM205 -74.002c0 -76 23.334 -122.669 70.001 -140.002
c-60.667 2 -103.334 10.667 -128.001 26c-12.667 9.33301 -22.667 24 -30 44s-11 45.333 -11 76v184c0 34 -4.33301 61 -13 81s-23.667 35.667 -45 47c10 4.66699 18.5 10.834 25.5 18.501s12.833 15.5 17.5 23.5c10 18.667 15 47.334 15 86.001v185
c0 30.667 3.66699 56 11 76s17.333 34.667 30 44c24.667 15.333 67.334 24 128.001 26c-46.667 -17.333 -70 -64 -70 -140v-175c0 -39.333 -4.66699 -69 -14 -89c-10 -21.333 -41.333 -39 -94 -53c51.333 -16.667 82.666 -35.667 93.999 -57c9.33301 -20 14 -49.667 14 -89
v-174z" />
    <glyph glyph-name="bar" unicode="|" horiz-adv-x="222" 
d="M70 -256v1007h82v-1007h-82z" />
    <glyph glyph-name="braceright" unicode="}" horiz-adv-x="308" 
d="M105 100c0 39.333 4.66699 68.9971 14 88.9971c10 20.667 41.333 38.334 94 53.001c-51.333 16.667 -82.666 35.667 -93.999 57c-9.33301 20 -14 49.667 -14 89v175c0 76 -23.333 122.667 -70 140c62 -2 104.667 -10.667 128 -26c12.667 -9.33301 22.667 -24 30 -44
s11 -45.333 11 -76v-185c0 -38.667 5 -67.334 15 -86.001c8.66699 -17.333 23 -31.333 43 -42c-12.667 -5.33301 -22.834 -11.666 -30.501 -18.999s-13.5 -16 -17.5 -26s-6.66699 -21.833 -8 -35.5s-2 -29.5 -2 -47.5v-184c0 -30.667 -3.66699 -56 -11 -76
s-17.333 -34.667 -30 -44c-11.333 -7.33301 -28 -13.166 -50 -17.499s-48 -7.16602 -78 -8.49902c46.667 17.333 70 64 70 140v174v0zM19 702.997l10 10v-8c1.33301 -0.666992 2.33301 -1 3 -1s1.66699 -0.333008 3 -1h-16zM35 -214.003
c-2.66699 -0.666992 -5 -1.33203 -7 -1.99902s-4.33301 -1.33398 -7 -2.00098l8 10v-6h6v0z" />
    <glyph glyph-name="asciitilde" unicode="~" horiz-adv-x="600" 
d="M74 249c27.333 52 64.665 78 111.998 78c30.667 0 69 -10.333 115 -31c46 -20 82.333 -30 109 -30c28.667 0 58.334 17.333 89.001 52c5.33301 -14 9.83301 -25.333 13.5 -34l13.5 -33c-28 -52 -65.333 -78 -112 -78c-30.667 0 -69 10.333 -115 31
c-47.333 20.667 -83.666 31 -108.999 31c-29.333 0 -59 -17.667 -89 -53z" />
    <glyph glyph-name="currency" unicode="&#xa4;" horiz-adv-x="592" 
d="M452 350c0 44 -14.668 82.332 -44.001 114.999c-15.333 15.333 -32.333 27.166 -51 35.499s-39 12.5 -61 12.5c-23.333 0 -44.5 -4.16699 -63.5 -12.5s-35.333 -19.666 -49 -33.999s-24.167 -31.5 -31.5 -51.5s-11 -41.667 -11 -65s3.66699 -45 11 -65
s17.833 -37.167 31.5 -51.5s30 -25.666 49 -33.999s40.167 -12.5 63.5 -12.5s44.5 4 63.5 12s35.333 19.333 49 34s24.334 32 32.001 52s11.5 41.667 11.5 65zM42.999 144.999l55 55.001c-33.333 39.333 -50 89.333 -50 150c0 61.333 17 111 51 149l-55 56l48 48l56 -55
c38 31.333 87.333 47 148 47c58 0 105.667 -15 143 -45c9.33301 8 19 17 29 27l29 28l26 -25.5l26 -25.5l-56 -58c34.667 -32.667 52 -81.334 52 -146.001c0 -59.333 -17 -109.333 -51 -150l54 -55l-45 -45l-56 57c-38.667 -34.667 -89 -52 -151 -52
c-61.333 0 -111 17 -149 51l-58 -57z" />
    <glyph glyph-name="brokenbar" unicode="&#xa6;" horiz-adv-x="222" 
d="M70 -179v339h82v-339h-82zM70 335v339h82v-339h-82z" />
    <glyph glyph-name="section" unicode="&#xa7;" horiz-adv-x="432" 
d="M346 236c0 44 -26.333 83.665 -79 118.998c-9.33301 5.33301 -20.333 12 -33 20l-43 26c-7.33301 5.33301 -15.833 11 -25.5 17l-28.5 17c-37.333 -24 -56 -54.333 -56 -91c0 -24.667 11.5 -49.167 34.5 -73.5s56.167 -48.166 99.5 -71.499l54 -30.5
c14.667 -8.33301 24 -14.166 28 -17.499c32.667 24.667 49 53 49 85zM316 678.998c52 0 77.998 -12 77.998 -36c0 -9.33301 -11.333 -21 -34 -35c-28.667 -16.667 -43 -32 -43 -46c0 -3.33301 0.666992 -6.83301 2 -10.5l4 -11.5c-23.333 5.33301 -35 15.333 -35 30
c0 6.66699 2.66699 14 8 22c8.66699 14.667 13 24.334 13 29.001c0 21.333 -34.667 32 -104 32c-14 0 -25.5 -0.166992 -34.5 -0.5s-15.5 -0.833008 -19.5 -1.5c-28.667 -4.66699 -43 -18.334 -43 -41.001c0 -41.333 27.333 -79.666 82 -114.999l38.001 -25l48.5 -28
c17.667 -10 37.167 -21.667 58.5 -35h-1c48.667 -38 73 -83 73 -135c0 -48 -29.333 -94.333 -88 -139c46.667 -39.333 70 -81.666 70 -126.999c0 -36 -8.83301 -64.333 -26.5 -85s-40.5 -31 -68.5 -31h-20c-9.33301 0 -18.666 0.333008 -27.999 1
c-11.333 0.666992 -20.5 1 -27.5 1h-14.5h-19c-7.33301 0 -16.333 -0.333008 -27 -1c-9.33301 -0.666992 -17 -1 -23 -1h-11c-11.333 0 -22.166 2.5 -32.499 7.5s-19.833 12.5 -28.5 22.5c-18 18.667 -27 40.334 -27 65.001c0 25.333 4.33301 46.166 13 62.499
s20.667 24.5 36 24.5c5.33301 0 12.666 -3.33301 21.999 -10c14 -10 25.333 -15 34 -15c-2 -8.66699 -7.66699 -14.334 -17 -17.001c-21.333 -9.33301 -32 -26.333 -32 -51c0 -25.333 12.667 -42 38 -50c12 -4.66699 38.333 -7 79 -7c41.333 0 69 3 83 9
c23.333 8.66699 35 29.667 35 63c0 34 -27.667 66 -83 96c-44 23.333 -77.833 41.833 -101.5 55.5s-38.167 22.5 -43.5 26.5c-49.333 37.333 -74 83.333 -74 138c0 60.667 28.667 108.667 86 144c-24.667 25.333 -43 51.166 -55 77.499s-18 52.833 -18 79.5
c0 45.333 26.667 68 80 68h198z" />
    <glyph glyph-name="copyright" unicode="&#xa9;" horiz-adv-x="644" 
d="M438 486l-4 0.00195312c-7.33301 25.333 -18.166 43.666 -32.499 54.999s-32.833 17 -55.5 17c-64.667 0 -97 -50 -97 -150c0 -109.333 28.667 -164 86 -164c54 0 92 25.667 114 77h2c-2 -10.667 -4.16699 -20.167 -6.5 -28.5s-4.5 -17.5 -6.5 -27.5
c-28.667 -15.333 -65.334 -23 -110.001 -23c-51.333 0 -91.333 14.167 -120 42.5s-43 68.166 -43 119.499c0 40 11.333 75 34 105c13.333 16.667 30 29.5 50 38.5s43.333 13.5 70 13.5c66 0 105.667 -7.66699 119 -23v-52zM74 393.002
c0 -34.667 5.99902 -66.334 17.999 -95.001s29.667 -55.667 53 -81c48 -48 106.667 -72 176 -72c68.667 0 127 24 175 72c48 48.667 72 107.334 72 176.001c0 67.333 -24.333 125.333 -73 174c-48 48.667 -106 73 -174 73c-69.333 0 -127.666 -24 -174.999 -72
c-48 -48 -72 -106.333 -72 -175zM31.999 393.002c0 79.333 28 147.667 84 205c56 56 124.333 84 205 84s149 -28 205 -84c56 -57.333 84 -125.666 84 -204.999c0 -80.667 -28 -149.334 -84 -206.001c-56.667 -55.333 -125 -83 -205 -83s-148.667 27.667 -206 83
c-55.333 57.333 -83 126 -83 206z" />
    <glyph glyph-name="guillemotleft" unicode="&#xab;" horiz-adv-x="396" 
d="M298 210l53 -150.002l5 -16.5c1.33301 -4.33301 2 -8.16602 2 -11.499c0 -7.33301 -4 -11 -12 -11c-6.66699 0 -14.334 6 -23.001 18l-92 118c-14 18 -21 35.667 -21 53c0 16.667 7 33.667 21 51l92 119c8.66699 12 16.334 18 23.001 18c8 0 12 -3.66699 12 -11
c0 -3.33301 -0.666992 -7.16602 -2 -11.499l-5 -16.5zM126 209.998l53 -150c4.66699 -12 7 -21.333 7 -28c0 -7.33301 -4 -11 -12 -11c-6.66699 0 -14.334 6 -23.001 18l-92 118c-14 18 -21 35.667 -21 53c0 16.667 7 33.667 21 51l92 119c8.66699 12 16.334 18 23.001 18
c8 0 12 -3.66699 12 -11c0 -6.66699 -2.33301 -16 -7 -28z" />
    <glyph glyph-name="logicalnot" unicode="&#xac;" horiz-adv-x="269" 
d="M27 671c-0.666992 1.33301 -1 4.33301 -1 9c0 16 8 24 24 24c11.333 0 19 -7.66699 23 -23v4l2 -11l84 -360l83 -359c0 -2 0.333008 -3.66699 1 -5v-6c0 -14.667 -8 -22 -24 -22c-11.333 0 -19 7.33301 -23 22v-3l-2 10z" />
    <glyph glyph-name="registered" unicode="&#xae;" horiz-adv-x="644" 
d="M190 551h7c-2.66699 0 -5 0.333008 -7 1v-1zM284 549v-156h32c36 0 54 28.667 54 86c0 46.667 -17 70 -51 70h-35zM226 510c0 14 -1.49902 23.834 -4.49902 29.501s-11.167 9.5 -24.5 11.5h155c58.667 0 88 -24.667 88 -74c0 -40 -25 -66.333 -75 -79
c5.33301 -9.33301 11.5 -21.166 18.5 -35.499l18.5 -36.5c10.667 -19.333 21.667 -35.333 33 -48s22.333 -20.667 33 -24v-3h-69c-4.66699 0 -17 18.667 -37 56v-2c-0.666992 1.33301 -1.5 3.16602 -2.5 5.49902s-1.83301 4.16602 -2.5 5.49902
c-4 9.33301 -9.16699 20.333 -15.5 33l-20.5 42h-37v-95c0 -17.333 2.66699 -28.666 8 -33.999s14.666 -8.33301 27.999 -9v-2h-130v2c16 0.666992 26 4.16699 30 10.5s6 17.166 6 32.499v214zM74.001 393.001c0 -34.667 5.99902 -66.334 17.999 -95.001
s29.667 -55.667 53 -81c48 -48 106.667 -72 176 -72c68.667 0 127 24 175 72c48 48.667 72 107.334 72 176.001c0 67.333 -24.333 125.333 -73 174c-48 48.667 -106 73 -174 73c-69.333 0 -127.666 -24 -174.999 -72c-48 -48 -72 -106.333 -72 -175zM32 393.001
c0 79.333 28 147.667 84 205c56 56 124.333 84 205 84s149 -28 205 -84c56 -57.333 84 -125.666 84 -204.999c0 -80.667 -28 -149.334 -84 -206.001c-56.667 -55.333 -125 -83 -205 -83s-148.667 27.667 -206 83c-55.333 57.333 -83 126 -83 206z" />
    <glyph glyph-name="degree" unicode="&#xb0;" horiz-adv-x="400" 
d="M108 542c0 -12.667 2.33301 -24.5 7 -35.5s11.167 -20.667 19.5 -29s18.166 -14.833 29.499 -19.5s23.333 -7 36 -7s24.667 2.33301 36 7s21.166 11.167 29.499 19.5s14.833 18 19.5 29s7 22.833 7 35.5s-2.33301 24.667 -7 36s-11.167 21.166 -19.5 29.499
s-18.166 14.833 -29.499 19.5s-23.333 7 -36 7s-24.667 -2.33301 -36 -7s-21.166 -11.167 -29.499 -19.5s-14.833 -18.166 -19.5 -29.499s-7 -23.333 -7 -36zM57 542c0 40 14 73.667 42 101c28.667 28.667 62.334 43 101.001 43s72.334 -14.333 101.001 -43
c28 -27.333 42 -61 42 -101s-14 -73.333 -42 -100c-28.667 -28.667 -62.334 -43 -101.001 -43s-72.334 14.333 -101.001 43c-28 26.667 -42 60 -42 100z" />
    <glyph glyph-name="plusminus" unicode="&#xb1;" horiz-adv-x="600" 
d="M51 0v82h498v-82h-498zM259 365v134h82v-134h208v-82h-208v-135h-82v135h-208v82h208z" />
    <glyph glyph-name="paragraph" unicode="&#xb6;" horiz-adv-x="620" 
d="M218 277c-53.333 0 -95 18.832 -125 56.499s-45 88.5 -45 152.5c0 68.667 17.5 118 52.5 148s92.833 45 173.5 45h296v-20c-51.333 -3.33301 -77 -29 -77 -77v-695c0 -55.333 25.667 -84.666 77 -87.999v-20h-159v880h-110v-880h-165v20c25.333 2 45.333 10.667 60 26
s22 36 22 62v390z" />
    <glyph glyph-name="periodcentered" unicode="&#xb7;" horiz-adv-x="348" 
d="M174 477c26 0 49.667 -9.99902 71 -29.999c20 -20 30 -43.667 30 -71c0 -14 -2.66699 -27.167 -8 -39.5s-12.5 -23 -21.5 -32s-19.667 -16 -32 -21s-25.5 -7.5 -39.5 -7.5s-27.167 2.5 -39.5 7.5s-23 12 -32 21s-16 19.667 -21 32s-7.5 25.5 -7.5 39.5s2.5 27 7.5 39
s12 22.667 21 32s19.667 16.666 32 21.999s25.5 8 39.5 8z" />
    <glyph glyph-name="guillemotright" unicode="&#xbb;" horiz-adv-x="396" 
d="M270 210l-53 149c-4.66699 12 -7 21.333 -7 28c0 7.33301 4 11 12 11c6 0 13.667 -6 23 -18l92 -119c14 -17.333 21 -34.333 21 -51c0 -17.333 -7 -35 -21 -53l-92 -118c-9.33301 -12 -17 -18 -23 -18c-8 0 -12 3.66699 -12 11c0 6.66699 2.33301 16 7 28zM98 210
l-53 149.002l-5 16.5c-1.33301 4.33301 -2 8.16602 -2 11.499c0 7.33301 4 11 12 11c6.66699 0 14.667 -6 24 -18l91 -119c14 -17.333 21 -34.333 21 -51c0 -17.333 -7 -35 -21 -53l-91 -118c-9.33301 -12 -17.333 -18 -24 -18c-8 0 -12 3.66699 -12 11
c0 3.33301 0.666992 7.16602 2 11.499l5 16.5z" />
    <glyph glyph-name="afii10023" unicode="&#x401;" horiz-adv-x="558" 
d="M326 604c18 -2 34.834 -11.834 50.501 -29.501s31.167 -44.834 46.5 -81.501c2 -6 4.66699 -12.5 8 -19.5s6.33301 -13.833 9 -20.5c9.33301 -21.333 21.666 -32 36.999 -32c23.333 0 35 10 35 30c0 7.33301 -0.666992 13.666 -2 18.999l-14 44
c-1.33301 4.66699 -2.33301 8.83398 -3 12.501s-1.66699 8.5 -3 14.5c-1.33301 3.33301 -2.16602 6.5 -2.49902 9.5s-1.16602 6.5 -2.49902 10.5c-3.33301 15.333 -5.83301 29.833 -7.5 43.5s-2.5 25.834 -2.5 36.501c-4 23.333 -17.333 35 -40 35c-14 0 -28 -7 -42 -21
h-295c-21.333 0 -36 -1.66699 -44 -5c-4.66699 -2.66699 -8 -6.16699 -10 -10.5s-3 -9.16602 -3 -14.499c0 -14.667 7.66699 -25 23 -31h-1l19 -8c17.333 -6.66699 26 -22.667 26 -48v-154h-17c-33.333 0 -50 -10.333 -50 -31c0 -17.333 9 -28 27 -32
c8.66699 -2 22 -3 40 -3v-201c0 -25.333 -8.66699 -41.333 -26 -48l-19 -8h1c-15.333 -6 -23 -16.333 -23 -31c0 -5.33301 1 -10.166 3 -14.499s5.33301 -7.83301 10 -10.5c8 -3.33301 22.667 -5 44 -5h317c14 -14 28 -21 42 -21c22.667 0 36 11.667 40 35
c0 10.667 0.833008 22.834 2.5 36.501s4.16699 28.167 7.5 43.5c1.33301 4 2.16602 7.5 2.49902 10.5s1.16602 6.16699 2.49902 9.5c1.33301 6 2.33301 10.833 3 14.5s1.66699 7.83398 3 12.501l14 44c1.33301 5.33301 2 11.666 2 18.999c0 20 -11.667 30 -35 30
c-15.333 0 -27.666 -10.667 -36.999 -32c-2.66699 -6.66699 -5.66699 -13.5 -9 -20.5s-6 -13.5 -8 -19.5c-31.333 -74 -71 -111 -119 -111s-72 30 -72 90v180c8 1.33301 14.667 2.33301 20 3s9.33301 1 12 1c23.333 0 41 -19.333 53 -58
c4.66699 -21.333 8 -32.666 10 -33.999c4.66699 -8.66699 12.667 -13 24 -13c18 0 27 9.66699 27 29c0 5.33301 -1.16699 12.666 -3.5 21.999s-5.5 20.666 -9.5 33.999c-4.66699 13.333 -8 25.5 -10 36.5s-3.33301 20.167 -4 27.5c-0.666992 2.66699 -1 5.5 -1 8.5
s-0.666992 5.16699 -2 6.5l-1.5 4.5c-0.333008 1 -0.5 3.16699 -0.5 6.5c-2.66699 22.667 -11.667 34 -27 34c-18.667 0 -28.334 -13 -29.001 -39l-58 -7v131c0 30 6 53.167 18 69.5s30 23.166 54 20.499zM364.001 837.999c16.667 0 30.834 -5.66699 42.501 -17
s17.5 -25 17.5 -41c0 -16.667 -5.83301 -30.834 -17.5 -42.501s-25.834 -17.5 -42.501 -17.5s-30.834 5.83301 -42.501 17.5s-17.5 25.834 -17.5 42.501c0 16 5.83301 29.667 17.5 41s25.834 17 42.501 17zM183.001 837.999c16.667 0 30.834 -5.66602 42.501 -16.999
s17.5 -25 17.5 -41c0 -16.667 -5.83301 -30.834 -17.5 -42.501s-25.834 -17.5 -42.501 -17.5s-30.834 5.83301 -42.501 17.5s-17.5 25.5 -17.5 41.5c0 17.333 5.83301 31.5 17.5 42.5s25.834 16.5 42.501 16.5z" />
    <glyph glyph-name="afii10053" unicode="&#x404;" horiz-adv-x="591" 
d="M512 586c-0.666992 -5.33301 -1.66602 -14.8359 -2.99902 -28.5029s-3.33301 -31.834 -6 -54.501c-0.666992 -35.333 -13 -53 -37 -53c-9.33301 0 -16.333 1.66699 -21 5c-1.33301 2 -4 8 -8 18s-7.66699 20 -11 30c-4.66699 14.667 -9.16699 28.167 -13.5 40.5
s-7.16602 20.166 -8.49902 23.499c-15.333 31.333 -39 47 -71 47c-54.667 0 -95.334 -35.667 -122.001 -107c-9.33301 -24 -16 -49.5 -20 -76.5s-6 -55.833 -6 -86.5v-3c6.66699 28 17.667 50.5 33 67.5s32.5 29.5 51.5 37.5s38.667 11.667 59 11s38.5 -5 54.5 -13
c19.333 -9.33301 32.333 -22.166 39 -38.499s6.33398 -33.5 -0.999023 -51.5c-6 -13.333 -15 -23.5 -27 -30.5s-22.333 -8.5 -31 -4.5c-1.33301 1.33301 -2.83301 3 -4.5 5s-3.16699 5 -4.5 9c-4.66699 14 -11 22.333 -19 25c-6 2.66699 -13.833 4.33398 -23.5 5.00098
s-19.834 -0.666016 -30.501 -3.99902s-21.334 -8.66602 -32.001 -15.999s-19.667 -17.666 -27 -30.999s-12.333 -29.666 -15 -48.999s-1.66699 -42.666 3 -69.999c0.666992 -2 1.66699 -4.33301 3 -7c24.667 -68.667 63.334 -103 116.001 -103
c9.33301 0 18.333 1.83301 27 5.5s16.167 8.66699 22.5 15s11.5 13.5 15.5 21.5s6 16.333 6 25c0 22.667 -12.667 41 -38 55l1 -1c-7.33301 6 -11 11.333 -11 16c0 11.333 3 21.833 9 31.5s14.667 19.167 26 28.5c22.667 16.667 46 25 70 25c34 0 62 -11 84 -33
s33 -50 33 -84c0 -60.667 -27.667 -109 -83 -145c-47.333 -32.667 -103.666 -49 -168.999 -49c-94.667 0 -168.667 33.333 -222 100c-49.333 61.333 -74 141.666 -74 240.999c0 101.333 23.333 183.333 70 246c52 70 125.667 105 221 105c10 0 21.667 -0.833008 35 -2.5
s28.666 -3.83398 45.999 -6.50098h-1c12 -2 23 -3 33 -3c1.33301 0 3 0.166992 5 0.5s4.66699 0.5 8 0.5c2 0 4.66699 0.166992 8 0.5s6.66602 0.5 9.99902 0.5c16 2 25.333 3 28 3c21.333 0 32 -11.333 32 -34c0 -2 -0.166992 -4.83301 -0.5 -8.5
s-0.833008 -7.16699 -1.5 -10.5z" />
    <glyph glyph-name="uni0406" unicode="&#x406;" horiz-adv-x="363" 
d="M112 538c0 23.333 -6.66699 38.6709 -20 46.0039l-25 10h2c-16 8.66699 -24 19 -24 31c0 5.33301 1 10.166 3 14.499s5.66699 7.83301 11 10.5c6.66699 3.33301 21 5 43 5h168c22 0 36.333 -1.66699 43 -5c8 -5.33301 12 -13.666 12 -24.999
c0 -14.667 -7.66699 -25 -23 -31h2l-12.5 -5l-12.5 -5c-7.33301 -3.33301 -12.333 -7.33301 -15 -12s-4.33398 -10.334 -5.00098 -17.001l1 -455c0.666992 -6.66699 2.33398 -12.334 5.00098 -17.001s7.66699 -8.66699 15 -12l12.5 -5l12.5 -5h-2
c15.333 -6 23 -16.333 23 -31c0 -12 -4 -20.333 -12 -25c-6.66699 -3.33301 -21 -5 -43 -5h-169c-22 0 -36.333 1.66699 -43 5c-5.33301 2.66699 -9 6.16699 -11 10.5s-3 9.16602 -3 14.499c0 12 8 22.333 24 31h-2l25 10c13.333 7.33301 20 22.666 20 45.999v421z" />
    <glyph glyph-name="afii10056" unicode="&#x407;" horiz-adv-x="363" 
d="M265 842c14.667 0 27.167 -5.16699 37.5 -15.5s15.5 -22.5 15.5 -36.5c0 -14.667 -5.16699 -27.167 -15.5 -37.5s-22.833 -15.5 -37.5 -15.5c-14 0 -26.167 5.16699 -36.5 15.5s-15.5 22.833 -15.5 37.5s5.16699 27 15.5 37s22.5 15 36.5 15zM98 842
c14 0 26.167 -5.16699 36.5 -15.5s15.5 -22.5 15.5 -36.5c0 -14.667 -5 -27.167 -15 -37.5s-22.333 -15.5 -37 -15.5s-27.167 5.16699 -37.5 15.5s-15.5 22.833 -15.5 37.5c0 14 5.16699 26.167 15.5 36.5s22.833 15.5 37.5 15.5zM260 100
c0.666992 -6.66699 2.33398 -12.3311 5.00098 -16.998s7.66699 -8.66699 15 -12l12.5 -5l12.5 -5h-2c15.333 -6 23 -16.333 23 -31c0 -12 -4 -20.333 -12 -25c-6.66699 -3.33301 -21 -5 -43 -5h-169c-22 0 -36.333 1.66699 -43 5c-5.33301 2.66699 -9 6.16699 -11 10.5
s-3 9.16602 -3 14.499c0 12 8 22.333 24 31h-2l25 10c13.333 7.33301 20 22.666 20 45.999v409c-2.66699 11.333 -10.667 20.666 -24 27.999l-39 18c-8.66699 4 -13 11.667 -13 23c0 16 10.667 25 32 27l72 8c17.333 2 34.5 5.33301 51.5 10s33.5 11 49.5 19
c24.667 11.333 42 17 52 17c7.33301 0 13.666 -2.66699 18.999 -8s8 -11.666 8 -18.999c0 -8.66699 -2.66699 -15.667 -8 -21l-31 -27l-22 -46z" />
    <glyph glyph-name="afii10062" unicode="&#x40e;" horiz-adv-x="537" 
d="M331 604l-7.99902 4.00195c-2.66699 1.33301 -5.66699 2.66602 -9 3.99902c-1.33301 1.33301 -2.33301 2 -3 2s-1.66699 0.333008 -3 1h1c-8.66699 4.66699 -13 12 -13 22c0 19.333 14 29 42 29h129c40 0 60 -30.333 60 -91c0 -18 -3.16699 -41.333 -9.5 -70
s-15.166 -60 -26.499 -94s-24.833 -69.333 -40.5 -106s-33 -71.834 -52 -105.501s-39.333 -64.667 -61 -93s-43.834 -51.166 -66.501 -68.499c-11.333 -13.333 -24.333 -23.833 -39 -31.5s-29.667 -12.334 -45 -14.001s-30.833 -0.166992 -46.5 4.5s-30.167 13 -43.5 25
c-14.667 13.333 -22.667 29.5 -24 48.5s2 37.167 10 54.5s20 32 36 44s34 18 54 18c9.33301 0.666992 18.5 0.5 27.5 -0.5s12.167 -3.5 9.5 -7.5s-4.33398 -9 -5.00098 -15s-0.666992 -11.5 0 -16.5s2 -9.5 4 -13.5s5 -6 9 -6c11.333 -1.33301 23.166 3.66699 35.499 15
s24.833 26.333 37.5 45c-31.333 19.333 -57.833 40.5 -79.5 63.5s-40.334 46.833 -56.001 71.5s-29 49.5 -40 74.5s-21.167 49.5 -30.5 73.5c-13.333 20.667 -30.333 32.667 -51 36l-19 4c-14.667 2 -22 11.667 -22 29c0 13.333 10.667 26.333 32 39
c14.667 7.33301 31.167 17.833 49.5 31.5s37.833 29.5 58.5 47.5h1c14.667 12 25.667 18 33 18c11.333 0 18.333 -3.16699 21 -9.5s3.83398 -14.666 3.50098 -24.999s-0.833008 -22.333 -1.5 -36s1 -27.834 5 -42.501c6.66699 -25.333 14.334 -49.166 23.001 -71.499
s19.5 -43.833 32.5 -64.5s28.333 -40.334 46 -59.001s39.167 -37.334 64.5 -56.001c18.667 38.667 32 76.834 40 114.501s5.66699 75.5 -7 113.5c-4.66699 14 -12 26.5 -22 37.5s-23.667 19.833 -41 26.5zM323.001 823.002
c0.666992 6.66699 8.33008 13.0059 22.9971 19.0059c10 4.66699 20.333 7 31 7c18.667 0 34.334 -5.5 47.001 -16.5s19 -25.167 19 -42.5c0 -18.667 -5.16699 -33.834 -15.5 -45.501s-23.166 -20.667 -38.499 -27s-32 -10.5 -50 -12.5s-34.667 -3 -50 -3
c-17.333 0 -34.666 1.5 -51.999 4.5s-32.833 7.66699 -46.5 14s-24.834 15.166 -33.501 26.499s-13 25.666 -13 42.999s6.33301 31.5 19 42.5s28.334 16.5 47.001 16.5c10.667 0 21 -2.33301 31 -7c14.667 -6 22.334 -12.333 23.001 -19c-2 -2 -5 -4.33301 -9 -7
c-8.66699 -6.66699 -13 -15.667 -13 -27c0 -13.333 5.16699 -22.833 15.5 -28.5s22.166 -8.83398 35.499 -9.50098c16 -0.666992 28.667 3.16602 38 11.499s14 17.166 14 26.499c0 11.333 -4.33301 20.333 -13 27c-4 2.66699 -7 5 -9 7z" />
    <glyph glyph-name="afii10017" unicode="&#x410;" horiz-adv-x="629" 
d="M71 287c-18.667 -1.33301 -32.9951 3.16699 -42.9951 13.5s-15.5 23 -16.5 38s2.33301 30.167 10 45.5s20.167 27 37.5 35c18.667 9.33301 39.167 14.833 61.5 16.5s45.166 -0.166016 68.499 -5.49902c18 31.333 32.167 58.166 42.5 80.499s11.166 39.166 2.49902 50.499
c-2.66699 11.333 -10.334 20.666 -23.001 27.999l-39 18c-9.33301 4 -14 11.667 -14 23c0 16 10.667 25 32 27l351 1c22 0 36.333 -1.66699 43 -5c5.33301 -2.66699 9 -6.16699 11 -10.5s3 -9.16602 3 -14.499c0 -12 -8 -22.333 -24 -31h2l-25 -10
c-13.333 -7.33301 -20 -22.666 -20 -45.999l1 -441c0.666992 -14.667 7.33398 -24.667 20.001 -30c2.66699 -1.33301 6.5 -2.83301 11.5 -4.5s9.16699 -3.16699 12.5 -4.5c5.33301 -3.33301 10.333 -7.83301 15 -13.5s7 -11.5 7 -17.5c0 -12 -4.66699 -20.333 -14 -25
c-3.33301 -1.33301 -8.33301 -2.5 -15 -3.5s-16 -1.5 -28 -1.5h-168c-22 0 -36.333 1.66699 -43 5c-4.66699 2.66699 -8 6.16699 -10 10.5s-3 9.16602 -3 14.499c0 14.667 7.33301 25 22 31h-1l20 8c17.333 7.33301 26 23.333 26 48v26c-4 28 -11.167 52.5 -21.5 73.5
s-22.833 39 -37.5 54s-30.834 27.167 -48.501 36.5s-35.167 16.666 -52.5 21.999c-7.33301 -28 -12.5 -55.667 -15.5 -83s-3.5 -52.833 -1.5 -76.5s6.66699 -44.667 14 -63s17.666 -32.833 30.999 -43.5c14 -12 21 -22.333 21 -31c0 -21.333 -14.667 -32 -44 -32h-109
c-16.667 0 -29 1.66699 -37 5h1c-13.333 7.33301 -20 21 -20 41c-0.666992 28 1.16602 55.333 5.49902 82s10 52.334 17 77.001s15.167 48.334 24.5 71.001s19 44 29 64c-22 -2 -35.667 -6.66699 -41 -14c-6 0 -12.5 -3.5 -19.5 -10.5s-9.83301 -16.5 -8.5 -28.5z
M384.005 496c-2 28 -6.50098 46.332 -13.501 54.999s-15.833 11 -26.5 7c-10 -3.33301 -18.667 -10.666 -26 -21.999l-22 -34c-9.33301 -14.667 -17.666 -29.667 -24.999 -45s-14.333 -31 -21 -47c32 -14 60 -33.5 84 -58.5s40.667 -54.5 50 -88.5v233z" />
    <glyph glyph-name="afii10018" unicode="&#x411;" horiz-adv-x="570" 
d="M254 71h26c72.667 0 109 44.667 109 134c0 84 -37.667 126 -113 126h-22v-260zM254 399h18.001c38.667 0.666992 74.667 -3.5 108 -12.5s62.166 -22.167 86.499 -39.5s43.333 -38.5 57 -63.5s20.5 -53.167 20.5 -84.5c0 -32 -7 -61 -21 -87s-33.667 -48 -59 -66
c-47.333 -30.667 -106 -46 -176 -46h-190c-21.333 0 -36 1.66699 -44 5c-4.66699 2.66699 -8 6.16699 -10 10.5s-3 9.16602 -3 14.499c0 14.667 7.66699 25 23 31h-1l19 8c17.333 6.66699 26 22.667 26 48v214c-11.333 0 -17.333 0.333008 -18 1
c-28.667 4 -43 15.333 -43 34c0 22 20.333 33.667 61 35v137c0 11.333 -1.5 21.5 -4.5 30.5s-7.83301 15.167 -14.5 18.5l-25 10h2c-16 8.66699 -24 19 -24 31c0 5.33301 1 10.166 3 14.499s5.33301 7.83301 10 10.5c6.66699 3.33301 21.334 5 44.001 5h303
c12 12 23.667 18 35 18c27.333 0 42.666 -21.667 45.999 -65c2 -19.333 4.33301 -37.666 7 -54.999s6.66699 -33.666 12 -48.999l12 -38c1.33301 -6.66699 2 -12.667 2 -18c0 -8.66699 -3.33301 -16.167 -10 -22.5s-15 -9.5 -25 -9.5c-14.667 0 -27.334 10.667 -38.001 32
c-2.66699 5.33301 -5.66699 11.833 -9 19.5s-6 14.167 -8 19.5c-8.66699 20 -18 38.5 -28 55.5s-20.833 30.5 -32.5 40.5s-24.167 15.833 -37.5 17.5s-27.666 -2.83301 -42.999 -13.5c-10.667 -7.33301 -18.5 -18.333 -23.5 -33s-7.5 -35 -7.5 -61v-97z" />
    <glyph glyph-name="afii10019" unicode="&#x412;" horiz-adv-x="570" 
d="M254 401h18c58.667 0 88 40 88 120c0 69.333 -18.667 104 -56 104c-18.667 0 -31.667 -7.5 -39 -22.5s-11 -41.167 -11 -78.5v-123zM254 71h26c72.667 0 109 44.667 109 134c0 84 -37.667 126 -113 126h-22v-260zM108 511c0 8.66699 -2 16.332 -6 22.999
s-8.66699 12.5 -14 17.5s-10.5 8.83301 -15.5 11.5s-8.5 4.33398 -10.5 5.00098v-1c-19.333 7.33301 -29 17.333 -29 30c0 13.333 6 22 18 26c3.33301 1.33301 8.83301 2.33301 16.5 3s17.5 1.33398 29.5 2.00098c42 2 88.667 13.333 140 34
c20 7.33301 38.333 13.166 55 17.499s31.667 6.5 45 6.5c47.333 0 87 -16 119 -48c31.333 -30.667 47 -69.334 47 -116.001c0 -25.333 -7.33301 -51.666 -22 -78.999s-32.667 -51.666 -54 -72.999c18 -8 32 -15.167 42 -21.5s17.333 -11.833 22 -16.5
c17.333 -16 30.5 -35.333 39.5 -58s13.5 -47.667 13.5 -75c0 -32 -7 -61 -21 -87s-33.667 -48 -59 -66c-47.333 -30.667 -106 -46 -176 -46h-190c-21.333 0 -36 1.66699 -44 5c-4.66699 2.66699 -8 6.16699 -10 10.5s-3 9.16602 -3 14.499c0 14.667 7.66699 25 23 31h-1
l19 8c17.333 6.66699 26 22.667 26 48v214c-11.333 0 -17.333 0.333008 -18 1c-28.667 4 -43 15.333 -43 34c0 22 20.333 33.667 61 35v110z" />
    <glyph glyph-name="afii10020" unicode="&#x413;" horiz-adv-x="555" 
d="M250 103c0.666992 -6.66699 2.33398 -12.832 5.00098 -18.499s7.66699 -10.167 15 -13.5l12.5 -5l12.5 -5h-2c15.333 -6 23 -16.333 23 -31c0 -12 -4 -20.333 -12 -25c-6.66699 -3.33301 -21 -5 -43 -5h-169c-22 0 -36.333 1.66699 -43 5
c-5.33301 2.66699 -9 6.16699 -11 10.5s-3 9.16602 -3 14.499c0 12 8 22.333 24 31h-2l25 10c13.333 7.33301 20 22.666 20 45.999l1 424c0 23.333 -6.66699 38.666 -20 45.999l-25 10h2c-16 8.66699 -24 19 -24 31c0 5.33301 1 10.166 3 14.499s5.33301 7.83301 10 10.5
c6.66699 3.33301 21.334 5 44.001 5h335c12 12 23.667 18 35 18c27.333 0 42.666 -21.667 45.999 -65c2 -19.333 4.33301 -37.666 7 -54.999s6.66699 -33.666 12 -48.999l12 -38c1.33301 -6.66699 2 -12.667 2 -18c0 -8.66699 -3.33301 -16.167 -10 -22.5s-15 -9.5 -25 -9.5
c-14.667 0 -27.334 10.667 -38.001 32c-2.66699 5.33301 -5.66699 11.833 -9 19.5s-6 14.167 -8 19.5c-24.667 56.667 -51.667 91.334 -81 104.001c-11.333 5.33301 -24 8 -38 8c-30 0 -51.333 -9.16699 -64 -27.5s-19 -48.833 -19 -91.5v-380z" />
    <glyph glyph-name="afii10021" unicode="&#x414;" horiz-adv-x="615" 
d="M527 658c22 0 36.3271 -1.66797 42.9941 -5.00098c5.33301 -2.66699 9 -6.16699 11 -10.5s3 -9.16602 3 -14.499c0 -12 -8 -22.333 -24 -31h2l-25 -10c-13.333 -7.33301 -20 -22.666 -20 -45.999l1 -468h62c10.667 -0.666992 17.834 -3.5 21.501 -8.5
s5.5 -10.667 5.5 -17s-1.5 -12.5 -4.5 -18.5s-6.16699 -10.333 -9.5 -13l-34 -30.5c-12.667 -11.667 -22.334 -24.5 -29.001 -38.5c-4.66699 -9.33301 -7.16699 -20.666 -7.5 -33.999s4.83398 -23 15.501 -29c9.33301 -5.33301 15.666 -11.333 18.999 -18s4 -12.667 2 -18
s-6.5 -9.5 -13.5 -12.5s-16.167 -3.83301 -27.5 -2.5c-11.333 2 -20.166 6 -26.499 12s-11.333 13 -15 21s-6.16699 16.667 -7.5 26s-2 19 -2 29c0 8.66699 -0.666992 17.834 -2 27.501s-5.66602 18.5 -12.999 26.5s-19.166 14.333 -35.499 19s-39.5 6.66699 -69.5 6h-112
c-26 -2 -45.5 -5.16699 -58.5 -9.5s-22.167 -9.5 -27.5 -15.5s-8 -12.667 -8 -20v-23c0 -10 -0.666992 -20.167 -2 -30.5s-4 -19.833 -8 -28.5s-9.5 -16.167 -16.5 -22.5s-16.5 -10.833 -28.5 -13.5c-11.333 -1.33301 -20.666 -0.5 -27.999 2.5s-12 7.16699 -14 12.5
s-1.16699 11.333 2.5 18s10.167 12.667 19.5 18c10.667 6 15.834 15.667 15.501 29s-2.83301 24.666 -7.5 33.999c-6.66699 14 -16.334 26.833 -29.001 38.5l-34 30.5c-3.33301 2.66699 -6.5 7 -9.5 13s-4.5 12.167 -4.5 18.5s1.83301 12 5.5 17s10.834 7.83301 21.501 8.5
h52c19.333 30 37 66.167 53 108.5s29.333 86.166 40 131.499c4.66699 22 9.33398 46.667 14.001 74s8 54 10 80s2.16699 49.5 0.5 70.5s-6.5 35.833 -14.5 44.5l-25 10h2c-16 8.66699 -24 19 -24 31c0 5.33301 1 10.166 3 14.499s5.66699 7.83301 11 10.5
c6.66699 3.33301 21 5 43 5zM369.994 499.999c-1.33301 18 -4.33496 32.166 -9.00195 42.499s-10.334 18.166 -17.001 23.499s-13.5 8.33301 -20.5 9s-13.167 0 -18.5 -2s-9.66602 -4.33301 -12.999 -7s-6.16602 -6.66699 -8.49902 -12s-4.33301 -12.5 -6 -21.5
s-3.16699 -20.5 -4.5 -34.5c-2 -26 -5.66699 -58.167 -11 -96.5s-12.166 -77.666 -20.499 -117.999s-18.833 -79.666 -31.5 -117.999s-27.667 -70.5 -45 -96.5h205v431z" />
    <glyph glyph-name="afii10022" unicode="&#x415;" horiz-adv-x="558" 
d="M326 604c-24 2.66699 -42.001 -4.16504 -54.001 -20.498s-18 -39.5 -18 -69.5v-131l58 7c0.666992 26 10.334 39 29.001 39c15.333 0 24.333 -11.333 27 -34c0 -3.33301 0.166992 -5.5 0.5 -6.5l1.5 -4.5c1.33301 -1.33301 2 -3.5 2 -6.5s0.333008 -5.83301 1 -8.5
c0.666992 -7.33301 2 -16.5 4 -27.5s5.33301 -23.167 10 -36.5c4 -13.333 7.16699 -24.666 9.5 -33.999s3.5 -16.666 3.5 -21.999c0 -19.333 -9 -29 -27 -29c-11.333 0 -19.333 4.33301 -24 13c-2 1.33301 -5.33301 12.666 -10 33.999c-12 38.667 -29.667 58 -53 58
c-2.66699 0 -6.66699 -0.333008 -12 -1s-12 -1.66699 -20 -3v-180c0 -60 24 -90 72 -90s87.667 37 119 111c2 6 4.66699 12.5 8 19.5s6.33301 13.833 9 20.5c9.33301 21.333 21.666 32 36.999 32c23.333 0 35 -10 35 -30c0 -7.33301 -0.666992 -13.666 -2 -18.999l-14 -44
c-1.33301 -4.66699 -2.33301 -8.83398 -3 -12.501s-1.66699 -8.5 -3 -14.5c-1.33301 -3.33301 -2.16602 -6.5 -2.49902 -9.5s-1.16602 -6.5 -2.49902 -10.5c-3.33301 -15.333 -5.83301 -29.833 -7.5 -43.5s-2.5 -25.834 -2.5 -36.501c-4 -23.333 -17.333 -35 -40 -35
c-14 0 -28 7 -42 21h-317c-21.333 0 -36 1.66699 -44 5c-4.66699 2.66699 -8 6.16699 -10 10.5s-3 9.16602 -3 14.499c0 14.667 7.66699 25 23 31h-1l19 8c17.333 6.66699 26 22.667 26 48v201c-18 0 -31.333 1 -40 3c-18 4 -27 14.667 -27 32c0 20.667 16.667 31 50 31h17
v154c0 25.333 -8.66699 41.333 -26 48l-19 8h1c-15.333 6 -23 16.333 -23 31c0 5.33301 1 10.166 3 14.499s5.33301 7.83301 10 10.5c8 3.33301 22.667 5 44 5h295c14 14 28 21 42 21c22.667 0 36 -11.667 40 -35c0 -10.667 0.833008 -22.834 2.5 -36.501
s4.16699 -28.167 7.5 -43.5c1.33301 -4 2.16602 -7.5 2.49902 -10.5s1.16602 -6.16699 2.49902 -9.5c1.33301 -6 2.33301 -10.833 3 -14.5s1.66699 -7.83398 3 -12.501l14 -44c1.33301 -5.33301 2 -11.666 2 -18.999c0 -20 -11.667 -30 -35 -30
c-15.333 0 -27.666 10.667 -36.999 32c-2.66699 6.66699 -5.66699 13.5 -9 20.5s-6 13.5 -8 19.5c-15.333 36.667 -30.833 63.834 -46.5 81.501s-32.5 27.5 -50.5 29.5z" />
    <glyph glyph-name="afii10024" unicode="&#x416;" horiz-adv-x="909" 
d="M379 0c-22 0 -36.3408 1.66699 -43.0078 5c-8.66699 4.66699 -13 13 -13 25c0 14.667 7.66699 25 23 31h-1l11.5 4.5l11.5 4.5c13.333 7.33301 20.333 17.666 21 30.999v247c-22 -2 -41.667 -7.66699 -59 -17s-33 -22 -47 -38c-42.667 -49.333 -64 -104 -64 -164
c0 -28 8.66699 -47.667 26 -59l22 -14c7.33301 -5.33301 11 -12.666 11 -21.999c0 -10 -4.16699 -18.167 -12.5 -24.5s-18.166 -9.5 -29.499 -9.5h-187c-18 -0 -27 11.333 -27 34c0 12 3.66699 35.333 11 70c15.333 66 42.833 125.167 82.5 177.5s91.834 97.5 156.501 135.5
c-16 12 -30.5 24.667 -43.5 38s-24.5 28 -34.5 44l-10 17.5l-10 16.5c-13.333 22 -25.333 39 -36 51c-3.33301 2.66699 -7.33301 5.5 -12 8.5l-13 8.5l-20.5 14c-5.66699 4 -9.16699 7.33301 -10.5 10c-1.33301 4 -2 7.66699 -2 11c0 20 15.333 30 46 30h112
c26.667 0 40.667 -13 42 -39c0 -4.66699 0.166992 -9.5 0.5 -14.5s0.5 -9.83301 0.5 -14.5c0.666992 -19.333 2.83398 -38 6.50098 -56s8.83398 -35.667 15.501 -53v1c18.667 -50.667 47.334 -76.334 86.001 -77.001v142c-0.666992 13.333 -7.66699 23.666 -21 30.999
l-11.5 4.5l-11.5 4.5h1c-15.333 6 -23 16.333 -23 31c0 12 4.33301 20.333 13 25c6.66699 3.33301 21 5 43 5h161c22 0 36.333 -1.66699 43 -5c8.66699 -4.66699 13 -13 13 -25c0 -14.667 -7.66699 -25 -23 -31h1l-11.5 -4.5l-11.5 -4.5
c-13.333 -7.33301 -20.333 -17.666 -21 -30.999l-1 -142c39.333 0.666992 68.333 26.334 87 77.001v-1c6.66699 17.333 11.834 35 15.501 53s5.83398 36.667 6.50098 56c0 4.66699 0.166992 9.5 0.5 14.5s0.5 9.83301 0.5 14.5c0.666992 26 14.667 39 42 39h112
c30.667 0 46 -10 46 -30c0 -3.33301 -0.666992 -7 -2 -11c-1.33301 -2.66699 -4.83301 -6 -10.5 -10l-20.5 -14l-13 -8.5c-4.66699 -3 -8.66699 -5.83301 -12 -8.5c-10.667 -12 -22.667 -29 -36 -51l-10 -16.5l-10 -17.5c-10 -16 -21.5 -30.667 -34.5 -44
s-27.5 -26 -43.5 -38c64.667 -38 116.834 -83.167 156.501 -135.5s67.167 -111.5 82.5 -177.5c7.33301 -34.667 11 -58 11 -70c0 -22.667 -9 -34 -27 -34h-187c-11.333 0 -21.166 3.16699 -29.499 9.5s-12.5 14.5 -12.5 24.5c0 9.33301 3.66699 16.666 11 21.999l22 14
c17.333 11.333 26 31 26 59c0 60 -21.333 114.667 -64 164c-28.667 32.667 -64.334 51 -107.001 55l1 -247c0.666992 -13.333 7.66699 -23.666 21 -30.999l11.5 -4.5l11.5 -4.5h-1c15.333 -6 23 -16.333 23 -31c0 -12 -4.33301 -20.333 -13 -25
c-6.66699 -3.33301 -21 -5 -43 -5h-161z" />
    <glyph glyph-name="afii10025" unicode="&#x417;" horiz-adv-x="549" 
d="M262 -6c-30 0 -59.168 3.6709 -87.501 11.0039s-53.833 18.666 -76.5 33.999c-51.333 33.333 -77 77.666 -77 132.999c0 31.333 10.167 57.166 30.5 77.499s46.5 30.5 78.5 30.5c22 0 43.667 -7.66699 65 -23c10 -8.66699 17.833 -17.334 23.5 -26.001
s8.5 -18.334 8.5 -29.001c0 -4.66699 -3.33301 -9.66699 -10 -15l1 1c-23.333 -12.667 -35 -31.334 -35 -56.001c0 -12.667 3.16699 -23.667 9.5 -33s14.5 -16.833 24.5 -22.5s20.833 -9.66699 32.5 -12s22.834 -2.83301 33.501 -1.5c20.667 2.66699 37.834 9 51.501 19
s24.667 22 33 36s13.833 29.667 16.5 47s3.33398 35 2.00098 53c-2.66699 24.667 -7.16699 46.167 -13.5 64.5s-16 33.166 -29 44.499s-29.5 19.5 -49.5 24.5s-44.667 7.16699 -74 6.5c-9.33301 0 -16.5 3 -21.5 9s-7.66699 12.5 -8 19.5s1.66699 13.5 6 19.5
s11.166 9 20.499 9c24.667 0 43.667 0.5 57 1.5s23.5 2.66699 30.5 5s11.667 5.16602 14 8.49902s5.16602 7 8.49902 11c7.33301 10 12.666 22.333 15.999 37s4.33301 30 3 46c-1.33301 26.667 -7.5 48.667 -18.5 66s-31.167 26 -60.5 26
c-23.333 0 -42.833 -9.66699 -58.5 -29s-26.5 -46.666 -32.5 -81.999c-6 -43.333 -18.667 -65 -38 -65c-10 0 -19 5 -27 15c-3.33301 4.66699 -6.66602 21 -9.99902 49c0 1.33301 -0.166992 4.33301 -0.5 9s-0.833008 9.66699 -1.5 15
c-1.33301 6.66699 -2.33301 15.667 -3 27c-2 11.333 -3.33301 21.5 -4 30.5s-1.66699 17.167 -3 24.5c-0.666992 2.66699 -1.16699 6 -1.5 10s-0.833008 7.66699 -1.5 11s-1 5.83301 -1 7.5s0 1.5 0 -0.5c1.33301 14 10.666 21 27.999 21l22 -3
c1.33301 -0.666992 3.16602 -1 5.49902 -1h6.5c6.66699 0 13.334 0.333008 20.001 1s13.667 2 21 4c4.66699 0.666992 9.16699 1.66699 13.5 3s8.83301 2.33301 13.5 3c17.333 4.66699 33 8 47 10s25.667 3 35 3c28 0 53.833 -5.33301 77.5 -16s43.5 -24.5 59.5 -41.5
s27.833 -36.167 35.5 -57.5s9.33398 -42.666 5.00098 -63.999s-15 -41.666 -32 -60.999s-41.5 -35.666 -73.5 -48.999c48 -12.667 86 -33.167 114 -61.5s42 -67.833 42 -118.5c0 -64.667 -26.667 -117 -80 -157c-25.333 -20 -53.333 -34.833 -84 -44.5
s-63.667 -14.5 -99 -14.5z" />
    <glyph glyph-name="afii10026" unicode="&#x418;" horiz-adv-x="671" 
d="M256 100c0.666992 -6.66699 2.33398 -12.3271 5.00098 -16.9941s7.33398 -8.66699 14.001 -12l12.5 -5l12.5 -5h-1c14.667 -6 22 -16.333 22 -31c0 -9.33301 -3.66699 -17.666 -11 -24.999c-8 -3.33301 -22.667 -5 -44 -5h-169c-22 0 -36.333 1.66699 -43 5
c-9.33301 5.33301 -14 13.666 -14 24.999s8 21.666 24 30.999h-2l26 10c12.667 7.33301 19 22.666 19 45.999l-1 421c0 23.333 -6.33301 38.666 -19 45.999l-26 10h2c-16 8.66699 -24 19 -24 31c0 11.333 4.66699 19.666 14 24.999c6.66699 3.33301 21 5 43 5h169
c21.333 0 36 -1.66699 44 -5c3.33301 -3.33301 6 -7.16602 8 -11.499s3 -8.83301 3 -13.5c0 -14.667 -7.33301 -25 -22 -31h1l-12.5 -5l-12.5 -5c-6.66699 -3.33301 -11.334 -7.33301 -14.001 -12s-4.33398 -10.334 -5.00098 -17.001v-319l181 310
c-2 20.667 -10.667 34 -26 40l-20 8h1c-14.667 6 -22 16.333 -22 31c0 5.33301 1 10.166 3 14.499s5.33301 7.83301 10 10.5c6.66699 3.33301 21 5 43 5h168c12 0 21.333 -0.5 28 -1.5s11.667 -2.16699 15 -3.5c9.33301 -4.66699 14 -13 14 -25
c0 -6 -2.33301 -11.833 -7 -17.5s-9.66699 -10.167 -15 -13.5c-3.33301 -1.33301 -7.5 -2.83301 -12.5 -4.5s-8.83301 -3.16699 -11.5 -4.5c-12.667 -5.33301 -19.334 -15.333 -20.001 -30l1 -455c0.666992 -14.667 7.33398 -24.667 20.001 -30
c2.66699 -1.33301 6.5 -2.83301 11.5 -4.5s9.16699 -3.16699 12.5 -4.5c5.33301 -3.33301 10.333 -7.83301 15 -13.5s7 -11.5 7 -17.5c0 -12 -4.66699 -20.333 -14 -25c-3.33301 -1.33301 -8.33301 -2.5 -15 -3.5s-16 -1.5 -28 -1.5h-168c-22 0 -36.333 1.66699 -43 5
c-4.66699 2.66699 -8 6.16699 -10 10.5s-3 9.16602 -3 14.499c0 14.667 7.33301 25 22 31h-1l20 8c17.333 7.33301 26 23.333 26 48v306l-181 -316v-7z" />
    <glyph glyph-name="afii10027" unicode="&#x419;" horiz-adv-x="671" 
d="M256 100c0.666992 -6.66699 2.33398 -12.3271 5.00098 -16.9941s7.33398 -8.66699 14.001 -12l12.5 -5l12.5 -5h-1c14.667 -6 22 -16.333 22 -31c0 -9.33301 -3.66699 -17.666 -11 -24.999c-8 -3.33301 -22.667 -5 -44 -5h-169c-22 0 -36.333 1.66699 -43 5
c-9.33301 5.33301 -14 13.666 -14 24.999s8 21.666 24 30.999h-2l26 10c12.667 7.33301 19 22.666 19 45.999l-1 421c0 23.333 -6.33301 38.666 -19 45.999l-26 10h2c-16 8.66699 -24 19 -24 31c0 11.333 4.66699 19.666 14 24.999c6.66699 3.33301 21 5 43 5h169
c21.333 0 36 -1.66699 44 -5c3.33301 -3.33301 6 -7.16602 8 -11.499s3 -8.83301 3 -13.5c0 -14.667 -7.33301 -25 -22 -31h1l-12.5 -5l-12.5 -5c-6.66699 -3.33301 -11.334 -7.33301 -14.001 -12s-4.33398 -10.334 -5.00098 -17.001v-319l181 310
c-2 20.667 -10.667 34 -26 40l-20 8h1c-14.667 6 -22 16.333 -22 31c0 5.33301 1 10.166 3 14.499s5.33301 7.83301 10 10.5c6.66699 3.33301 21 5 43 5h168c12 0 21.333 -0.5 28 -1.5s11.667 -2.16699 15 -3.5c9.33301 -4.66699 14 -13 14 -25
c0 -6 -2.33301 -11.833 -7 -17.5s-9.66699 -10.167 -15 -13.5c-3.33301 -1.33301 -7.5 -2.83301 -12.5 -4.5s-8.83301 -3.16699 -11.5 -4.5c-12.667 -5.33301 -19.334 -15.333 -20.001 -30l1 -455c0.666992 -14.667 7.33398 -24.667 20.001 -30
c2.66699 -1.33301 6.5 -2.83301 11.5 -4.5s9.16699 -3.16699 12.5 -4.5c5.33301 -3.33301 10.333 -7.83301 15 -13.5s7 -11.5 7 -17.5c0 -12 -4.66699 -20.333 -14 -25c-3.33301 -1.33301 -8.33301 -2.5 -15 -3.5s-16 -1.5 -28 -1.5h-168c-22 0 -36.333 1.66699 -43 5
c-4.66699 2.66699 -8 6.16699 -10 10.5s-3 9.16602 -3 14.499c0 14.667 7.33301 25 22 31h-1l20 8c17.333 7.33301 26 23.333 26 48v306l-181 -316v-7zM379 817.007c0.666992 6.66699 8.33008 13.0059 22.9971 19.0059c10 4.66699 20.333 7 31 7
c18.667 0 34.334 -5.5 47.001 -16.5s19 -25.167 19 -42.5c0 -18.667 -5.16699 -33.834 -15.5 -45.501s-23.166 -20.667 -38.499 -27s-32 -10.5 -50 -12.5s-34.667 -3 -50 -3c-17.333 0 -34.666 1.5 -51.999 4.5s-32.833 7.66699 -46.5 14s-24.834 15.166 -33.501 26.499
s-13 25.666 -13 42.999s6.33301 31.5 19 42.5s28.334 16.5 47.001 16.5c10.667 0 21 -2.33301 31 -7c14.667 -6 22.334 -12.333 23.001 -19c-2 -2 -5 -4.33301 -9 -7c-8.66699 -6.66699 -13 -15.667 -13 -27c0 -13.333 5.16699 -22.833 15.5 -28.5
s22.166 -8.83398 35.499 -9.50098c16 -0.666992 28.667 3.16602 38 11.499s14 17.166 14 26.499c0 11.333 -4.33301 20.333 -13 27c-4 2.66699 -7 5 -9 7z" />
    <glyph glyph-name="afii10028" unicode="&#x41a;" horiz-adv-x="635" 
d="M255 413c39.333 0.666992 68.3291 26.3359 86.9961 77.0029v-1c6.66699 17.333 11.834 35 15.501 53s5.83398 36.667 6.50098 56c0 4.66699 0.166992 9.5 0.5 14.5s0.5 9.83301 0.5 14.5c0.666992 26 14.667 39 42 39h112c30.667 0 46 -10 46 -30
c0 -3.33301 -0.666992 -7 -2 -11c-1.33301 -2.66699 -4.83301 -6 -10.5 -10l-20.5 -14l-13 -8.5c-4.66699 -3 -8.66699 -5.83301 -12 -8.5c-10.667 -12 -22.667 -29 -36 -51l-10 -16.5l-10 -17.5c-10 -16 -21.5 -30.667 -34.5 -44s-27.5 -26 -43.5 -38
c64.667 -38 116.834 -83.167 156.501 -135.5s67.167 -111.5 82.5 -177.5c7.33301 -34.667 11 -58 11 -70c0 -22.667 -9 -34 -27 -34h-187c-11.333 0 -21.166 3.16699 -29.499 9.5s-12.5 14.5 -12.5 24.5c0 9.33301 3.66699 16.666 11 21.999l22 14
c17.333 11.333 26 31 26 59c0 60 -21.333 114.667 -64 164c-28.667 32.667 -64.334 51 -107.001 55l1 -247c0.666992 -13.333 7.66699 -23.666 21 -30.999l11.5 -4.5l11.5 -4.5h-1c15.333 -6 23 -16.333 23 -31c0 -12 -4.33301 -20.333 -13 -25
c-6.66699 -3.33301 -21 -5 -43 -5h-169c-22 0 -36.333 1.66699 -43 5c-4.66699 2.66699 -8 6.16699 -10 10.5s-3 9.16602 -3 14.499c0 12 7.66699 22.333 23 31h-2l26 10c13.333 7.33301 20 22.666 20 45.999v229c-22.667 2 -35.667 3.66699 -39 5
c-12.667 4 -19 14.333 -19 31c0 8.66699 3.5 16.167 10.5 22.5s15.167 9.5 24.5 9.5c2.66699 0 5.33398 -0.333008 8.00098 -1s7.66699 -2.66699 15 -6v132c0 23.333 -6.66699 38.666 -20 45.999l-26 10h2c-15.333 8.66699 -23 19 -23 31c0 5.33301 1 10.166 3 14.499
s5.33301 7.83301 10 10.5c6.66699 3.33301 21 5 43 5h169c22 0 36.333 -1.66699 43 -5c8.66699 -4.66699 13 -13 13 -25c0 -14.667 -7.66699 -25 -23 -31h1l-11.5 -4.5l-11.5 -4.5c-13.333 -7.33301 -20.333 -17.666 -21 -30.999z" />
    <glyph glyph-name="afii10029" unicode="&#x41b;" horiz-adv-x="628" 
d="M536 100c0.666992 -6.66699 2.33008 -12.3291 4.99707 -16.9961s7.66699 -8.66699 15 -12l12.5 -5l12.5 -5h-2c15.333 -6 23 -16.333 23 -31c0 -12 -4 -20.333 -12 -25c-6.66699 -3.33301 -21 -5 -43 -5h-169c-22 0 -36.333 1.66699 -43 5
c-5.33301 2.66699 -9 6.16699 -11 10.5s-3 9.16602 -3 14.499c0 12 8 22.333 24 31h-2l25 10c13.333 7.33301 20 22.666 20 45.999v383c-1.33301 18 -4.33301 32.167 -9 42.5s-10.334 18.166 -17.001 23.499s-13.5 8.33301 -20.5 9s-13.167 0 -18.5 -2
s-9.66602 -4.33301 -12.999 -7s-6.16602 -6.66699 -8.49902 -12s-4.33301 -12.5 -6 -21.5s-3.16699 -20.5 -4.5 -34.5c-2 -26 -4.66699 -57.667 -8 -95s-8.33301 -75.833 -15 -115.5s-15.334 -78.167 -26.001 -115.5s-24.667 -69 -42 -95
c-7.33301 -15.333 -16.833 -28.5 -28.5 -39.5s-24.5 -20.5 -38.5 -28.5c-14.667 -6 -30.5 -8.66699 -47.5 -8s-33.167 4.66699 -48.5 12c-18 8.66699 -30.667 22.167 -38 40.5s-9.83301 37 -7.5 56s9 36.667 20 53s26.167 27.166 45.5 32.499
c9.33301 3.33301 18.5 5.83301 27.5 7.5s12.833 0.166992 11.5 -4.5s-1.66602 -9.83398 -0.999023 -15.501s2 -10.834 4 -15.501s4.5 -8.5 7.5 -11.5s6.16699 -3.83301 9.5 -2.5c10.667 2.66699 20.334 10.5 29.001 23.5s16.5 29.333 23.5 49s13.167 41.5 18.5 65.5
s9.83301 47.833 13.5 71.5s6.66699 46.5 9 68.5s3.83301 40.667 4.5 56c1.33301 22.667 0.833008 42.834 -1.5 60.501s-7.16602 30.5 -14.499 38.5l-25 10h2c-16 8.66699 -24 19 -24 31c0 5.33301 1 10.166 3 14.499s5.66699 7.83301 11 10.5c6.66699 3.33301 21 5 43 5
l337 1c22 0 36.333 -1.66699 43 -5c5.33301 -2.66699 9 -6.16699 11 -10.5s3 -9.16602 3 -14.499c0 -12 -8 -22.333 -24 -31h2l-25 -10c-13.333 -7.33301 -20 -22.666 -20 -45.999z" />
    <glyph glyph-name="afii10030" unicode="&#x41c;" horiz-adv-x="761" 
d="M510 533c-20 -28 -37.335 -57.002 -52.002 -87.002s-27.667 -61.667 -39 -95c-9.33301 -30.667 -17.166 -60 -23.499 -88s-10.833 -54.667 -13.5 -80c-1.33301 -17.333 -12 -26 -32 -26c-12 0 -19.833 2.16699 -23.5 6.5s-6.16699 12.5 -7.5 24.5
c-4 48 -14 99.667 -30 155c-9.33301 34.667 -22.166 68.5 -38.499 101.5s-35.166 65.5 -56.499 97.5l1 -441c0 -12.667 6.33301 -22.667 19 -30l12.5 -5l12.5 -5h-1c15.333 -6 23 -16.333 23 -31c0 -4.66699 -1.16699 -9.16699 -3.5 -13.5
s-5.16602 -8.16602 -8.49902 -11.499c-8 -3.33301 -22.667 -5 -44 -5h-106c-22 0 -36.333 1.66699 -43 5c-5.33301 2.66699 -9 6.16699 -11 10.5s-3 9.16602 -3 14.499c0 11.333 8 21.666 24 30.999h-2l26 10c12.667 7.33301 19 22.666 19 45.999v395
c-3.33301 10.667 -8.33301 20 -15 28s-15.334 13.667 -26.001 17c-11.333 3.33301 -20.5 7.83301 -27.5 13.5s-10.5 12.167 -10.5 19.5c0 12 7.33301 21 22 27l-1 -1l18 5c7.33301 2.66699 15.666 6 24.999 10l31 13c3.33301 1.33301 7.5 3.33301 12.5 6
s11.167 5.33398 18.5 8.00098l30 19c4.66699 2.66699 9 4.83398 13 6.50098s8 2.5 12 2.5c6.66699 0 13.334 -1.33301 20.001 -4s12.667 -6 18 -10c15.333 -13.333 33 -36.333 53 -69s40 -72 60 -118l18 -42c20.667 41.333 40.834 76.833 60.501 106.5s40 53.834 61 72.501
s42.667 32.334 65 41.001s46.5 13 72.5 13c61.333 0 92 -12.667 92 -38c0 -10 -4.66699 -17.667 -14 -23h1l-16 -9c-9.33301 -5.33301 -17.5 -12.5 -24.5 -21.5s-12.167 -19.167 -15.5 -30.5c-1.33301 -7.33301 -2.5 -16 -3.5 -26s-1.5 -22.333 -1.5 -37l1 -391
c0.666992 -14 8 -24 22 -30l11 -4.5l11 -4.5h-1c15.333 -6 23 -16.333 23 -31c0 -12 -4.66699 -20.333 -14 -25c-3.33301 -1.33301 -8.33301 -2.5 -15 -3.5s-16 -1.5 -28 -1.5h-168c-22.667 0 -37.334 1.66699 -44.001 5c-8 4 -12 12.333 -12 25
c0 6 2.16699 11.833 6.5 17.5s9.16602 10.167 14.499 13.5l28 11c12 6 18 21 18 45v416z" />
    <glyph glyph-name="afii10031" unicode="&#x41d;" horiz-adv-x="671" 
d="M585 100c0.666992 -14.667 7.33301 -24.6582 20 -29.9912c2.66699 -1.33301 6.5 -2.83301 11.5 -4.5s9.16699 -3.16699 12.5 -4.5c5.33301 -3.33301 10.333 -7.83301 15 -13.5s7 -11.5 7 -17.5c0 -12 -4.66699 -20.333 -14 -25c-3.33301 -1.33301 -8.33301 -2.5 -15 -3.5
s-16 -1.5 -28 -1.5h-168c-22 0 -36.333 1.66699 -43 5c-4.66699 2.66699 -8 6.16699 -10 10.5s-3 9.16602 -3 14.499c0 14.667 7.33301 25 22 31h-1l20 8c17.333 7.33301 26 23.333 26 48v184l-182 1l1 -202c0.666992 -6.66699 2.33398 -12.334 5.00098 -17.001
s7.33398 -8.66699 14.001 -12l12.5 -5l12.5 -5h-1c14.667 -6 22 -16.333 22 -31c0 -9.33301 -3.66699 -17.666 -11 -24.999c-8 -3.33301 -22.667 -5 -44 -5h-169c-22 0 -36.333 1.66699 -43 5c-9.33301 5.33301 -14 13.666 -14 24.999s8 21.666 24 30.999h-2l26 10
c12.667 7.33301 19 22.666 19 45.999v182c-17.333 0.666992 -30.166 3.66699 -38.499 9s-12.5 12.666 -12.5 21.999c0 19.333 17 29.666 51 30.999l-1 177c0 23.333 -6.33301 38.666 -19 45.999l-26 10h2c-16 8.66699 -24 19 -24 31c0 11.333 4.66699 19.666 14 24.999
c6.66699 3.33301 21 5 43 5h169c21.333 0 36 -1.66699 44 -5c3.33301 -3.33301 6 -7.16602 8 -11.499s3 -8.83301 3 -13.5c0 -14.667 -7.33301 -25 -22 -31h1l-12.5 -5l-12.5 -5c-6.66699 -3.33301 -11.334 -7.33301 -14.001 -12s-4.33398 -10.334 -5.00098 -17.001v-193
l182 1v175c0 24.667 -9 40.667 -27 48l-20 8h1c-14.667 6 -22 16.333 -22 31c0 5.33301 1 10.166 3 14.499s5.33301 7.83301 10 10.5c6.66699 3.33301 21 5 43 5h168c12 0 21.333 -0.5 28 -1.5s11.667 -2.16699 15 -3.5c9.33301 -4.66699 14 -13 14 -25
c0 -6 -2.33301 -11.833 -7 -17.5s-9.66699 -10.167 -15 -13.5c-3.33301 -1.33301 -7.5 -2.83301 -12.5 -4.5s-8.83301 -3.16699 -11.5 -4.5c-12.667 -5.33301 -19.334 -15.333 -20.001 -30z" />
    <glyph glyph-name="afii10032" unicode="&#x41e;" horiz-adv-x="610" 
d="M424 346c0 84 -10.667 149.332 -32 195.999s-51 70 -89 70c-36.667 0 -65.5 -24.167 -86.5 -72.5s-31.5 -115.166 -31.5 -200.499c0 -180.667 39.667 -271 119 -271c38 0 67.5 24.167 88.5 72.5s31.5 116.833 31.5 205.5zM585 340.999
c0 -94.667 -22.666 -174.334 -67.999 -239.001c-50 -72 -120 -108 -210 -108c-92.667 0 -164 36 -214 108c-44.667 62.667 -67 143.334 -67 242.001c0 110 29.333 195.333 88 256c54 57.333 117.667 86 191 86c42 0 81.167 -10.167 117.5 -30.5s67.166 -46.5 92.499 -78.5
c22 -32 39.167 -68.167 51.5 -108.5s18.5 -82.833 18.5 -127.5z" />
    <glyph glyph-name="afii10033" unicode="&#x41f;" horiz-adv-x="671" 
d="M593 655c12 0 21.333 -0.488281 28 -1.48828s11.667 -2.16699 15 -3.5c9.33301 -4.66699 14 -13 14 -25c0 -6 -2.33301 -11.833 -7 -17.5s-9.66699 -10.167 -15 -13.5c-3.33301 -1.33301 -7.5 -2.83301 -12.5 -4.5s-8.83301 -3.16699 -11.5 -4.5
c-12.667 -5.33301 -19.334 -15.333 -20.001 -30l1 -455c0.666992 -14.667 7.33398 -24.667 20.001 -30c2.66699 -1.33301 6.5 -2.83301 11.5 -4.5s9.16699 -3.16699 12.5 -4.5c5.33301 -3.33301 10.333 -7.83301 15 -13.5s7 -11.5 7 -17.5c0 -12 -4.66699 -20.333 -14 -25
c-3.33301 -1.33301 -8.33301 -2.5 -15 -3.5s-16 -1.5 -28 -1.5h-168c-22 0 -36.333 1.66699 -43 5c-4.66699 2.66699 -8 6.16699 -10 10.5s-3 9.16602 -3 14.499c0 14.667 7.33301 25 22 31h-1l20 8c17.333 7.33301 26 23.333 26 48v421c0 6 -0.166992 12.167 -0.5 18.5
s-1.83301 12.166 -4.5 17.499s-6.83398 9.66602 -12.501 12.999s-13.5 4.66602 -23.5 3.99902l-89 -1c-12 0 -21.333 -1.33301 -28 -4s-11.834 -6.33398 -15.501 -11.001s-6 -10.334 -7 -17.001s-1.5 -14.334 -1.5 -23.001l1 -435
c0.666992 -6.66699 2.33398 -12.334 5.00098 -17.001s7.33398 -8.66699 14.001 -12l12.5 -5l12.5 -5h-1c14.667 -6 22 -16.333 22 -31c0 -9.33301 -3.66699 -17.666 -11 -24.999c-8 -3.33301 -22.667 -5 -44 -5h-169c-22 0 -36.333 1.66699 -43 5
c-9.33301 5.33301 -14 13.666 -14 24.999s8 21.666 24 30.999h-2l26 10c12.667 7.33301 19 22.666 19 45.999l-1 421c0 23.333 -6.33301 38.666 -19 45.999l-26 10h2c-16 8.66699 -24 19 -24 31c0 11.333 4.66699 19.666 14 24.999c6.66699 3.33301 21 5 43 5h497z" />
    <glyph glyph-name="afii10034" unicode="&#x420;" horiz-adv-x="540" 
d="M254 340c82 3.33301 123.001 54.332 123.001 152.999c0 18.667 -1.83301 36 -5.5 52s-8.83398 29.833 -15.501 41.5s-14.667 20.834 -24 27.501s-19.333 10 -30 10c-32 0 -48 -23.333 -48 -70v-214zM256.001 99.999c0.666992 -14.667 7.33203 -24.6641 19.999 -29.9971
c3.33301 -1.33301 7.33301 -2.83301 12 -4.5s8.66699 -3.16699 12 -4.5h-2c16 -8.66699 24 -19 24 -31s-4.33301 -20.333 -13 -25c-3.33301 -1.33301 -8.5 -2.5 -15.5 -3.5s-16.5 -1.5 -28.5 -1.5h-167c-21.333 0 -36 1.66699 -44 5c-4.66699 2.66699 -8 6.16699 -10 10.5
s-3 9.16602 -3 14.499c0 14.667 7.66699 25 23 31h-1l19 8c17.333 6.66699 26 22.667 26 48v156c-39.333 1.33301 -59 13 -59 35c0 21.333 19.667 32 59 32v171c0 16 -4.33301 29 -13 39c-2.66699 1.33301 -6.5 3 -11.5 5s-12.167 4.66699 -21.5 8
c-19.333 7.33301 -29 17.666 -29 30.999c0 20 21.333 30.333 64 31c26.667 1.33301 61.334 7.66602 104.001 18.999c4.66699 1.33301 11.5 3.83301 20.5 7.5l33.5 13.5c17.333 6.66699 33 11.834 47 15.501s26.667 5.5 38 5.5c53.333 0 100 -19.333 140 -58
c38 -38 57 -85 57 -141c0 -33.333 -6.5 -63.333 -19.5 -90s-31.833 -50 -56.5 -70c-48 -36.667 -106.333 -55 -175 -55c-4.66699 0 -9 0.166992 -13 0.5s-10 1.16602 -18 2.49902z" />
    <glyph glyph-name="afii10035" unicode="&#x421;" horiz-adv-x="591" 
d="M512 586c-0.666992 -5.33301 -1.66699 -14.8291 -3 -28.4961s-3.33301 -31.834 -6 -54.501c-0.666992 -35.333 -13 -53 -37 -53c-9.33301 0 -16.333 1.66699 -21 5c-1.33301 2 -4 8 -8 18s-7.66699 20 -11 30c-4.66699 14.667 -9.16699 28.167 -13.5 40.5
s-7.16602 20.166 -8.49902 23.499c-15.333 31.333 -39 47 -71 47c-54.667 0 -95.334 -35.667 -122.001 -107c-9.33301 -24 -16 -49.5 -20 -76.5s-6 -55.833 -6 -86.5c0 -56 9.33301 -108.667 28 -158c24.667 -68.667 63.334 -103 116.001 -103
c9.33301 0 18.333 1.83301 27 5.5s16.167 8.66699 22.5 15s11.5 13.5 15.5 21.5s6 16.333 6 25c0 22.667 -12.667 41 -38 55l1 -1c-7.33301 6 -11 11.333 -11 16c0 11.333 3 21.833 9 31.5s14.667 19.167 26 28.5c22.667 16.667 46 25 70 25c34 0 62 -11 84 -33
s33 -50 33 -84c0 -60.667 -27.667 -109 -83 -145c-47.333 -32.667 -103.666 -49 -168.999 -49c-94.667 0 -168.667 33.333 -222 100c-49.333 61.333 -74 141.666 -74 240.999c0 101.333 23.333 183.333 70 246c52 70 125.667 105 221 105c10 0 21.667 -0.833008 35 -2.5
s28.666 -3.83398 45.999 -6.50098h-1c12 -2 23 -3 33 -3c1.33301 0 3 0.166992 5 0.5s4.66699 0.5 8 0.5c2 0 4.66699 0.166992 8 0.5s6.66602 0.5 9.99902 0.5c16 2 25.333 3 28 3c21.333 0 32 -11.333 32 -34c0 -2 -0.166992 -4.83301 -0.5 -8.5
s-0.833008 -7.16699 -1.5 -10.5z" />
    <glyph glyph-name="afii10036" unicode="&#x422;" horiz-adv-x="539" 
d="M342 100c0.666992 -6.66699 2.33496 -12.3311 5.00195 -16.998s7.66699 -8.66699 15 -12l12.5 -5l12.5 -5h-2c16 -7.33301 24 -17.666 24 -30.999c0 -10 -4.66699 -18.667 -14 -26l1 1c-6.66699 -3.33301 -21 -5 -43 -5h-169c-22 0 -36.333 1.66699 -43 5
c-5.33301 2.66699 -9 6.16699 -11 10.5s-3 9.16602 -3 14.499c0 13.333 8 23.666 24 30.999h-1l23 9c14 6 21 21.667 21 47v425c-2.66699 -1.33301 -7.5 -3.33301 -14.5 -6l-15.5 -6c-17.333 -6 -33.5 -10.667 -48.5 -14s-28.833 -5 -41.5 -5
c-28 0 -50.167 7.33301 -66.5 22s-24.5 33.667 -24.5 57c0 25.333 9.33301 47.666 28 66.999c19.333 19.333 41.666 29 66.999 29c9.33301 0 17.333 -2 24 -6s10 -8.66699 10 -14l-9 -10c-4 -6 -6 -13.667 -6 -23c0 -18 5.66699 -30 17 -36s25.5 -8.16699 42.5 -6.5
s35.667 5.83398 56 12.501s39.166 14 56.499 22s32.166 15.167 44.499 21.5l20.5 10.5c46.667 16.667 84 25 112 25c30 0 53.833 -8 71.5 -24s26.5 -36.667 26.5 -62c0 -22.667 -9.33301 -43.667 -28 -63c-17.333 -18.667 -37.666 -28 -60.999 -28c-26.667 0 -40 5 -40 15v5
c3.33301 8 6 15.667 8 23s3 12.666 3 15.999c0 28.667 -15 43 -45 43c-8 0 -21 -4.66699 -39 -14v-493z" />
    <glyph glyph-name="afii10037" unicode="&#x423;" horiz-adv-x="537" 
d="M331 604l-7.99902 4.00195c-2.66699 1.33301 -5.66699 2.66602 -9 3.99902c-1.33301 1.33301 -2.33301 2 -3 2s-1.66699 0.333008 -3 1h1c-8.66699 4.66699 -13 12 -13 22c0 19.333 14 29 42 29h129c40 0 60 -30.333 60 -91c0 -18 -3.16699 -41.333 -9.5 -70
s-15.166 -60 -26.499 -94s-24.833 -69.333 -40.5 -106s-33 -71.834 -52 -105.501s-39.333 -64.667 -61 -93s-43.834 -51.166 -66.501 -68.499c-11.333 -13.333 -24.333 -23.833 -39 -31.5s-29.667 -12.334 -45 -14.001s-30.833 -0.166992 -46.5 4.5s-30.167 13 -43.5 25
c-14.667 13.333 -22.667 29.5 -24 48.5s2 37.167 10 54.5s20 32 36 44s34 18 54 18c9.33301 0.666992 18.5 0.5 27.5 -0.5s12.167 -3.5 9.5 -7.5s-4.33398 -9 -5.00098 -15s-0.666992 -11.5 0 -16.5s2 -9.5 4 -13.5s5 -6 9 -6c11.333 -1.33301 23.166 3.66699 35.499 15
s24.833 26.333 37.5 45c-31.333 19.333 -57.833 40.5 -79.5 63.5s-40.334 46.833 -56.001 71.5s-29 49.5 -40 74.5s-21.167 49.5 -30.5 73.5c-13.333 20.667 -30.333 32.667 -51 36l-19 4c-14.667 2 -22 11.667 -22 29c0 13.333 10.667 26.333 32 39
c14.667 7.33301 31.167 17.833 49.5 31.5s37.833 29.5 58.5 47.5h1c14.667 12 25.667 18 33 18c11.333 0 18.333 -3.16699 21 -9.5s3.83398 -14.666 3.50098 -24.999s-0.833008 -22.333 -1.5 -36s1 -27.834 5 -42.501c6.66699 -25.333 14.334 -49.166 23.001 -71.499
s19.5 -43.833 32.5 -64.5s28.333 -40.334 46 -59.001s39.167 -37.334 64.5 -56.001c18.667 38.667 32 76.834 40 114.501s5.66699 75.5 -7 113.5c-4.66699 14 -12 26.5 -22 37.5s-23.667 19.833 -41 26.5z" />
    <glyph glyph-name="afii10038" unicode="&#x424;" horiz-adv-x="748" 
d="M440 195c25.333 -8 46.501 -6.16699 63.501 5.5s30.333 28.667 40 51s15.5 47.833 17.5 76.5s0.666992 55.5 -4 80.5s-12.834 46.167 -24.501 63.5s-26.5 26 -44.5 26c-32 0 -48 -23.333 -48 -70v-233zM304.001 428c0 46.667 -15.999 70 -47.999 70
c-18 0 -32.833 -8.66699 -44.5 -26s-19.834 -38.5 -24.501 -63.5s-6 -51.833 -4 -80.5s7.83301 -54.167 17.5 -76.5s23 -39.333 40 -51s38.167 -13.5 63.5 -5.5v233zM292.002 0c-22 0 -36.332 1.66699 -42.999 5c-8 4.66699 -12 13 -12 25c0 14.667 7.66699 25 23 31h-2
l12.5 5l12.5 5c7.33301 3.33301 12.333 7.33301 15 12s4.33398 10.334 5.00098 17.001l1 30c-8 -1.33301 -14.167 -2.16602 -18.5 -2.49902s-8.83301 -0.5 -13.5 -0.5c-34 0 -65.833 4.83301 -95.5 14.5s-56.167 23.5 -79.5 41.5c-24.667 20 -43.5 43.333 -56.5 70
s-19.5 56.334 -19.5 89.001c0 28 4.66699 57 14 87s23.666 54.667 42.999 74c38.667 38 85.334 57 140.001 57c20.667 0 49 -6.66699 85 -20l1 15c-0.666992 6.66699 -2.33398 12.334 -5.00098 17.001s-7.66699 8.66699 -15 12l-12.5 5l-12.5 5h2
c-15.333 6 -23 16.333 -23 31c0 11.333 4 19.666 12 24.999c6.66699 3.33301 21 5 43 5h158c22 0 36.333 -1.66699 43 -5c8 -5.33301 12 -13.666 12 -24.999c0 -14.667 -7.66699 -25 -23 -31h2l-12.5 -5l-12.5 -5c-7.33301 -3.33301 -12.333 -7.33301 -15 -12
s-4.33398 -10.334 -5.00098 -17.001l1 -15c36 13.333 64.333 20 85 20c54 0 100.667 -19 140 -57c19.333 -19.333 33.666 -44 42.999 -74s14 -59 14 -87c0 -32.667 -6.5 -62.334 -19.5 -89.001s-31.833 -50 -56.5 -70c-23.333 -18 -49.833 -31.833 -79.5 -41.5
s-61.5 -14.5 -95.5 -14.5c-4.66699 0 -9.16699 0.166992 -13.5 0.5s-10.5 1.16602 -18.5 2.49902l1 -30c0.666992 -6.66699 2.33398 -12.334 5.00098 -17.001s7.66699 -8.66699 15 -12l12.5 -5l12.5 -5h-2c15.333 -6 23 -16.333 23 -31c0 -12 -4 -20.333 -12 -25
c-6.66699 -3.33301 -21 -5 -43 -5h-159h-1z" />
    <glyph glyph-name="afii10039" unicode="&#x425;" horiz-adv-x="588" 
d="M347 402c43.333 45.333 65.0029 86.6621 65.0029 123.995c0 34 -16.667 57.333 -50 70l-26 9c-23.333 10 -35 21.333 -35 34c0 18 13.667 27 41 27h144c15.333 0 27.166 -8.66699 35.499 -26s12.5 -40.333 12.5 -69c0 -73.333 -43 -153 -129 -239l-13 -13l90 -179
c2 -3.33301 4.5 -7 7.5 -11s5.5 -7.66699 7.5 -11c1.33301 -1.33301 2.83301 -3.16602 4.5 -5.49902s3.16699 -4.83301 4.5 -7.5c2 -2.66699 4 -5.66699 6 -9c6 -5.33301 12.667 -10.666 20 -15.999c3.33301 -3.33301 10.666 -9 21.999 -17
c7.33301 -6.66699 13.333 -12.834 18 -18.501s7 -10.5 7 -14.5c0 -20 -14.333 -30 -43 -30h-146c-27.333 0 -41 10.333 -41 31v21c0 25.333 -5.66699 48 -17 68l-100 187c-57.333 -69.333 -86 -123.666 -86 -162.999c0 -26 19 -50 57 -72c32.667 -16 49 -30.333 49 -43
c0 -19.333 -15.333 -29 -46 -29h-135c-16 0 -29.333 7.83301 -40 23.5s-16 36.167 -16 61.5c0 70 32.333 141.667 97 215c7.33301 8 16.333 17.333 27 28s23.334 22.334 38.001 35.001l16 16l-46 90c-6.66699 12.667 -15.5 22.334 -26.5 29.001s-24.833 11.667 -41.5 15
l-22 3c-17.333 2 -26 10.333 -26 25c0 8.66699 7.33301 17.667 22 27c53.333 34.667 88.666 62.334 105.999 83.001c2.66699 2.66699 6 6.66699 10 12l3 3c7.33301 6.66699 14.666 10 21.999 10c10 0 17 -4.33301 21 -13l6 -14z" />
    <glyph glyph-name="afii10040" unicode="&#x426;" horiz-adv-x="697" 
d="M96 0c-22 0 -36.335 1.67676 -43.002 5.00977c-9.33301 5.33301 -14 13.666 -14 24.999s8 21.666 24 30.999h-2l26 10c12.667 7.33301 19 22.666 19 45.999l1 421c0 23.333 -6.33301 38.666 -19 45.999l-26 10h2c-16 8.66699 -24 19 -24 31
c0 11.333 4.66699 19.666 14 24.999c6.66699 3.33301 21 5 43 5h169c21.333 0 36 -1.66699 44 -5c3.33301 -3.33301 6 -7.16602 8 -11.499s3 -8.83301 3 -13.5c0 -14.667 -7.33301 -25 -22 -31h1l-12.5 -5l-12.5 -5c-6.66699 -3.33301 -11.334 -7.33301 -14.001 -12
s-4.33398 -10.334 -5.00098 -17.001l-1 -435c0 -8.66699 0.5 -16.334 1.5 -23.001s3.33301 -12.334 7 -17.001s8.83398 -8.33398 15.501 -11.001s16 -4 28 -4l89 -1c10 -0.666992 17.833 0.666016 23.5 3.99902s9.83398 7.66602 12.501 12.999s4.16699 11.166 4.5 17.499
s0.5 12.5 0.5 18.5v421c0 24.667 -8.66699 40.667 -26 48l-20 8h1c-14.667 6 -22 16.333 -22 31c0 5.33301 1 10.166 3 14.499s5.33301 7.83301 10 10.5c6.66699 3.33301 21 5 43 5h168c12 0 21.333 -0.5 28 -1.5s11.667 -2.16699 15 -3.5c9.33301 -4.66699 14 -13 14 -25
c0 -6 -2.33301 -11.833 -7 -17.5s-9.66699 -10.167 -15 -13.5c-3.33301 -1.33301 -7.5 -2.83301 -12.5 -4.5s-8.83301 -3.16699 -11.5 -4.5c-12.667 -5.33301 -19.334 -15.333 -20.001 -30l-1 -482h62c10.667 -0.666992 17.834 -3.5 21.501 -8.5s5.5 -10.667 5.5 -17
s-1.5 -12.5 -4.5 -18.5s-6.16699 -10.333 -9.5 -13l-34 -30.5c-12.667 -11.667 -22.334 -24.5 -29.001 -38.5c-4.66699 -9.33301 -7.16699 -20.666 -7.5 -33.999s4.83398 -23 15.501 -29c9.33301 -5.33301 15.666 -11.333 18.999 -18s4 -12.667 2 -18s-6.5 -9.5 -13.5 -12.5
s-16.167 -3.83301 -27.5 -2.5c-11.333 2 -20.166 6 -26.499 12s-11.333 13 -15 21s-6.16699 16.667 -7.5 26s-2 19 -2 29c0 8.66699 -0.666992 17.834 -2 27.501s-5.66602 18.5 -12.999 26.5s-19.166 14.333 -35.499 19s-39.5 6.66699 -69.5 6h-317z" />
    <glyph glyph-name="afii10041" unicode="&#x427;" horiz-adv-x="663" 
d="M429 538c0 24.667 -8.99902 40.667 -26.999 48l-20 8h1c-14.667 6 -22 16.333 -22 31c0 5.33301 1 10.166 3 14.499s5.33301 7.83301 10 10.5c6.66699 3.33301 21 5 43 5h168c12 0 21.333 -0.5 28 -1.5s11.667 -2.16699 15 -3.5c9.33301 -4.66699 14 -13 14 -25
c0 -6 -2.33301 -11.833 -7 -17.5s-9.66699 -10.167 -15 -13.5c-3.33301 -1.33301 -7.5 -2.83301 -12.5 -4.5s-8.83301 -3.16699 -11.5 -4.5c-12.667 -5.33301 -19.334 -15.333 -20.001 -30l1 -455c0.666992 -14.667 7.33398 -24.667 20.001 -30
c2.66699 -1.33301 6.5 -2.83301 11.5 -4.5s9.16699 -3.16699 12.5 -4.5c5.33301 -3.33301 10.333 -7.83301 15 -13.5s7 -11.5 7 -17.5c0 -12 -4.66699 -20.333 -14 -25c-3.33301 -1.33301 -8.33301 -2.5 -15 -3.5s-16 -1.5 -28 -1.5h-168c-22 0 -36.333 1.66699 -43 5
c-4.66699 2.66699 -8 6.16699 -10 10.5s-3 9.16602 -3 14.499c0 14.667 7.33301 25 22 31h-1l20 8c17.333 7.33301 26 23.333 26 48v177c-31.333 -12 -69.666 -18 -114.999 -18c-144.667 0 -217 62 -217 186v63c-0.666992 12.667 -8.33398 22.334 -23.001 29.001l-39 18
c-8.66699 4 -13 11.667 -13 23c0 16 10.667 25 32 27l71 8c17.333 2 34.5 5.33301 51.5 10s33.5 11 49.5 19c24.667 11.333 42 17 52 17c7.33301 0 13.666 -2.66699 18.999 -8s8 -11.666 8 -18.999c0 -8.66699 -2.66699 -15.667 -8 -21l-31 -27l-22 -46v-102
c0 -69.333 33 -104 99 -104c42 0 70.667 12.667 86 38v151z" />
    <glyph glyph-name="afii10042" unicode="&#x428;" horiz-adv-x="1002" 
d="M80 0c-22 0 -36.3311 1.67871 -42.998 5.01172c-9.33301 5.33301 -14 13.666 -14 24.999s8 21.666 24 30.999h-2l26 10c12.667 7.33301 19 22.666 19 45.999l1 408c-0.666992 12.667 -8.33398 22.334 -23.001 29.001l-39 18c-8.66699 4 -13 11.667 -13 23
c0 16 10.667 25 32 27l71 8c17.333 2 34.666 5.33301 51.999 10s34 11 50 19c24.667 11.333 42 17 52 17c7.33301 0 13.666 -2.66699 18.999 -8s8 -11.666 8 -18.999c0 -8.66699 -2.66699 -15.667 -8 -21l-31 -27l-22 -46v-435c0 -8.66699 0.5 -16.334 1.5 -23.001
s3.33301 -12.334 7 -17.001s8.83398 -8.33398 15.501 -11.001s16 -4 28 -4l89 -1c10 -0.666992 17.833 0.666016 23.5 3.99902s9.83398 7.66602 12.501 12.999s4.16699 11.166 4.5 17.499s0.5 12.5 0.5 18.5v421c0 24.667 -8.66699 40.667 -26 48l-20 8h1
c-14.667 6 -22 16.333 -22 31c0 5.33301 1 10.166 3 14.499s5.33301 7.83301 10 10.5c6.66699 3.33301 21 5 43 5h168c21.333 0 36 -1.66699 44 -5c7.33301 -7.33301 11 -15.666 11 -24.999c0 -14.667 -7.33301 -25 -22 -31h1l-12.5 -5l-12.5 -5
c-6.66699 -3.33301 -11.334 -7.33301 -14.001 -12s-4.33398 -10.334 -5.00098 -17.001v-435c0 -8.66699 0.5 -16.334 1.5 -23.001s3.33301 -12.334 7 -17.001s8.83398 -8.33398 15.501 -11.001s16 -4 28 -4l89 -1c10 -0.666992 17.833 0.666016 23.5 3.99902
s9.83398 7.66602 12.501 12.999s4.16699 11.166 4.5 17.499s0.5 12.5 0.5 18.5v421c0 24.667 -8.66699 40.667 -26 48l-20 8h1c-14.667 6 -22 16.333 -22 31c0 5.33301 1 10.166 3 14.499s5.33301 7.83301 10 10.5c6.66699 3.33301 21 5 43 5h168c12 0 21.333 -0.5 28 -1.5
s11.667 -2.16699 15 -3.5c9.33301 -4.66699 14 -13 14 -25c0 -6 -2.33301 -11.833 -7 -17.5s-9.66699 -10.167 -15 -13.5c-3.33301 -1.33301 -7.5 -2.83301 -12.5 -4.5s-8.83301 -3.16699 -11.5 -4.5c-12.667 -5.33301 -19.334 -15.333 -20.001 -30l-1 -438
c0 -23.333 6.33301 -38.666 19 -45.999l26 -10h-2c16 -9.33301 24 -19.666 24 -30.999s-4.66699 -19.666 -14 -24.999c-6.66699 -3.33301 -21 -5 -43 -5h-827z" />
    <glyph glyph-name="afii10043" unicode="&#x429;" horiz-adv-x="1010" 
d="M91 525c-0.666992 12.667 -8.33496 22.3467 -23.002 29.0137l-39 18c-8.66699 4 -13 11.667 -13 23c0 16 10.667 25 32 27l71 8c17.333 2 34.666 5.33301 51.999 10s34 11 50 19c24.667 11.333 42 17 52 17c7.33301 0 13.666 -2.66699 18.999 -8s8 -11.666 8 -18.999
c0 -8.66699 -2.66699 -15.667 -8 -21l-31 -27l-22 -46v-435c0 -8.66699 0.5 -16.334 1.5 -23.001s3.33301 -12.334 7 -17.001s8.83398 -8.33398 15.501 -11.001s16 -4 28 -4l89 -1c10 -0.666992 17.833 0.666016 23.5 3.99902s9.83398 7.66602 12.501 12.999
s4.16699 11.166 4.5 17.499s0.5 12.5 0.5 18.5v421c0 24.667 -8.66699 40.667 -26 48l-20 8h1c-14.667 6 -22 16.333 -22 31c0 5.33301 1 10.166 3 14.499s5.33301 7.83301 10 10.5c6.66699 3.33301 21 5 43 5h168c21.333 0 36 -1.66699 44 -5
c7.33301 -7.33301 11 -15.666 11 -24.999c0 -14.667 -7.33301 -25 -22 -31h1l-12.5 -5l-12.5 -5c-6.66699 -3.33301 -11.334 -7.33301 -14.001 -12s-4.33398 -10.334 -5.00098 -17.001v-435c0 -8.66699 0.5 -16.334 1.5 -23.001s3.33301 -12.334 7 -17.001
s8.83398 -8.33398 15.501 -11.001s16 -4 28 -4l89 -1c10 -0.666992 17.833 0.666016 23.5 3.99902s9.83398 7.66602 12.501 12.999s4.16699 11.166 4.5 17.499s0.5 12.5 0.5 18.5v421c0 24.667 -8.66699 40.667 -26 48l-20 8h1c-14.667 6 -22 16.333 -22 31
c0 5.33301 1 10.166 3 14.499s5.33301 7.83301 10 10.5c6.66699 3.33301 21 5 43 5h168c12 0 21.333 -0.5 28 -1.5s11.667 -2.16699 15 -3.5c9.33301 -4.66699 14 -13 14 -25c0 -6 -2.33301 -11.833 -7 -17.5s-9.66699 -10.167 -15 -13.5
c-3.33301 -1.33301 -7.5 -2.83301 -12.5 -4.5s-8.83301 -3.16699 -11.5 -4.5c-12.667 -5.33301 -19.334 -15.333 -20.001 -30l-1 -482h62c10.667 -0.666992 17.834 -3.5 21.501 -8.5s5.5 -10.667 5.5 -17s-1.5 -12.5 -4.5 -18.5s-6.16699 -10.333 -9.5 -13l-34 -30.5
c-12.667 -11.667 -22.334 -24.5 -29.001 -38.5c-4.66699 -9.33301 -7.16699 -20.666 -7.5 -33.999s4.83398 -23 15.501 -29c9.33301 -5.33301 15.666 -11.333 18.999 -18s4 -12.667 2 -18s-6.5 -9.5 -13.5 -12.5s-16.167 -3.83301 -27.5 -2.5
c-11.333 2 -20.166 6 -26.499 12s-11.333 13 -15 21s-6.16699 16.667 -7.5 26s-2 19 -2 29c0 8.66699 -0.666992 17.834 -2 27.501s-5.66602 18.5 -12.999 26.5s-19.166 14.333 -35.499 19s-39.5 6.66699 -69.5 6h-646c-22 0 -36.333 1.66699 -43 5
c-9.33301 5.33301 -14 13.666 -14 24.999s8 21.666 24 30.999h-2l26 10c12.667 7.33301 19 22.666 19 45.999z" />
    <glyph glyph-name="afii10044" unicode="&#x42a;" horiz-adv-x="712" 
d="M396 71h26c72.667 0 109 44.667 109 134c0 84 -37.667 126 -113 126h-22v-260zM219 588c-8.66699 2 -16.8311 0.833008 -24.498 -3.5s-15 -11.166 -22 -20.499s-13.833 -20.666 -20.5 -33.999l-20 -42c-2 -5.33301 -4.66699 -11.833 -8 -19.5s-6.33301 -14.167 -9 -19.5
c-10.667 -21.333 -23.334 -32 -38.001 -32c-10 0 -18.333 3.16699 -25 9.5s-10 13.833 -10 22.5c0 5.33301 0.666992 11.333 2 18l12 38c5.33301 15.333 9.33301 31.666 12 48.999s5 35.666 7 54.999c3.33301 43.333 18.666 65 45.999 65c11.333 0 23 -6 35 -18h249
c22.667 0 37.334 -1.66699 44.001 -5c4.66699 -2.66699 8 -6.16699 10 -10.5s3 -9.16602 3 -14.499c0 -12 -8 -22.333 -24 -31h2l-25 -10c-6.66699 -3.33301 -11.5 -9.5 -14.5 -18.5s-4.5 -19.167 -4.5 -30.5v-137h18c38.667 0.666992 74.667 -3.5 108 -12.5
s62.166 -22.167 86.499 -39.5s43.333 -38.5 57 -63.5s20.5 -53.167 20.5 -84.5c0 -32 -7 -61 -21 -87s-33.667 -48 -59 -66c-47.333 -30.667 -106 -46 -176 -46h-190c-21.333 0 -36 1.66699 -44 5c-4.66699 2.66699 -8 6.16699 -10 10.5s-3 9.16602 -3 14.499
c0 14.667 7.66699 25 23 31h-1l19 8c17.333 6.66699 26 22.667 26 48v214c-11.333 0 -17.333 0.333008 -18 1c-28.667 4 -43 15.333 -43 34c0 22 20.333 33.667 61 35v93c0 26 -2.5 46.333 -7.5 61s-12.833 25.667 -23.5 33z" />
    <glyph glyph-name="afii10045" unicode="&#x42b;" horiz-adv-x="872" 
d="M254 71h26c72.667 0 109 44.667 109 134c0 84 -37.667 126 -113 126h-22v-260zM254 399l18.002 0.00292969c38.667 0.666992 74.667 -3.5 108 -12.5s62.166 -22.167 86.499 -39.5s43.333 -38.5 57 -63.5s20.5 -53.167 20.5 -84.5c0 -32 -7 -61 -21 -87
s-33.667 -48 -59 -66c-47.333 -30.667 -106 -46 -176 -46h-190c-21.333 0 -36 1.66699 -44 5c-4.66699 2.66699 -8 6.16699 -10 10.5s-3 9.16602 -3 14.499c0 14.667 7.66699 25 23 31h-1l19 8c17.333 6.66699 26 22.667 26 48v214c-11.333 0 -17.333 0.333008 -18 1
c-28.667 4 -43 15.333 -43 34c0 22 20.333 33.667 61 35v137c0 23.333 -6.66699 38.666 -20 45.999l-25 10h2c-16 8.66699 -24 19 -24 31c0 5.33301 1 10.166 3 14.499s5.66699 7.83301 11 10.5c6.66699 3.33301 21 5 43 5h167c22 0 36.333 -1.66699 43 -5
c8 -5.33301 12 -13.666 12 -24.999c0 -14.667 -7.66699 -25 -23 -31h2l-12.5 -5l-12.5 -5c-7.33301 -3.33301 -12.333 -7.33301 -15 -12s-4.33398 -10.334 -5.00098 -17.001v-156zM640.002 538.003c0 23.333 -6.66699 38.6709 -20 46.0039l-25 10h2
c-16 8.66699 -24 19 -24 31c0 5.33301 1 10.166 3 14.499s5.66699 7.83301 11 10.5c6.66699 3.33301 21 5 43 5h168c22 0 36.333 -1.66699 43 -5c8 -5.33301 12 -13.666 12 -24.999c0 -14.667 -7.66699 -25 -23 -31h2l-12.5 -5l-12.5 -5
c-7.33301 -3.33301 -12.333 -7.33301 -15 -12s-4.33398 -10.334 -5.00098 -17.001l1 -455c0.666992 -6.66699 2.33398 -12.334 5.00098 -17.001s7.66699 -8.66699 15 -12l12.5 -5l12.5 -5h-2c15.333 -6 23 -16.333 23 -31c0 -12 -4 -20.333 -12 -25
c-6.66699 -3.33301 -21 -5 -43 -5h-169c-22 0 -36.333 1.66699 -43 5c-5.33301 2.66699 -9 6.16699 -11 10.5s-3 9.16602 -3 14.499c0 12 8 22.333 24 31h-2l25 10c13.333 7.33301 20 22.666 20 45.999v421z" />
    <glyph glyph-name="afii10046" unicode="&#x42c;" horiz-adv-x="570" 
d="M254 71h26c72.667 0 109 44.667 109 134c0 84 -37.667 126 -113 126h-22v-260zM254 399l18.002 0.00292969c38.667 0.666992 74.667 -3.5 108 -12.5s62.166 -22.167 86.499 -39.5s43.333 -38.5 57 -63.5s20.5 -53.167 20.5 -84.5c0 -32 -7 -61 -21 -87
s-33.667 -48 -59 -66c-47.333 -30.667 -106 -46 -176 -46h-190c-21.333 0 -36 1.66699 -44 5c-4.66699 2.66699 -8 6.16699 -10 10.5s-3 9.16602 -3 14.499c0 14.667 7.66699 25 23 31h-1l19 8c17.333 6.66699 26 22.667 26 48v214c-11.333 0 -17.333 0.333008 -18 1
c-28.667 4 -43 15.333 -43 34c0 22 20.333 33.667 61 35v137c0 23.333 -6.66699 38.666 -20 45.999l-25 10h2c-16 8.66699 -24 19 -24 31c0 5.33301 1 10.166 3 14.499s5.66699 7.83301 11 10.5c6.66699 3.33301 21 5 43 5h167c22 0 36.333 -1.66699 43 -5
c8 -5.33301 12 -13.666 12 -24.999c0 -14.667 -7.66699 -25 -23 -31h2l-12.5 -5l-12.5 -5c-7.33301 -3.33301 -12.333 -7.33301 -15 -12s-4.33398 -10.334 -5.00098 -17.001v-156z" />
    <glyph glyph-name="afii10047" unicode="&#x42d;" horiz-adv-x="591" 
d="M282 -6c-38.667 -1.33301 -71.665 2.00488 -98.998 10.0049s-52.333 19.667 -75 35c-51.333 33.333 -77 77.666 -77 132.999c0 31.333 10.167 57.166 30.5 77.499s46.5 30.5 78.5 30.5c22 0 43.667 -7.66699 65 -23c10 -8.66699 17.833 -17.334 23.5 -26.001
s8.5 -18.334 8.5 -29.001c0 -4.66699 -3.33301 -9.66699 -10 -15l1 1c-23.333 -12.667 -35 -31.334 -35 -56.001c0 -12.667 2.83301 -23.667 8.5 -33s13 -16.833 22 -22.5s19.167 -9.66699 30.5 -12s22.333 -2.83301 33 -1.5c16 0.666992 30.167 5.16699 42.5 13.5
s23 19 32 32s16.667 27.667 23 44s11.5 33.5 15.5 51.5c4 36.667 1.16699 65.667 -8.5 87s-22 37.166 -37 47.499s-30.333 16 -46 17s-27.5 -0.5 -35.5 -4.5c-8 -2.66699 -14.333 -11 -19 -25c-1.33301 -4 -2.83301 -7 -4.5 -9s-3.16699 -3.66699 -4.5 -5
c-8.66699 -4 -19 -2.5 -31 4.5s-21 17.167 -27 30.5c-7.33301 18 -7.66602 35.167 -0.999023 51.5s19.667 29.166 39 38.499c14.667 7.33301 31.167 11.666 49.5 12.999s36.333 -1 54 -7s34.167 -15.833 49.5 -29.5s27.666 -31.834 36.999 -54.501
c-1.33301 28 -4 54.167 -8 78.5s-10 47.5 -18 69.5c-26.667 71.333 -67.334 107 -122.001 107c-32 0 -55.667 -15.667 -71 -47c-1.33301 -3.33301 -4.16602 -11.166 -8.49902 -23.499s-8.83301 -25.833 -13.5 -40.5c-3.33301 -10 -7 -20 -11 -30s-6.66699 -16 -8 -18
c-4.66699 -3.33301 -11.667 -5 -21 -5c-24 0 -36.333 17.667 -37 53c-2.66699 22.667 -4.66699 40.834 -6 54.501s-2.33301 23.167 -3 28.5l-7 40c-0.666992 3.33301 -1.16699 6.83301 -1.5 10.5s-0.5 6.5 -0.5 8.5c0 22.667 10.667 34 32 34c2.66699 0 12 -1 28 -3
c3.33301 0 6.66602 -0.166992 9.99902 -0.5s6 -0.5 8 -0.5c3.33301 0 6 -0.166992 8 -0.5s3.66699 -0.5 5 -0.5c10 0 21 1 33 3h-1c17.333 2.66699 32.666 4.83398 45.999 6.50098s25 2.5 35 2.5c95.333 0 169 -35 221 -105c46.667 -62.667 70 -144.667 70 -246
c0 -99.333 -24.667 -179.666 -74 -240.999c-52 -64.667 -124.667 -98 -218 -100z" />
    <glyph glyph-name="afii10048" unicode="&#x42e;" horiz-adv-x="912" 
d="M878 337c0 -94.667 -22.668 -174.327 -68.001 -238.994c-50 -72 -120 -108 -210 -108c-92.667 0 -164 36 -214 108c-40.667 55.333 -63 125.666 -67 210.999h-64l1 -209c0.666992 -6.66699 2.33398 -12.334 5.00098 -17.001s7.33398 -8.66699 14.001 -12l12.5 -5l12.5 -5
h-1c14.667 -6 22 -16.333 22 -31c0 -9.33301 -3.66699 -17.666 -11 -24.999c-8 -3.33301 -22.667 -5 -44 -5h-169c-22 0 -36.333 1.66699 -43 5c-9.33301 5.33301 -14 13.666 -14 24.999s8 21.666 24 30.999h-2l26 10c12.667 7.33301 19 22.666 19 45.999v189
c-17.333 0.666992 -30.166 3.66699 -38.499 9s-12.5 12.666 -12.5 21.999c0 19.333 17 29.666 51 30.999v158c-2.66699 11.333 -10.334 20.666 -23.001 27.999l-39 18c-9.33301 4 -14 11.667 -14 23c0 16 10.667 25 32 27l72 8c17.333 2 34.5 5.33301 51.5 10
s33.5 11 49.5 19c26 11.333 43.667 17 53 17c7.33301 0 13.5 -2.66699 18.5 -8s7.5 -11.666 7.5 -18.999c0 -8.66699 -2.66699 -15.667 -8 -21l-31 -27l-21 -46v-186h65c4 95.333 33 171 87 227c54 57.333 117.667 86 191 86c42 0 81.167 -10.167 117.5 -30.5
s67.166 -46.5 92.499 -78.5c22 -32 39.167 -68.167 51.5 -108.5s18.5 -82.833 18.5 -127.5zM716.999 342.007c0 84 -10.667 149.332 -32 195.999s-51 70 -89 70c-36.667 0 -65.5 -24.167 -86.5 -72.5s-31.5 -115.166 -31.5 -200.499c0 -180.667 39.667 -271 119 -271
c38 0 67.5 24.167 88.5 72.5s31.5 116.833 31.5 205.5z" />
    <glyph glyph-name="afii10049" unicode="&#x42f;" horiz-adv-x="612" 
d="M375 530c0 19.333 -4.49902 35.167 -13.499 47.5s-20.5 18.5 -34.5 18.5c-22 0 -39.833 -8.5 -53.5 -25.5s-20.5 -44.5 -20.5 -82.5c0 -36 5.33301 -64.833 16 -86.5s26.667 -38.5 48 -50.5c13.333 -6 32.666 -10 57.999 -12v191zM573.001 653.001
c4.66699 -2.66699 8.00098 -6.16504 10.001 -10.498s3 -9.16602 3 -14.499c0 -14.667 -7.33301 -25 -22 -31h1l-20 -8c-17.333 -7.33301 -26 -23.333 -26 -48l1 -424c0 -24.667 8.66699 -40.667 26 -48l20 -8h-1c14.667 -6 22 -16.333 22 -31
c0 -5.33301 -1 -10.166 -3 -14.499s-5.33301 -7.83301 -10 -10.5c-6.66699 -3.33301 -21 -5 -43 -5h-167c-12 0 -21.333 0.5 -28 1.5s-11.667 2.16699 -15 3.5c-9.33301 4.66699 -14 13 -14 25c0 11.333 8 21.666 24 30.999h-2l10.5 4l10.5 4
c14 4.66699 21.667 15.334 23 32.001v170c-23.333 0.666992 -45.5 -3 -66.5 -11s-39.333 -19.167 -55 -33.5s-28 -31.333 -37 -51s-13.5 -40.834 -13.5 -63.501c0 -18 10.333 -34.333 31 -49c14 -12 21 -22.333 21 -31c0 -21.333 -14.667 -32 -44 -32h-142
c-16.667 0 -29 1.66699 -37 5h1c-13.333 7.33301 -20 21 -20 41c0 38 12.333 77 37 117c14.667 22.667 35 46.5 61 71.5s62.667 50.833 110 77.5c-41.333 24.667 -72 49.5 -92 74.5s-30 55.5 -30 91.5c0 35.333 6.16699 64.166 18.5 86.499s29.166 40.166 50.499 53.499
s46.333 22.666 75 27.999s59 8.83301 91 10.5s65 2.16699 99 1.5s67 -0.666992 99 0c22 0 36.333 -1.66699 43 -5z" />
    <glyph glyph-name="afii10065" unicode="&#x430;" horiz-adv-x="463" 
d="M281 343c0 38.667 -21.6709 57.9971 -65.0039 57.9971c-19.333 0 -35.333 -5.66699 -48 -17s-19 -24.666 -19 -39.999c0 -11.333 3 -20.666 9 -27.999s16.667 -13.666 32 -18.999c-10.667 -22 -24 -36.333 -40 -43s-31.5 -7.5 -46.5 -2.5s-28 14.167 -39 27.5
s-16.833 29 -17.5 47s3.33301 34.5 12 49.5s20.834 27.833 36.501 38.5s34.5 19 56.5 25s46 9 72 9c70.667 0 122 -19 154 -57c14 -16 21 -44.667 21 -86v-178c0 -25.333 9.66699 -44.666 29 -57.999c13.333 -10 20 -19 20 -27c0 -6 -12.667 -15 -38 -27
c-9.33301 -4 -19.166 -8 -29.499 -12l-31.5 -12c-5.33301 -2.66699 -10.166 -4.83398 -14.499 -6.50098s-8.16602 -2.5 -11.499 -2.5c-6.66699 0 -12.167 1.5 -16.5 4.5s-8.16602 6.83301 -11.499 11.5c-2 3.33301 -4.5 8.16602 -7.5 14.499s-6.16699 14.5 -9.5 24.5l-16 4
c-39.333 -37.333 -80 -56 -122 -56c-36 0 -65.5 10.333 -88.5 31s-34.5 48 -34.5 82c0 56.667 46.333 104.334 139 143.001c5.33301 2.66699 12.166 5.66699 20.499 9l25 10l22.5 9c6.66699 2.66699 11 4.66699 13 6c29.333 17.333 44 40 44 68zM278.996 243.997
c-9.33301 -8 -21.167 -15.833 -35.5 -23.5s-28.333 -16 -42 -25s-25.5 -19.167 -35.5 -30.5s-15 -24.333 -15 -39c0 -40.667 18 -61 54 -61c49.333 0 74 35.667 74 107v72z" />
    <glyph glyph-name="afii10066" unicode="&#x431;" horiz-adv-x="445" 
d="M424 218c0 -64.667 -17.6699 -118.667 -53.0029 -162c-36 -46 -85.333 -69 -148 -69c-62 0 -111.333 23 -148 69c-16 18.667 -28 41 -36 67s-13.5 53 -16.5 81s-4.16699 55.833 -3.5 83.5s1.66699 52.834 3 75.501c2.66699 38.667 8.16699 76.5 16.5 113.5
s21.5 69.667 39.5 98s41.833 51.166 71.5 68.499s67.5 26 113.5 26c11.333 0 21.333 -1.16699 30 -3.5s21 -3.5 37 -3.5c12 0 19.833 3.16699 23.5 9.5s6.33398 13.333 8.00098 21s3.5 14.667 5.5 21s7 9.5 15 9.5s12 -3.33301 12 -10c0 -12 -1.33301 -28.667 -4 -50
s-7.66699 -42.5 -15 -63.5s-17.5 -39.167 -30.5 -54.5s-29.5 -23 -49.5 -23c-18.667 0 -34.667 2 -48 6s-28.666 6 -45.999 6c-26 0 -47.167 -3.33301 -63.5 -10s-29.5 -16.667 -39.5 -30s-17.167 -30 -21.5 -50s-7.16602 -43.333 -8.49902 -70c2 2 3.83301 4.16699 5.5 6.5
s3.5 4.5 5.5 6.5c38 45.333 86 68 144 68c61.333 0 111 -24 149 -72c34.667 -43.333 52 -98.333 52 -165zM221.997 48c23.333 1.33301 41 17.001 53 47.001s18 72 18 126c0 56 -6 98.667 -18 128s-29.667 44 -53 44s-41 -14.667 -53 -44s-18 -72 -18 -128
c0 -54.667 6 -96.834 18 -126.501s29.667 -45.167 53 -46.5z" />
    <glyph glyph-name="afii10067" unicode="&#x432;" horiz-adv-x="471" 
d="M193 262l17 -0.000976562c26 0 44.167 6.66699 54.5 20s15.5 33.333 15.5 60c0 21.333 -4.5 37.833 -13.5 49.5s-19 17.834 -30 18.501s-21 -4.33301 -30 -15s-13.5 -28 -13.5 -52v-81zM193 50.999h12c32 0 55.333 6.33301 70 19s22 33.667 22 63
c0 28 -7 48.833 -21 62.5s-37.667 20.5 -71 20.5h-12v-165zM266 455.999c20.667 0 39.833 -2.83008 57.5 -8.49707s33 -13.334 46 -23.001s23.167 -21.167 30.5 -34.5s11 -27.333 11 -42c0 -8 -1.16699 -16.833 -3.5 -26.5s-6.33301 -19.334 -12 -29.001
s-13.167 -19 -22.5 -28s-21 -16.5 -35 -22.5c40 -14 67.167 -29.667 81.5 -47s21.5 -39.333 21.5 -66c0 -20 -5.16699 -37.833 -15.5 -53.5s-25 -29.167 -44 -40.5s-42 -20 -69 -26s-56.833 -9 -89.5 -9h-159c-33.333 -0 -50 7.33301 -50 22
c0 9.33301 6.33301 16.666 19 21.999l18 7c14 4.66699 21 18 21 40v207c0 8 -2 15.833 -6 23.5s-9.66699 13.167 -17 16.5l-21 10c-7.33301 3.33301 -11 10 -11 20c0 8 5.83301 14.167 17.5 18.5s25.5 8.83301 41.5 13.5c16 4 31.833 9.16699 47.5 15.5l47.5 18.5
c16 6 31.833 11.167 47.5 15.5s31.5 6.5 47.5 6.5z" />
    <glyph glyph-name="afii10068" unicode="&#x433;" horiz-adv-x="423" 
d="M197 91c1.33301 -21.333 8.33301 -34.665 21 -39.998c2 -1.33301 5 -2.5 9 -3.5s7 -2.16699 9 -3.5c12.667 -5.33301 19 -12.666 19 -21.999s-3.33301 -15.333 -10 -18s-19.334 -4 -38.001 -4h-140c-32 0 -48 7.33301 -48 22c0 9.33301 6.33301 16.666 19 21.999l18 7
c14 6 21 19.333 21 40v264c0 20.667 -7 34 -21 40l-18 7c-12.667 5.33301 -19 12.666 -19 21.999c0 14.667 16 22 48 22h259c8.66699 8.66699 16.667 13 24 13c10.667 0 17.667 -7 21 -21c15.333 -66.667 28 -111 38 -133v-4c0 -1.33301 0.166992 -2.33301 0.5 -3
s0.5 -1.33398 0.5 -2.00098c0 -14 -6.33301 -21 -19 -21c-10 0 -25 17.667 -45 53c-21.333 37.333 -45.666 56 -72.999 56h-77z" />
    <glyph glyph-name="afii10069" unicode="&#x434;" horiz-adv-x="510" 
d="M407 61l62.002 -0.000976562c10.667 -0.666992 18 -3.83398 22 -9.50098s6 -12 6 -19s-1.5 -13.833 -4.5 -20.5s-6.16699 -11.334 -9.5 -14.001c-4.66699 -4 -12.834 -10.5 -24.501 -19.5s-21.834 -19 -30.501 -30s-13.834 -22.333 -15.501 -34
s5.16602 -21.834 20.499 -30.501c9.33301 -5.33301 15.666 -11.333 18.999 -18s4 -12.667 2 -18s-6.5 -9.5 -13.5 -12.5s-16.167 -3.83301 -27.5 -2.5c-11.333 2 -20.166 6 -26.499 12s-11.333 13 -15 21s-6.16699 16.667 -7.5 26s-2 19 -2 29v27
c0 9.33301 -3 17.833 -9 25.5s-16.5 14 -31.5 19s-37.5 7.5 -67.5 7.5h-53c-26 -2 -44.667 -5.16699 -56 -9.5s-18.5 -9.5 -21.5 -15.5s-3.66699 -12.667 -2 -20s2.5 -15 2.5 -23c0 -10 -0.666992 -20.167 -2 -30.5s-4 -19.833 -8 -28.5s-9.5 -16.167 -16.5 -22.5
s-16.5 -10.833 -28.5 -13.5c-11.333 -1.33301 -20.666 -0.5 -27.999 2.5s-12 7.16699 -14 12.5s-1.16699 11.333 2.5 18s10.167 12.667 19.5 18c14 8 20.5 17.667 19.5 29s-5.33301 22.5 -13 33.5s-16.834 21.333 -27.501 31l-23 20.5
c-3.33301 2.66699 -6.5 6.83398 -9.5 12.501s-4.5 11.5 -4.5 17.5s1.83301 11.5 5.5 16.5s10.834 7.83301 21.501 8.5h58c4 13.333 8.66699 30.333 14 51s10.5 42.834 15.5 66.501s9.16699 47.667 12.5 72s4.83301 46.833 4.5 67.5s-3 38.334 -8 53.001
s-13.167 24.334 -24.5 29.001l-18 7c-12.667 5.33301 -19 12.666 -19 21.999c0 14.667 16 22 48 22h316c18.667 0 31.334 -1.33301 38.001 -4s10 -8.66699 10 -18s-6.33301 -16.666 -19 -21.999c-2 -1.33301 -5 -2.5 -9 -3.5s-7 -2.16699 -9 -3.5
c-14 -6 -21 -19.333 -21 -40v-295zM184.002 287.999c-2.66699 -28 -7.16797 -62.335 -13.501 -103.002s-14.166 -83.334 -23.499 -128.001h139l-1 233c-1.33301 18 -4.33301 32.333 -9 43s-10 18.834 -16 24.501s-12.5 8.83398 -19.5 9.50098s-12.833 -0.333008 -17.5 -3
c-3.33301 -1.33301 -6.83301 -3.5 -10.5 -6.5s-7.5 -7.16699 -11.5 -12.5s-7.5 -12.666 -10.5 -21.999s-5.16699 -21 -6.5 -35z" />
    <glyph glyph-name="afii10070" unicode="&#x435;" horiz-adv-x="436" 
d="M243 285c25.333 18 37.999 41.332 37.999 69.999c0 33.333 -15 50 -45 50c-23.333 0 -42.166 -16.167 -56.499 -48.5s-22.5 -76.166 -24.5 -131.499zM157.999 164.999c6.66699 -72 34.667 -108.004 84 -108.004c16.667 0 31 6 43 18s18 25.667 18 41
c0 14.667 -3 27.334 -9 38.001s-18.667 17.667 -38 21c-1.33301 0 -1.5 1 -0.5 3s1.5 3.66699 1.5 5c14 25.333 30.167 40.833 48.5 46.5s35.833 4.83398 52.5 -2.49902s30.834 -19.666 42.501 -36.999s17.5 -36 17.5 -56c0 -24.667 -5.33301 -46.667 -16 -66
s-25.334 -35.666 -44.001 -48.999c-37.333 -24.667 -81.666 -37 -132.999 -37c-63.333 0 -113.166 19.833 -149.499 59.5s-54.5 94.5 -54.5 164.5c0 66.667 19 124.667 57 174c20 24 43.5 42.5 70.5 55.5s56.833 19.5 89.5 19.5c33.333 0 64.166 -7.5 92.499 -22.5
s49.166 -34.833 62.499 -59.5c5.33301 -12 8 -21.667 8 -29c0 -15.333 -13.333 -32.333 -40 -51z" />
    <glyph glyph-name="afii10072" unicode="&#x436;" horiz-adv-x="772" 
d="M443 243l0.998047 2.99805c16 -1.33301 30.167 3.16699 42.5 13.5s22.5 23.166 30.5 38.499s14.167 31.833 18.5 49.5s6.83301 33.167 7.5 46.5c0 3.33301 0.166992 7 0.5 11s0.5 7.66699 0.5 11c0.666992 20 13.667 30 39 30h107c28.667 0 43 -7.66699 43 -23
c0 -2 -0.666992 -5 -2 -9c-1.33301 -1.33301 -4.66602 -3.83301 -9.99902 -7.5s-11.666 -7.16699 -18.999 -10.5l-12 -7c-4.66699 -2.66699 -8.33398 -4.66699 -11.001 -6c-10.667 -10 -22 -23.333 -34 -40c-2.66699 -4 -5.66699 -8.16699 -9 -12.5l-10 -13.5
c-9.33301 -12 -19.5 -24 -30.5 -36s-24.167 -22.667 -39.5 -32c14.667 -7.33301 28.834 -16.833 42.501 -28.5s26.334 -24.5 38.001 -38.5s22.167 -28.333 31.5 -43s16.666 -28.667 21.999 -42c9.33301 -22 22.333 -37.333 39 -46c15.333 -6.66699 23 -15.667 23 -27
c0 -16 -10.333 -24 -31 -24h-169c-26.667 0 -40 8 -40 24c0 5.33301 2.66699 10.666 8 15.999s11.333 10.666 18 15.999c0.666992 0.666992 1.5 1.33398 2.5 2.00098s1.83301 1.33398 2.5 2.00098c7.33301 7.33301 11 17.666 11 30.999
c0 14.667 -2.83301 28.834 -8.5 42.501s-13.334 25.834 -23.001 36.501s-21.334 19.334 -35.001 26.001s-28.5 10.667 -44.5 12v-117c0 -20.667 7 -34 21 -40c2 -1.33301 5 -2.5 9 -3.5s7 -2.16699 9 -3.5c12.667 -5.33301 19 -12.666 19 -21.999s-3.33301 -15.333 -10 -18
s-19.334 -4 -38.001 -4h-140c-32 -0 -48 7.33301 -48 22c0 9.33301 6.33301 16.666 19 21.999l18 7c14 6 21 19.333 21 40v117c-16 -1.33301 -30.667 -5.5 -44 -12.5s-24.833 -15.833 -34.5 -26.5s-17.167 -22.834 -22.5 -36.501s-8 -27.5 -8 -41.5
c0 -13.333 3.66699 -23.666 11 -30.999c0.666992 -0.666992 1.5 -1.33398 2.5 -2.00098s1.83301 -1.33398 2.5 -2.00098c6.66699 -5.33301 12.667 -10.666 18 -15.999s8 -10.666 8 -15.999c0 -16 -13.333 -24 -40 -24h-169c-20.667 0 -31 8 -31 24
c0 11.333 7.66699 20.333 23 27c16.667 8.66699 29.667 24 39 46c5.33301 13.333 12.666 27.333 21.999 42s19.833 29 31.5 43s24.334 26.833 38.001 38.5s27.834 21.167 42.501 28.5c-15.333 9.33301 -28.5 20 -39.5 32s-21.167 24 -30.5 36l-10 13.5
c-3.33301 4.33301 -6.33301 8.5 -9 12.5c-12 16.667 -23.333 30 -34 40c-2.66699 1.33301 -6.33398 3.33301 -11.001 6l-12 7c-7.33301 3.33301 -13.666 6.83301 -18.999 10.5s-8.66602 6.16699 -9.99902 7.5c-1.33301 4 -2 7 -2 9c0 15.333 14.333 23 43 23h107
c24.667 0 37.667 -10 39 -30c0 -3.33301 0.166992 -7 0.5 -11s0.5 -7.66699 0.5 -11c0.666992 -13.333 3 -28.666 7 -45.999s10 -33.833 18 -49.5s18.167 -28.667 30.5 -39s26.5 -14.833 42.5 -13.5v110c0 20.667 -7 34 -21 40l-18 7c-12.667 5.33301 -19 12.666 -19 21.999
c0 14.667 16 22 48 22h140c18.667 0 31.334 -1.33301 38.001 -4s10 -8.66699 10 -18s-6.33301 -16.666 -19 -21.999c-2 -1.33301 -5 -2.5 -9 -3.5s-7 -2.16699 -9 -3.5c-14 -6 -21 -19.333 -21 -40v-113z" />
    <glyph glyph-name="afii10073" unicode="&#x437;" horiz-adv-x="421" 
d="M195 -7c-46.667 0 -87.6611 10.332 -122.994 30.999c-42 22.667 -63 54 -63 94c0 22 8.33301 40.333 25 55s37.667 22 63 22c7.33301 0 15.166 -1.5 23.499 -4.5s16 -7 23 -12s12.667 -10.833 17 -17.5s6.5 -14 6.5 -22c0 -1.33301 -3.33301 -4.66602 -10 -9.99902l1 1
c-18 -9.33301 -27 -22 -27 -38c0 -8.66699 2.5 -16.167 7.5 -22.5s11.333 -11.333 19 -15s16 -6.16699 25 -7.5s17.833 -1.66602 26.5 -0.999023c15.333 2 27.666 7.5 36.999 16.5s16 19.833 20 32.5s5.5 26 4.5 40s-4.16699 27 -9.5 39s-13 21.833 -23 29.5
s-21.667 11.834 -35 12.501c-8 0.666992 -17.333 1.16699 -28 1.5s-20.334 0.5 -29.001 0.5c-7.33301 0 -13 2.16699 -17 6.5s-6.33301 9.16602 -7 14.499s0.833008 10.333 4.5 15s9.16699 7 16.5 7h25c16 0 28.833 1.83301 38.5 5.5s17.167 8.66699 22.5 15s9 14.333 11 24
s3 20.5 3 32.5c0.666992 18 -2.83301 33.667 -10.5 47s-24.167 20 -49.5 20c-18.667 0 -34.167 -7.16699 -46.5 -21.5s-20.833 -34.166 -25.5 -59.499c-5.33301 -32 -15.333 -48 -30 -48c-6.66699 0 -14 4 -22 12c-0.666992 0.666992 -1.83398 6.83398 -3.50098 18.501
l-5.5 38.5c-2 14 -4 26.833 -6 38.5s-3 18.167 -3 19.5c-0.666992 3.33301 -1.33398 8.16602 -2.00098 14.499s-0.666992 8.16602 0 5.49902c0 4 1.83301 7.66699 5.5 11s9.16699 5 16.5 5l18 -2c0.666992 -1.33301 2 -2 4 -2h5c5.33301 0 10.666 0.333008 15.999 1
s10.666 1.66699 15.999 3c3.33301 0.666992 6.83301 1.5 10.5 2.5s7.5 1.5 11.5 1.5c13.333 3.33301 25.666 5.83301 36.999 7.5s20.333 2.5 27 2.5c36.667 0 68.5 -8.33301 95.5 -25s45.333 -36.334 55 -59.001s8.5 -46 -3.5 -70s-39 -43.333 -81 -58
c16 -3.33301 31.667 -7.66602 47 -12.999s29 -12.5 41 -21.5s21.667 -20.167 29 -33.5s11 -29 11 -47c0 -24 -6 -44.5 -18 -61.5s-27.667 -30.833 -47 -41.5s-41.166 -18.334 -65.499 -23.001s-49.166 -7 -74.499 -7z" />
    <glyph glyph-name="afii10074" unicode="&#x438;" horiz-adv-x="513" 
d="M201 355v-161.998l124 174c-2 12 -7 21.333 -15 28l-15 7l1 -1c-8 4.66699 -12 12.334 -12 23.001c0 14.667 10.333 22 31 22h139c32.667 0 49 -7.33301 49 -22c0 -4.66699 -1.83301 -8.83398 -5.5 -12.501s-8.16699 -6.83398 -13.5 -9.50098
c-2 -1.33301 -4.83301 -2.5 -8.5 -3.5s-6.5 -2.16699 -8.5 -3.5c-15.333 -8 -23 -21.333 -23 -40v-264c0 -19.333 7.66699 -32.666 23 -39.999c2 -1.33301 4.83301 -2.5 8.5 -3.5s6.5 -2.16699 8.5 -3.5c5.33301 -2.66699 9.83301 -5.83398 13.5 -9.50098
s5.5 -7.83398 5.5 -12.501c0 -14.667 -16.333 -22 -49 -22h-139c-20.667 -0 -31 7.33301 -31 22c0 10 4 17.667 12 23l-1 -1l15 7c10.667 8.66699 16 22 16 40v174l-125 -178c0.666992 -19.333 6.66699 -31.666 18 -36.999l12 -6c8 -4 12 -11.333 12 -22
c0 -3.33301 -0.833008 -6.66602 -2.5 -9.99902s-3.5 -6.33301 -5.5 -9c-4 -2 -11.667 -3 -23 -3h-140c-32.667 0 -49 7.33301 -49 22c0 9.33301 6.66699 16.666 20 21.999l17 7c14.667 6 22 19.333 22 40v264c0 20.667 -7.33301 34 -22 40l-17 7
c-13.333 5.33301 -20 12.666 -20 21.999c0 14.667 16.333 22 49 22h140c11.333 0 19 -1 23 -3c2 -2.66699 3.83301 -5.66699 5.5 -9s2.5 -6.66602 2.5 -9.99902c0 -10.667 -4 -18 -12 -22l-12 -6c-12 -6.66699 -18 -20.334 -18 -41.001z" />
    <glyph glyph-name="afii10075" unicode="&#x439;" horiz-adv-x="513" 
d="M201 355v-161.998l124 174c-2 12 -7 21.333 -15 28l-15 7l1 -1c-8 4.66699 -12 12.334 -12 23.001c0 14.667 10.333 22 31 22h139c32.667 0 49 -7.33301 49 -22c0 -4.66699 -1.83301 -8.83398 -5.5 -12.501s-8.16699 -6.83398 -13.5 -9.50098
c-2 -1.33301 -4.83301 -2.5 -8.5 -3.5s-6.5 -2.16699 -8.5 -3.5c-15.333 -8 -23 -21.333 -23 -40v-264c0 -19.333 7.66699 -32.666 23 -39.999c2 -1.33301 4.83301 -2.5 8.5 -3.5s6.5 -2.16699 8.5 -3.5c5.33301 -2.66699 9.83301 -5.83398 13.5 -9.50098
s5.5 -7.83398 5.5 -12.501c0 -14.667 -16.333 -22 -49 -22h-139c-20.667 -0 -31 7.33301 -31 22c0 10 4 17.667 12 23l-1 -1l15 7c10.667 8.66699 16 22 16 40v174l-125 -178c0.666992 -19.333 6.66699 -31.666 18 -36.999l12 -6c8 -4 12 -11.333 12 -22
c0 -3.33301 -0.833008 -6.66602 -2.5 -9.99902s-3.5 -6.33301 -5.5 -9c-4 -2 -11.667 -3 -23 -3h-140c-32.667 0 -49 7.33301 -49 22c0 9.33301 6.66699 16.666 20 21.999l17 7c14.667 6 22 19.333 22 40v264c0 20.667 -7.33301 34 -22 40l-17 7
c-13.333 5.33301 -20 12.666 -20 21.999c0 14.667 16.333 22 49 22h140c11.333 0 19 -1 23 -3c2 -2.66699 3.83301 -5.66699 5.5 -9s2.5 -6.66602 2.5 -9.99902c0 -10.667 -4 -18 -12 -22l-12 -6c-12 -6.66699 -18 -20.334 -18 -41.001zM290 623.002
c0.666992 6.66699 8.33008 13.0059 22.9971 19.0059c10 4.66699 20.333 7 31 7c18.667 0 34.334 -5.5 47.001 -16.5s19 -25.167 19 -42.5c0 -18.667 -5.16699 -33.834 -15.5 -45.501s-23.166 -20.667 -38.499 -27s-32 -10.5 -50 -12.5s-34.667 -3 -50 -3
c-17.333 0 -34.666 1.5 -51.999 4.5s-32.833 7.66699 -46.5 14s-24.834 15.166 -33.501 26.499s-13 25.666 -13 42.999s6.33301 31.5 19 42.5s28.334 16.5 47.001 16.5c10.667 0 21 -2.33301 31 -7c14.667 -6 22.334 -12.333 23.001 -19c-2 -2 -5 -4.33301 -9 -7
c-8.66699 -6.66699 -13 -15.667 -13 -27c0 -13.333 5.16699 -22.833 15.5 -28.5s22.166 -8.83398 35.499 -9.50098c16 -0.666992 28.667 3.16602 38 11.499s14 17.166 14 26.499c0 11.333 -4.33301 20.333 -13 27c-4 2.66699 -7 5 -9 7z" />
    <glyph glyph-name="afii10076" unicode="&#x43a;" horiz-adv-x="534" 
d="M205 91c0 -20.667 7 -33.9951 21 -39.9951c2 -1.33301 5 -2.5 9 -3.5s7 -2.16699 9 -3.5c12.667 -5.33301 19 -12.666 19 -21.999s-3.33301 -15.333 -10 -18s-19.334 -4 -38.001 -4h-140c-32 0 -48 7.33301 -48 22c0 9.33301 6.33301 16.666 19 21.999l18 7
c14 6 21 19.333 21 40v217c0 18.667 -7.66699 32 -23 40l-21 10c-7.33301 3.33301 -11 10 -11 20c0 12.667 15.333 22.667 46 30c27.333 4.66699 52.333 14.334 75 29.001c14.667 10 24.667 15 30 15s10.166 -1.5 14.499 -4.5s7.16602 -6.5 8.49902 -10.5
c0 -3.33301 0.333008 -6.33301 1 -9v-182c16 -0.666992 29.833 4.16602 41.5 14.499s21.5 23.166 29.5 38.499s14.167 31.666 18.5 48.999s6.83301 32.666 7.5 45.999c0 3.33301 0.166992 7 0.5 11s0.5 7.66699 0.5 11c0.666992 20 13.667 30 39 30h107
c28.667 0 43 -7.66699 43 -23c0 -2 -0.666992 -5 -2 -9c-1.33301 -1.33301 -4.66602 -3.83301 -9.99902 -7.5s-11.666 -7.16699 -18.999 -10.5l-12 -7c-4.66699 -2.66699 -8.33398 -4.66699 -11.001 -6c-10.667 -10 -22 -23.333 -34 -40
c-2.66699 -4 -5.66699 -8.16699 -9 -12.5l-10 -13.5c-9.33301 -12 -19.5 -24 -30.5 -36s-24.167 -22.667 -39.5 -32c14.667 -7.33301 28.834 -16.833 42.501 -28.5s26.334 -24.5 38.001 -38.5s22.167 -28.333 31.5 -43s16.666 -28.667 21.999 -42
c9.33301 -22 22.333 -37.333 39 -46c15.333 -6.66699 23 -15.667 23 -27c0 -16 -10.333 -24 -31 -24h-169c-26.667 0 -40 8 -40 24c0 5.33301 2.66699 10.666 8 15.999s11.333 10.666 18 15.999c0.666992 0.666992 1.5 1.33398 2.5 2.00098s1.83301 1.33398 2.5 2.00098
c7.33301 7.33301 11 17.666 11 30.999c0 14 -2.66699 27.833 -8 41.5s-12.833 26 -22.5 37s-21.167 20.167 -34.5 27.5s-27.666 11.666 -42.999 12.999v-119z" />
    <glyph glyph-name="afii10077" unicode="&#x43b;" horiz-adv-x="510" 
d="M206 195c-4 -27.333 -8.83203 -53.832 -14.499 -79.499s-13.834 -48 -24.501 -67s-24.5 -33 -41.5 -42s-38.833 -9.83301 -65.5 -2.5c-15.333 6.66699 -27 18.167 -35 34.5s-12.167 33.5 -12.5 51.5s3 35 10 51s18.167 27.667 33.5 35c7.33301 3.33301 15 6 23 8
s12 0.666992 12 -4c-0.666992 -4 -0.5 -8.5 0.5 -13.5s2.5 -9.5 4.5 -13.5s4.33301 -7.16699 7 -9.5s5.33398 -2.83301 8.00098 -1.5c12 2.66699 21.667 12.5 29 29.5s13 36.167 17 57.5s6.66699 42.166 8 62.499s1.66602 34.5 0.999023 42.5
c-0.666992 15.333 -3.16699 28.5 -7.5 39.5s-11.5 18.5 -21.5 22.5l-18 7c-12.667 5.33301 -19 12.666 -19 21.999c0 14.667 16 22 48 22h295c18.667 0 31.334 -1.33301 38.001 -4s10 -8.66699 10 -18s-6.33301 -16.666 -19 -21.999c-2 -1.33301 -5 -2.5 -9 -3.5
s-7 -2.16699 -9 -3.5c-14 -6 -21 -19.333 -21 -40v-265c0 -19.333 7.66699 -32.666 23 -39.999c2 -1.33301 4.83301 -2.5 8.5 -3.5s6.5 -2.16699 8.5 -3.5c5.33301 -2.66699 9.83301 -5.83398 13.5 -9.50098s5.5 -7.83398 5.5 -12.501c0 -14.667 -16.333 -22 -49 -22h-142
c-20.667 0 -31 7.33301 -31 22c0 10 4 17.667 12 23l-1 -1l15 7c10.667 8.66699 16 22 16 40v-4v203c-0.666992 20.667 -3.33398 36.334 -8.00098 47.001s-10.167 18.167 -16.5 22.5s-13 6.33301 -20 6s-13.167 -0.833008 -18.5 -1.5
c-6 -0.666992 -10.833 -3.66699 -14.5 -9s-6.5 -11.833 -8.5 -19.5s-3.66699 -16 -5 -25s-2.66602 -17.5 -3.99902 -25.5c-1.33301 -10 -2.83301 -23 -4.5 -39s-3.83398 -33 -6.50098 -51z" />
    <glyph glyph-name="afii10078" unicode="&#x43c;" horiz-adv-x="624" 
d="M96 419l8.99805 2.99902c4 1.33301 8.5 3 13.5 5s10 3.83301 15 5.5s8.83301 2.83398 11.5 3.50098l20 12c3.33301 2 7 3.5 11 4.5s7.66699 1.5 11 1.5c5.33301 0 11.166 -0.833008 17.499 -2.5s11.5 -4.16699 15.5 -7.5c6.66699 -4.66699 14.334 -10.834 23.001 -18.501
s17.5 -17.5 26.5 -29.5s17.667 -26.333 26 -43s15.833 -36.334 22.5 -59.001c18 29.333 35.333 54 52 74s33.667 36 51 48s35.5 20.5 54.5 25.5s39.833 7.5 62.5 7.5c10.667 0 21.334 0.166992 32.001 0.5s17.667 -0.166992 21 -1.5c6.66699 -2.66699 10 -8.66699 10 -18
s-6.66699 -16.666 -20 -21.999c-2 -1.33301 -5 -2.5 -9 -3.5s-7 -2.16699 -9 -3.5c-14.667 -6 -22 -19.333 -22 -40v-270c0 -20.667 7.33301 -34 22 -40c2 -1.33301 5 -2.5 9 -3.5s7 -2.16699 9 -3.5c13.333 -5.33301 20 -12.666 20 -21.999s-3.33301 -15.333 -10 -18
c-3.33301 -1.33301 -8.16602 -2.33301 -14.499 -3s-14.833 -1 -25.5 -1h-139c-32.667 -0 -49 7.33301 -49 22c0 9.33301 6.33301 16.666 19 21.999l19 7c14.667 6 22 19.333 22 40l1 259c-28.667 -34 -52.667 -70.833 -72 -110.5s-31 -86.834 -35 -141.501
c-0.666992 -6 -4.33398 -10.5 -11.001 -13.5s-14.334 -4.5 -23.001 -4.5c-10 0 -17.167 1.33301 -21.5 4s-7.16602 8.33398 -8.49902 17.001c-7.33301 57.333 -21.166 107.666 -41.499 150.999s-43.166 76.666 -68.499 99.999v-280c0 -8 5.33301 -14.667 16 -20
c2.66699 -0.666992 6 -1.66699 10 -3s7 -2.66602 9 -3.99902c12 -4 18 -10.667 18 -20c0 -3.33301 -0.833008 -7.33301 -2.5 -12s-3.83398 -8 -6.50098 -10c-5.33301 -2 -17.333 -3 -36 -3h-85c-18 0 -29.333 1 -34 3s-7.83398 5.33301 -9.50098 10s-2.5 8.66699 -2.5 12
c0 7.33301 6.66699 14 20 20h-2l21 7c10 4.66699 15 14.667 15 30v250c-2.66699 6.66699 -6.5 12.667 -11.5 18s-12.167 9 -21.5 11c-9.33301 2.66699 -16.666 5.83398 -21.999 9.50098s-8 7.83398 -8 12.501c0 8 6 14 18 18l-2 -1l15 4l24.5 6
c11 2.66699 20.833 5.66699 29.5 9z" />
    <glyph glyph-name="afii10079" unicode="&#x43d;" horiz-adv-x="513" 
d="M201 355v-90.9961h125v91c0 18 -5.33301 31.333 -16 40l-15 7l1 -1c-8 4.66699 -12 12.334 -12 23.001c0 14.667 10.333 22 31 22h139c32.667 0 49 -7.33301 49 -22c0 -4.66699 -1.83301 -8.83398 -5.5 -12.501s-8.16699 -6.83398 -13.5 -9.50098
c-2 -1.33301 -4.83301 -2.5 -8.5 -3.5s-6.5 -2.16699 -8.5 -3.5c-15.333 -8 -23 -21.333 -23 -40v-264c0 -19.333 7.66699 -32.666 23 -39.999c2 -1.33301 4.83301 -2.5 8.5 -3.5s6.5 -2.16699 8.5 -3.5c5.33301 -2.66699 9.83301 -5.83398 13.5 -9.50098
s5.5 -7.83398 5.5 -12.501c0 -14.667 -16.333 -22 -49 -22h-139c-20.667 0 -31 7.33301 -31 22c0 10 4 17.667 12 23l-1 -1l15 7c10.667 8.66699 16 22 16 40v113h-125v-113c0 -20.667 6 -34.334 18 -41.001l12 -6c8 -4 12 -11.333 12 -22
c0 -3.33301 -0.833008 -6.66602 -2.5 -9.99902s-3.5 -6.33301 -5.5 -9c-4 -2 -11.667 -3 -23 -3h-140c-32.667 0 -49 7.33301 -49 22c0 9.33301 6.66699 16.666 20 21.999l17 7c14.667 6 22 19.333 22 40v264c0 20.667 -7.33301 34 -22 40l-17 7
c-13.333 5.33301 -20 12.666 -20 21.999c0 14.667 16.333 22 49 22h140c11.333 0 19 -1 23 -3c2 -2.66699 3.83301 -5.66699 5.5 -9s2.5 -6.66602 2.5 -9.99902c0 -10.667 -4 -18 -12 -22l-12 -6c-12 -6.66699 -18 -20.334 -18 -41.001z" />
    <glyph glyph-name="afii10080" unicode="&#x43e;" horiz-adv-x="445" 
d="M219 48c24.667 0 43.167 14.833 55.5 44.5s18.5 72.5 18.5 128.5s-6 98.667 -18 128s-29.667 44 -53 44s-41 -14.667 -53 -44s-18 -72 -18 -128s6.16699 -98.833 18.5 -128.5s30.833 -44.5 55.5 -44.5h-6zM424 218c0 -64.667 -17.667 -118.667 -53 -162
c-36 -46 -85.333 -69 -148 -69c-62 0 -111.333 23 -148 69c-36 42.667 -54 96 -54 160c0 69.333 19.333 126.333 58 171c38 45.333 86 68 144 68c61.333 0 111 -24 149 -72c34.667 -43.333 52 -98.333 52 -165z" />
    <glyph glyph-name="afii10081" unicode="&#x43f;" horiz-adv-x="513" 
d="M454 447c32.667 0 49.002 -7.32715 49.002 -21.9941c0 -4.66699 -1.83301 -8.83398 -5.5 -12.501s-8.16699 -6.83398 -13.5 -9.50098c-2 -1.33301 -4.83301 -2.5 -8.5 -3.5s-6.5 -2.16699 -8.5 -3.5c-15.333 -8 -23 -21.333 -23 -40v-265
c0 -19.333 7.66699 -32.666 23 -39.999c2 -1.33301 4.83301 -2.5 8.5 -3.5s6.5 -2.16699 8.5 -3.5c5.33301 -2.66699 9.83301 -5.83398 13.5 -9.50098s5.5 -7.83398 5.5 -12.501c0 -14.667 -16.333 -22 -49 -22h-139c-20.667 0 -31 7.33301 -31 22c0 10 4 17.667 12 23
l-1 -1l15 7c10.667 8.66699 16 22 16 40v265c0 4.66699 -0.333008 9.5 -1 14.5s-2.33398 9.5 -5.00098 13.5s-6.83398 7.33301 -12.501 10s-13.5 3.66699 -23.5 3h-48c-16.667 -0.666992 -26.667 -5.33398 -30 -14.001s-5 -18.667 -5 -30v-5v-257
c0 -20.667 6 -34.334 18 -41.001l12 -6c8 -4 12 -11.333 12 -22c0 -3.33301 -0.833008 -6.66602 -2.5 -9.99902s-3.5 -6.33301 -5.5 -9c-4 -2 -11.667 -3 -23 -3h-140c-32.667 0 -49 7.33301 -49 22c0 9.33301 6.66699 16.666 20 21.999l17 7c14.667 6 22 19.333 22 40v265
c0 20.667 -7.33301 34 -22 40l-17 7c-13.333 5.33301 -20 12.666 -20 21.999c0 14.667 16.333 22 49 22h382z" />
    <glyph glyph-name="afii10082" unicode="&#x440;" horiz-adv-x="489" 
d="M271 126l-1 2c0 -0.666992 0.166992 -1 0.5 -1s0.5 -0.333008 0.5 -1zM188 112c5.33301 14.667 12.167 25.3311 20.5 31.998s16.666 10.334 24.999 11.001s16 -1.5 23 -6.5s11.5 -11.833 13.5 -20.5c-7.33301 -5.33301 -12.833 -12.166 -16.5 -20.499
s-5.16699 -16.5 -4.5 -24.5s3.83398 -14.833 9.50098 -20.5s14.167 -8.5 25.5 -8.5c37.333 0 56 41.333 56 124c0 110 -28.333 165 -85 165c-44.667 0 -67 -33.667 -67 -101v-130zM188.001 -94.0029c0 -19.333 7.33301 -32.332 22 -38.999c2 -1.33301 5 -2.5 9 -3.5
s7 -2.16699 9 -3.5c5.33301 -2.66699 9.66602 -5.83398 12.999 -9.50098s5 -8.16699 5 -13.5c0 -8.66699 -3 -14.334 -9 -17.001c-6.66699 -2.66699 -19.667 -4 -39 -4h-139c-19.333 0 -32.333 1.33301 -39 4c-6.66699 3.33301 -10 9 -10 17
c0 5.33301 1.83301 9.83301 5.5 13.5s8.16699 6.83398 13.5 9.50098l18 7c14.667 6.66699 22 19.667 22 39v402c0 20.667 -8 34 -24 40c-3.33301 1.33301 -6.83301 3 -10.5 5s-7.16699 3.66699 -10.5 5c-6.66699 2.66699 -10 9.33398 -10 20.001
c0 5.33301 1.66699 10.333 5 15c0.666992 1.33301 5.33398 3.5 14.001 6.5s19.667 7.16699 33 12.5c16 5.33301 30.667 10.5 44 15.5s21.666 8.83301 24.999 11.5c12.667 8.66699 22.667 13 30 13c12.667 0 20 -5.66699 22 -17c0.666992 -0.666992 1 -9.33398 1 -26.001v-47
c43.333 57.333 86 86 128 86c50 0 89.333 -25.667 118 -77c10.667 -22 19.167 -45.833 25.5 -71.5s9.5 -52.834 9.5 -81.501c0 -60 -13.333 -112 -40 -156c-14.667 -25.333 -32.667 -44.166 -54 -56.499s-45.666 -18.5 -72.999 -18.5c-18.667 0 -38.167 3.16699 -58.5 9.5
s-38.833 21.5 -55.5 45.5v-136z" />
    <glyph glyph-name="afii10083" unicode="&#x441;" horiz-adv-x="399" 
d="M282 348c-10.667 34 -27.6689 51 -51.002 51c-12 0 -23.167 -4.33301 -33.5 -13s-19.333 -21 -27 -37s-13.5 -35 -17.5 -57s-6 -46 -6 -72c0 -104.667 27.667 -157 83 -157c34.667 0 52 17.333 52 52c0 16.667 -8.66699 29 -26 37h2c-10 6.66699 -15 10.334 -15 11.001
c0 15.333 6.83301 29 20.5 41s29.167 18 46.5 18c22 0 40.333 -8.83301 55 -26.5s22 -40.167 22 -67.5c0 -45.333 -17 -80.333 -51 -105c-30.667 -24 -70 -36 -118 -36c-62.667 0 -111.667 21.667 -147 65c-32.667 41.333 -49 94.666 -49 159.999
c0 32 3.83301 61.5 11.5 88.5s19.834 52.167 36.501 75.5c36.667 52.667 83.667 79 141 79c7.33301 0 15.333 -0.5 24 -1.5s18 -2.16699 28 -3.5l13 -2h5c2 -0.666992 5 -1 9 -1c6.66699 0 12 0.666992 16 2l13 4c5.33301 2 9.5 3.33301 12.5 4s5.16699 1 6.5 1
c16.667 0 25 -9.33301 25 -28c0 -4 -0.333008 -10 -1 -18s-1.5 -16.333 -2.5 -25s-1.66699 -17.167 -2 -25.5s-0.166016 -14.5 0.500977 -18.5v-25c0 -25.333 -9.66699 -38 -29 -38c-16 0 -26.667 8.66699 -32 26h1z" />
    <glyph glyph-name="afii10084" unicode="&#x442;" horiz-adv-x="468" 
d="M369 446c8.66699 8.66699 16.666 13 23.999 13c10.667 0 17.667 -7 21 -21c15.333 -66.667 28 -111 38 -133v-4c0 -1.33301 0.166992 -2.33301 0.5 -3s0.5 -1.33398 0.5 -2.00098c0 -14 -6.33301 -21 -19 -21c-10 0 -25 17.667 -45 53
c-21.333 37.333 -45.666 56 -72.999 56h-29v-293c1.33301 -21.333 8.33301 -34.666 21 -39.999c2 -1.33301 5 -2.5 9 -3.5s7 -2.16699 9 -3.5c12.667 -5.33301 19 -12.666 19 -21.999s-3.33301 -15.333 -10 -18s-19.334 -4 -38.001 -4h-140c-19.333 0 -32.333 1.33301 -39 4
s-10 8.66699 -10 18s6.33301 16.666 19 21.999c2 1.33301 5 2.5 9 3.5s7 2.16699 9 3.5c12.667 5.33301 19.667 18.666 21 39.999v293h-23c-27.333 0 -51.666 -18.667 -72.999 -56c-20 -35.333 -35 -53 -45 -53c-12.667 0 -19 7 -19 21
c0 0.666992 0.166992 1.33398 0.5 2.00098s0.5 1.66699 0.5 3v4c10 22 22.667 66.333 38 133c2.66699 14 9.66699 21 21 21c7.33301 0 15.333 -4.33301 24 -13h279z" />
    <glyph glyph-name="afii10085" unicode="&#x443;" horiz-adv-x="442" 
d="M283 90c46.667 98.667 69.998 170.334 69.998 215.001c0 43.333 -16 65 -48 65c-9.33301 0 -17.666 -2.5 -24.999 -7.5s-12.666 -11 -15.999 -18s-3.83301 -14.167 -1.5 -21.5s8.5 -13.333 18.5 -18c0.666992 -0.666992 1 -1.33398 1 -2.00098
c0 -8.66699 -4 -15.5 -12 -20.5s-17.333 -7.33301 -28 -7s-21 3.5 -31 9.5s-17.333 15.667 -22 29zM173.998 345c2.66699 24.667 8.16699 44.166 16.5 58.499s18.5 25.333 30.5 33s25 12.667 39 15s28.667 3.5 44 3.5c38 0 67.833 -11.833 89.5 -35.5
s32.5 -55.834 32.5 -96.501c0 -39.333 -9 -84.5 -27 -135.5s-43.333 -104.833 -76 -161.5c-40 -66.667 -83.667 -118.667 -131 -156s-95 -56 -143 -56c-17.333 0 -33.333 2.5 -48 7.5s-27.5 11.833 -38.5 20.5s-19.667 18.834 -26 30.501s-9.5 24.5 -9.5 38.5
c0 22 7 40.5 21 55.5s31 22.5 51 22.5c10.667 0 21.667 -3.33301 33 -10c11.333 -8 17 -15.333 17 -22v-1l-10 -8c-7.33301 -8 -11 -16 -11 -24c0 -22 13.333 -33 40 -33c30.667 0 61.334 12.667 92.001 38c26.667 22.667 40 44 40 64c0 4.66699 -1.5 11.334 -4.5 20.001
s-7.16699 18.334 -12.5 29.001l-121 259c-1.33301 1.33301 -3 4.33301 -5 9c-9.33301 17.333 -19 28.333 -29 33l-15 7c-8.66699 4 -13 9.66699 -13 17c0 2.66699 3.33301 6.66699 10 12s15.667 12 27 20c6.66699 5.33301 12.834 9.66602 18.501 12.999
s10.5 6.66602 14.5 9.99902c5.33301 3.33301 10.166 6.5 14.499 9.5s7.16602 5.5 8.49902 7.5c8.66699 8.66699 16.667 13 24 13c4 0 7.66699 -2.16699 11 -6.5s7.33301 -12.166 12 -23.499z" />
    <glyph glyph-name="afii10086" unicode="&#x444;" horiz-adv-x="719" 
d="M501 126l-1 2c0 -0.666992 0.166992 -1 0.5 -1s0.5 -0.333008 0.5 -1zM418 112c5.33301 14.667 12.167 25.3311 20.5 31.998s16.666 10.334 24.999 11.001s16 -1.5 23 -6.5s11.5 -11.833 13.5 -20.5c-7.33301 -5.33301 -12.833 -12.166 -16.5 -20.499
s-5.16699 -16.5 -4.5 -24.5s3.83398 -14.833 9.50098 -20.5s14.167 -8.5 25.5 -8.5c37.333 0 56 41.333 56 124c0 110 -28.333 165 -85 165c-44.667 0 -67 -33.667 -67 -101v-130zM216.001 309.997l1 -2c0 0.666992 -0.166992 1 -0.5 1s-0.5 0.333008 -0.5 1z
M299.001 323.997c-5.33301 -14.667 -12.167 -25.332 -20.5 -31.999s-16.666 -10.334 -24.999 -11.001s-16 1.5 -23 6.5s-11.5 11.833 -13.5 20.5c7.33301 4.66699 12.833 11.167 16.5 19.5s5.16699 16.5 4.5 24.5s-3.83398 15 -9.50098 21s-14.167 9 -25.5 9
c-37.333 0 -56 -41.333 -56 -124c0 -110 28.333 -165 85 -165c44.667 0 67 33.667 67 101v130zM299 73.999c-10.667 -18 -21.3301 -32.5 -31.9971 -43.5s-21.334 -19.667 -32.001 -26s-21.334 -10.666 -32.001 -12.999s-21.334 -3.5 -32.001 -3.5
c-50 0 -89.333 25.667 -118 77c-10.667 22 -19.167 45.833 -25.5 71.5s-9.5 52.834 -9.5 81.501c0 60 13.333 112 40 156c14.667 25.333 32.667 44.166 54 56.499s45.666 18.5 72.999 18.5c18.667 0 38.167 -3.16699 58.5 -9.5s38.833 -21.5 55.5 -45.5l-1 118
c0 20.667 -8 34 -24 40c-3.33301 1.33301 -6.83301 3 -10.5 5s-7.16699 3.66699 -10.5 5c-6.66699 2.66699 -10 9.33398 -10 20.001c0 5.33301 1.66699 10.333 5 15c0.666992 1.33301 5.33398 3.5 14.001 6.5s19.667 7.16699 33 12.5c16 5.33301 30.667 10.5 44 15.5
s21.666 8.83301 24.999 11.5c12.667 8.66699 22.667 13 30 13c12.667 0 20 -5.66699 22 -17c0.666992 -0.666992 1 -9.33398 1 -26.001l1 -251c20.667 35.333 41.834 58.5 63.501 69.5s43.167 16.5 64.5 16.5c50 0 89.333 -25.667 118 -77
c10.667 -22 19.167 -45.833 25.5 -71.5s9.5 -52.834 9.5 -81.501c0 -60 -13.333 -112 -40 -156c-14.667 -25.333 -32.667 -44.166 -54 -56.499s-45.666 -18.5 -72.999 -18.5c-18.667 0 -38.167 3.16699 -58.5 9.5s-38.833 21.5 -55.5 45.5v-136
c0 -19.333 7.33301 -32.333 22 -39c2 -1.33301 5 -2.5 9 -3.5s7 -2.16699 9 -3.5c5.33301 -2.66699 9.66602 -5.83398 12.999 -9.50098s5 -8.16699 5 -13.5c0 -8.66699 -3 -14.334 -9 -17.001c-6.66699 -2.66699 -19.667 -4 -39 -4h-139c-19.333 0 -32.333 1.33301 -39 4
c-6.66699 3.33301 -10 9 -10 17c0 5.33301 1.83301 9.83301 5.5 13.5s8.16699 6.83398 13.5 9.50098l18 7c14.667 6.66699 22 19.667 22 39v168z" />
    </font>
</defs>
</svg>
